<svg xmlns="http://www.w3.org/2000/svg" width="588" height="389" viewBox="0 0 156 103"><defs><clipPath clipPathUnits="userSpaceOnUse" id="a"><path transform="scale(1 -1)" fill="#fff" stroke-width="57" stroke-miterlimit="10" d="M508-3990h4410v2915H508z"/></clipPath></defs><g clip-path="url(#a)" transform="matrix(.03528 0 0 -.03528 -18 141)"><path d="M4340 1617l-35-37m35 37l-1-1m-34-36v1m-210 634l-64 35m64-35v1m-64 34l1-1m5-66l62-33m-62 33h1m61-33h-1m511-715l-14 26m14-26l-1 1m-13 25v-1m233 172l-58-238m58 238v-1m-58-237v1m-135 528l183-245m-183 245l1-1m182-244v1m-233-169l33 407m-33-407v1m33 406l-1-1m196-274l-209-143m209 143h-1m-208-143h1m-545 140l-32-51m32 51v-1m-32-50v1m141 74l-68-2m68 2h-1m-67-2h1m154 166l-52-139m52 139v-1m-52-138v0m161 216l-76-40m76 40v-1m-76-39h1m-353-62l212 63m-212-63h1m211 63h-1m-424-127l163 49m-163-49v0m163 49l-1-1m-343-56l129 1m-129-1h1m128 1l-1-1m-125 432l-7 21m7-21v1m-7 20l1-1m134-175l-102 111m102-111l-1 1m-101 110l1-1m125-360l-5 205m5-205v1m-5 204v-1m42-438l-32 182m32-182v1m-32 181v-1m-16-392l45 160m-45-160v1m45 159v-1m-1850 887l-117-10m117 10h-1m-116-10h1m1142-251l127-120m-127 120h1m126-120v0m-427 217l256-72m-256 72h1m255-72l-1 1m-121-193l-146 249m146-249l-1 1m-145 248v-1m285-433l-110 142m110-142l-1 1m-109 141l1-1m168-146l-18-6m18 6h-1m-17-6v0m122 200l-69-160m69 160l-1-1m-68-159v1m154 234l-53-36m53 36l-1-1m-52-35l1 1m1679 1214l84 278m-84-278v1m84 277v-1m-178-470l74 145m-74-145l1 1m73 144v-1m-16-325l-59 133m59-133l-1 1m-58 132v0m271-215l-177 51m177-51h-1m-176 51l1-1m-220 1079l32-12m-32 12l1-1m31-11l-1 1m-178 29l96-8m-96 8h1m95-8h-1m-163-131l35 117m-35-117v1m35 116l-1-1m-76-182l17 21m-17-21l1 1m16 20v-1m49-39l-19 37m19-37v0m-19 37v-1m-49-1150l4-22m-4 22l1-1m3-21v1m21 111l-18-40m18 40v-1m-18-39v1m73 293l-39-205m39 205v-1m-39-204v1m-124 292l144-53m-144 53h1m143-53h-1m-288-57l101 101m-101-101v0m101 101v-1m-106-362l-11 160m11-160v1m-11 159v-1m-102 246l85-139m-85 139l1-1m84-138v1m105 216l37-78m-37 78v-1m37-77v1m-378 43l-82 19m82-19h-1m-81 19h1m193-37l-60 9m60-9h-1m-59 9l1-1m253 58l-144-59m144 59h-1m-143-59h1m382 237l-195-152m195 152l-1-1m-194-151l1 1m238 234l-15-43m15 43l-1-1m-14-42v1m-632 600l-47 272m47-272v1m-47 271l1-1m82-555l-28 232m28-232v1m-28 231v-1m-151-319l158 54m-158-54h1m157 54h-1m-269 83l73-123m-73 123h1m72-123v1m35 302l-105-136m105 136h-1m-104-136v1m194 462l-67-280m67 280v-1m-67-279v1m-52 404l104-82m-104 82l1-1m103-81l-1 1m289-619l33-1m-33 1h1m32-1h-1m-77-43l9 20m-9-20l1 1m8 19l-1-1M848 4220l58 161m-58-161v1m58 160v-1m-104-237l21 31m-21-31l1 1m20 30v-1m-91-94l35 27m-35-27h1m34 27l-1-1m-5 41l-33 1m33-1h-1m-32 1h1m264-261l-308-49m308 49h-1m-307-49h1m417-31l130-87m-130 87l1-1m129-86l-1 1m-195 151l27-31m-27 31v-1m27-30v0m-82 238l32-162m-32 162v-1m32-161v1m-370-844l-133-161m133 161h-1m-132-161l1 1m214 276l-51-74m51 74l-1-1m-50-73l1 1m277 202l-189-95m189 95v0m-189-95h1m265 11l-40 73m40-73l-1 1m-39 72v-1m-225-386l259 272m-259-272v1m259 271h-1m-361-428l71 115m-71-115l1 1m70 114l-1-1m-349 652l18-96m-18 96v-1m18-95v1m3873-2258l-47 12m47-12h-1m-46 12h1m-120-422l-46 64m46-64h-1m-45 64l1-1m-404-360l142 180m-142-180l1 1m141 179l-1-1m-470-208l287 8m-287-8h1m286 8h-1m-534 40l136-25m-136 25h1m135-25h-1m-219 400l91 71m-91-71l1 1m90 70l-1-1m-137-87l-437-20m437 20h-1m-436-20h1m536-308l-68 304m68-304v1m-68 303v-1m-528-384l576 53m-576-53h1m575 53h-1m-546 309l-51-339m51 339v-1m-51-338v1m-143 429l173-58m-173 58l1-1m172-57l-1 1m-354 227l139-143m-139 143v-1m139-142h-1m-374 453l202-270m-202 270v-1m202-269l-1 1m-409 110l65-146m-65 146l1-1m64-145v1m8 1l-18 140m18-140v1m-18 139v-1m-151-283l32-70m-32 70l1-1m31-69v1m1431-701l85 28m-85-28h1m84 28h-1m-366-85l7 53m-7-53v1m7 52v-1m129-75l-113-3m113 3h-1m-112-3h1m212 59l-53-39m53 39h-1m-52-39h1m-148 92l70 20m-70-20l1 1m69 19h-1m-270-5l149-19m-149 19l1-1m148-18h-1m-646 90l446-65m-446 65h1m445-65l-1 1m-585 103l89-27m-89 27h1m88-27h-1m-194 53l56-12m-56 12h1m55-12h-1m-226 37l119-16m-119 16h1m118-16h-1m-233 43l63-17m-63 17h1m62-17v0m-204 26l90-1m-90 1h1m89-1h-1m-176 26l36-15m-36 15h1m35-15l-1 1m150 88l-184-56m184 56h-1m-183-56v0m379 152l-147-76m147 76h-1m-146-76h1m367 167l-173-69m173 69v0m-173-69l1 1m207 153l-7-49m7 49l-1-1m-6-48v1m-3 135l7-35m-7 35l1-1m6-34v1m48 101l-39-27m39 27v-1m-38-26v1M945 672l-8-34m8 34v-1m-8-33h1M836 833l98-115m-98 115l1-1m97-114l-1 1m-24 193l-68-45m68 45v0m-68-45l1 1m197-4l-85 50m85-50l-1 1m-84 49l1-1m192-182l-70 99m70-99l-1 1m-69 98v-1m1-129l58 7m-58-7h1m57 7h-1m-158-9l48-1m-48 1l1-1m47 0h-1M708 1797l116 473m-116-473l1 1m115 472l-1-1m-198-558l9-27m-9 27v-1m9-26v1m-25 649l-1-504m1 504v-1m-1-503v1m2001 1289l-105 10m105-10h-1m-104 10l1-1m396 39l-241-46m241 46l-1-1m-240-45l1 1m551-16l-260 60m260-60l-1 1m-259 59l1-1m357-156l-56 71m56-71l-1 1m-55 70v-1m43-176l21 61m-21-61v1m21 60v-1m-86-236l48 127m-48-127v1m48 126l-1-1m-222-329l148 159m-148-159v0m148 159l-1-1m-156-360l-8 157m8-157v1m-8 156v-1m90-138l-58-32m58 32l-1-1m-57-31h1m395 254l-293-195m293 195l-1-1m-292-194h1m345 278l-20-45m20 45l-1-1m-19-44v1m84 80l-28-6m28 6h-1m-27-6h1m78-84l-18 71m18-71v1m-18 70v-1m-102-87l101-6m-101 6h1m100-6h-1m-548 1661l-286 53m286-53h-1m-285 53h1m379 200l-61-232m61 232l-1-1m-60-231v1m-1023-204l-98-90m98 90l-1-1m-97-89v1m-394-413l-8 129m8-129v1m-8 128v-1m-91-326l87 149m-87-149l1 1m86 148v-1m1307 467l-103-39m103 39l-1-1m-102-38h1m-400-583l213 128m-213-128h1m212 128h-1m339 24l120 73m-120-73v0m120 73v-1m-247-78l78-6m-78 6h1m77-6h-1m-240 3l110 4m-110-4h1m109 4h-1m-207 72l54-58m-54 58v0m54-58l-1 1m-260-18l165 83m-165-83h1m164 83l-1-1m-150-215l-29 96m29-96l-1 1m-28 95v-1m302-891l-58-15m58 15h-1m-57-15h1m177 69l-71-36m71 36h-1m-70-36l1 1m153 147l-46-77m46 77l-1-1m-45-76v1m73 209l-11-85m11 85v-1m-10-84v1m78 110h-38m38 0h-1m-37 0h1m37-130l21 104m-21-104l1 1m20 103v-1m-77-116l26-7m-26 7h1m25-7l-1 1m251 2165l9-165m-9 165v-1m9-164v1m-707 279l-28-82m28 82v-1m-28-81v1m-844-832l-31 9m31-9h-1m-30 9l1-1m172 122l-100-117m100 117l-1-1m-99-116h1m103 214l9-51m-9 51v-1m9-50l-1 1m383 340l-564-109m564 109l-1-1m-563-108l1 1m880 171l-266-53m266 53h-1m-265-53h1m22-131l247 174m-247-174h1m246 174l-1-1m-691-309l398 114m-398-114l1 1m397 113l-1-1m-535-98l87-17m-87 17h1m86-17h-1m-156 121l33-75m-33 75h1m32-75v1m-266-2157l20 45m-20-45v1m20 44v-1m-290-168l235 90m-235-90h1m234 90h-1m-411 64l135-145m-135 145l1-1m134-144l-1 1m56 396l-191-214m191 214h-1m-190-214l1 1m400 232l-167 1m167-1h-1m-166 1h1m238-207l-40 180m40-180v1m-40 180v-1m1128-894l84 38m-84-38h1m83 38l-1-1m-136 56l22-79m-22 79v-1m22-78v1m-109 118l54-10m-54 10l1-1m53-9h-1m-118 120l30-81m-30 81v-1m30-80v1m-580 22l-106-187m106 187l-1-1m-105-186v1m145 209l86-1m-86 1h1m85-1h-1m-190 32l54-22m-54 22h1m53-22v1m-285-10l181 36m-181-36h1m180 36l-1-1m-369-164l143 108m-143-108h1m142 108l-1-1m1332 1296a4 4 0 1 1-8 0 4 4 0 0 1 8 0m278-385a4 4 0 1 1-8 0 4 4 0 0 1 8 0m-286 410a5 5 0 1 1-9 0 5 5 0 0 1 9 0m208-368a4 4 0 1 1-8 0 4 4 0 0 1 8 0m-246-34a4 4 0 1 1-8 0 4 4 0 0 1 8 0m464-775a5 5 0 1 1-9 0 5 5 0 0 1 9 0m98 396a4 4 0 1 1-8 0 4 4 0 0 1 8 0m-570-153a5 5 0 1 1-9 0 5 5 0 0 1 9 0m306-86a4 4 0 1 1-8 0 4 4 0 0 1 8 0m262-91a5 5 0 1 1-9 0 5 5 0 0 1 9 0m-396-117a4 4 0 1 1-8 0 4 4 0 0 1 8 0m284 599a5 5 0 0 1-9 0 5 5 0 0 1 9 0m10-210a4 4 0 1 1-8 0 4 4 0 0 1 8 0m111-210a5 5 0 1 1-9 0 5 5 0 0 1 9 0m-82 417a4 4 0 1 1-8 0 4 4 0 0 1 8 0m-73-634a5 5 0 1 1-9 0 5 5 0 0 1 9 0m-104 53a5 5 0 1 1-9 0 5 5 0 0 1 9 0m-55 443a4 4 0 1 1-8 0 4 4 0 0 1 8 0m-201-218a5 5 0 1 1-9 0 5 5 0 0 1 9 0m353 251a5 5 0 1 1-9 0 5 5 0 0 1 9 0m93-168a5 5 0 1 1-9 0 5 5 0 0 1 9 0m-239-116a5 5 0 1 1-9 0 5 5 0 0 1 9 0m346 199a5 5 0 1 1-9 0 5 5 0 0 1 9 0m-116 11a5 5 0 1 1-9 0 5 5 0 0 1 9 0m-485 73a5 5 0 1 1-9 0 5 5 0 0 1 9 0m414-490a4 4 0 1 1-8 0 4 4 0 0 1 8 0m-399 459a5 5 0 1 1-9 0 5 5 0 0 1 9 0m51-426a5 5 0 1 1-9 0 5 5 0 0 1 9 0m120 167a4 4 0 1 1-8 0 4 4 0 0 1 8 0m457 365a5 5 0 1 1-9 0 5 5 0 0 1 9 0m-173-46a5 5 0 1 1-9 0 5 5 0 0 1 9 0m-132-517a5 5 0 1 1-9 0 5 5 0 0 1 9 0m-263-135a5 5 0 1 1-9 0 5 5 0 0 1 9 0m1281 502a5 5 0 1 1-9 0 5 5 0 0 1 9 0m-406-783a4 4 0 1 1-8 0 4 4 0 0 1 8 0m-437-542a4 4 0 1 1-8 0 4 4 0 0 1 8 0m-145 799a5 5 0 1 1-9 0 5 5 0 0 1 9 0m-75-508a4 4 0 1 1-8 0 4 4 0 0 1 8 0m7 483a5 5 0 1 1-9 0 5 5 0 0 1 9 0m79-217a4 4 0 1 1-8 0 4 4 0 0 1 8 0m-304-186a4 4 0 1 1-8 0 4 4 0 0 1 8 0m628 217a4 4 0 1 1-8 0 4 4 0 0 1 8 0m-252 279a5 5 0 1 1-9 0 5 5 0 0 1 9 0m153-599a5 5 0 1 1-9 0 5 5 0 0 1 9 0m-539 42a5 5 0 1 1-9 0 5 5 0 0 1 9 0m302 452a4 4 0 1 1-8 0 4 4 0 0 1 8 0m221-126a5 5 0 1 1-9 0 5 5 0 0 1 9 0m110-465a4 4 0 1 1-8 0 4 4 0 0 1 8 0m-617 110a5 5 0 1 1-9 0 5 5 0 0 1 9 0m334 212a4 4 0 0 1-8 0 4 4 0 0 1 8 0m-23 129a5 5 0 1 1-9 0 5 5 0 0 1 9 0m3-241a5 5 0 0 1-9 0 5 5 0 0 1 9 0m196-57a4 4 0 1 1-8 0 4 4 0 0 1 8 0m-131 47a4 4 0 1 1-8 0 4 4 0 0 1 8 0m-269 102a5 5 0 1 1-9 0 5 5 0 0 1 9 0m-214 206a4 4 0 1 1-8 0 4 4 0 0 1 8 0m442-130a4 4 0 1 1-8 0 4 4 0 0 1 8 0m51-68a4 4 0 1 1-8 0 4 4 0 0 1 8 0m-131 99a4 4 0 1 1-8 0 4 4 0 0 1 8 0m-112-79a4 4 0 1 1-8 0 4 4 0 0 1 8 0m350 192a4 4 0 1 1-8 0 4 4 0 0 1 8 0m-615-188a4 4 0 1 1-8 0 4 4 0 0 1 8 0m193 251a5 5 0 0 1-9 0 5 5 0 0 1 9 0m12-298a4 4 0 1 1-8-1 4 4 0 0 1 8 1m-162 254a5 5 0 1 1-9 0 5 5 0 0 1 9 0m448-468a5 5 0 1 1-9 0 5 5 0 0 1 9 0m-494 385a5 5 0 1 1-9 0 5 5 0 0 1 9 0m859-205a4 4 0 1 1-8 0 4 4 0 0 1 8 0m-747 292a5 5 0 1 1-9 0 5 5 0 0 1 9 0m270-382a4 4 0 0 1-8 0 4 4 0 0 1 8 0m-74 168a4 4 0 1 1-8 0 4 4 0 0 1 8 0m-237-135a5 5 0 1 1-9 0 5 5 0 0 1 9 0m113-420a5 5 0 1 1-9 0 5 5 0 0 1 9 0m-201 1636a5 5 0 1 1-9 0 5 5 0 0 1 9 0m-191-788a4 4 0 1 1-8 0 4 4 0 0 1 8 0m-105 19a5 5 0 0 1-9 0 5 5 0 0 1 9 0m-49 130a4 4 0 1 1-8 0 4 4 0 0 1 8 0m102 228a5 5 0 1 1-9 0 5 5 0 0 1 9 0m-557 223a4 4 0 1 1-8 0 4 4 0 0 1 8 0m702-555a4 4 0 1 1-8 0 4 4 0 0 1 8 0m79 658a5 5 0 1 1-9 0 5 5 0 0 1 9 0m-611-89a5 5 0 1 1-9 0 5 5 0 0 1 9 0m58-183a4 4 0 1 1-8 0 4 4 0 0 1 8 0m197-136a5 5 0 1 1-9 0 5 5 0 0 1 9 0m113 43a5 5 0 1 1-9 0 5 5 0 0 1 9 0m-172 183a5 5 0 1 1-9 0 5 5 0 0 1 9 0m219-293a4 4 0 1 1-8 0 4 4 0 0 1 8 0m-403 160a4 4 0 1 1-8 0 4 4 0 0 1 8 0m443-380a5 5 0 1 1-9 0 5 5 0 0 1 9 0m-341 353a5 5 0 1 1-9 0 5 5 0 0 1 9 0m200 147a5 5 0 1 1-9 0 5 5 0 0 1 9 0m36-232a5 5 0 1 1-9 0 5 5 0 0 1 9 0m98 1305a5 5 0 1 1-9 0 5 5 0 0 1 9 0m-463-270a5 5 0 1 1-9 0 5 5 0 0 1 9 0m197 102a5 5 0 1 1-9 0 5 5 0 0 1 9 0m388-27a5 5 0 1 1-9 0 5 5 0 0 1 9 0m-71-382a5 5 0 1 1-9 0 5 5 0 0 1 9 0m-213-104a5 5 0 1 1-9 0 5 5 0 0 1 9 0m17 365a4 4 0 1 1-8 0 4 4 0 0 1 8 0m-218 8a4 4 0 1 1-8 0 4 4 0 0 1 8 0m52 87a4 4 0 1 1-8 0 4 4 0 0 1 8 0m62-102a4 4 0 1 1-8 0 4 4 0 0 1 8 0m-141-405a4 4 0 1 1-8 0 4 4 0 0 1 8 0m147 430a4 4 0 1 1-8 0 4 4 0 0 1 8 0m291-101a5 5 0 1 1-9 0 5 5 0 0 1 9 0m-52-294a5 5 0 1 1-9 0 5 5 0 0 1 9 0m-83 550a5 5 0 1 1-9 0 5 5 0 0 1 9 0m-524-570a4 4 0 1 1-8 0 4 4 0 0 1 8 0m1110 267a5 5 0 1 1-9 0 5 5 0 0 1 9 0m433-2a4 4 0 0 1-8 0 4 4 0 0 1 8 0m-342 1a5 5 0 1 1-9 0 5 5 0 0 1 9 0m276-177a5 5 0 1 1-9 0 5 5 0 0 1 9 0m-297 470a4 4 0 1 1-8-1 4 4 0 0 1 8 1m-291-55a5 5 0 1 1-9 0 5 5 0 0 1 9 0m130-496a4 4 0 1 1-8 0 4 4 0 0 1 8 0m30 253a5 5 0 0 1-9 0 5 5 0 0 1 9 0m43-131a4 4 0 1 1-8 0 4 4 0 0 1 8 0m-190-182a5 5 0 0 1-9 0 5 5 0 0 1 9 0m408 29a5 5 0 1 1-9 0 5 5 0 0 1 9 0m-27 447a5 5 0 1 1-9 0 5 5 0 0 1 9 0m-143 146a4 4 0 1 1-8 0 4 4 0 0 1 8 0m264-573a4 4 0 1 1-8 0 4 4 0 0 1 8 0m-410 238a5 5 0 1 1-9 0 5 5 0 0 1 9 0m489-55a4 4 0 1 1-8 0 4 4 0 0 1 8 0m0-49a5 5 0 1 1-9 0 5 5 0 0 1 9 0m345-867a4 4 0 1 1-8 0 4 4 0 0 1 8 0m-102-164a4 4 0 1 1-8 0 4 4 0 0 1 8 0m420 181a5 5 0 1 1-9 0 5 5 0 0 1 9 0m-409 141a4 4 0 1 1-8 0 4 4 0 0 1 8 0m152 258a4 4 0 1 1-8 0 4 4 0 0 1 8 0m92-794a5 5 0 1 1-9 0 5 5 0 0 1 9 0m97 244a4 4 0 1 1-8 0 4 4 0 0 1 8 0m311 382a4 4 0 1 1-8 0 4 4 0 0 1 8 0m-306-283a5 5 0 1 1-9 0 5 5 0 0 1 9 0m-355-1a4 4 0 1 1-8 0 4 4 0 0 1 8 0m-150 281a5 5 0 1 1-9 0 5 5 0 0 1 9 0m483-407a5 5 0 1 1-9-1 5 5 0 0 1 9 1m171 120a5 5 0 1 1-9 0 5 5 0 0 1 9 0m-558 424a5 5 0 1 1-9 0 5 5 0 0 1 9 0m531 16a4 4 0 1 1-8 0 4 4 0 0 1 8 0M2916 3475a5 5 0 1 1-9 0 5 5 0 0 1 9 0m280-53a5 5 0 1 1-9 0 5 5 0 0 1 9 0m691 124a5 5 0 1 1-9 0 5 5 0 0 1 9 0m-634 35a4 4 0 1 1-8 0 4 4 0 0 1 8 0m464-94a5 5 0 1 1-9 0 5 5 0 0 1 9 0m-566-32a4 4 0 0 1-8 0 4 4 0 0 1 8 0m550-193a5 5 0 1 1-9 0 5 5 0 0 1 9 0m-720 195a4 4 0 1 1-8 0 4 4 0 0 1 8 0m40 158a5 5 0 1 1-9 0 5 5 0 0 1 9 0m273 327a5 5 0 1 1-9 0 5 5 0 0 1 9 0m-125-484a5 5 0 1 1-9 0 5 5 0 0 1 9 0m249-73a4 4 0 1 1-8 0 4 4 0 0 1 8 0m12 439a4 4 0 1 1-8 0 4 4 0 0 1 8 0m-247 113a4 4 0 1 1-8 0 4 4 0 0 1 8 0m676-566a4 4 0 1 1-8 0 4 4 0 0 1 8 0m-443-312a4 4 0 1 1-8 0 4 4 0 0 1 8 0m-259 862a4 4 0 1 1-8 0 4 4 0 0 1 8 0m635-499a4 4 0 1 1-8 0 4 4 0 0 1 8 0m196-1104a4 4 0 1 1-8 0 4 4 0 0 1 8 0m-341 249a4 4 0 1 1-8 0 4 4 0 0 1 8 0m-32 121a4 4 0 1 1-8 0 4 4 0 0 1 8 0m499 420a5 5 0 1 1-9 0 5 5 0 0 1 9 0m-80-263a4 4 0 1 1-8 0 4 4 0 0 1 8 0m-112 184a5 5 0 1 1-9-1 5 5 0 0 1 9 1m-428-452a5 5 0 1 1-9 0 5 5 0 0 1 9 0m304 85a5 5 0 1 1-9 0 5 5 0 0 1 9 0m252-87a4 4 0 1 1-8 0 4 4 0 0 1 8 0m-373 500a4 4 0 1 1-8 0 4 4 0 0 1 8 0m496-93a4 4 0 1 1-8 0 4 4 0 0 1 8 0m-842 8a5 5 0 1 1-9 0 5 5 0 0 1 9 0m479 54a4 4 0 1 1-8 0 4 4 0 0 1 8 0m-125 102a4 4 0 1 1-8 0 4 4 0 0 1 8 0m393-728a4 4 0 0 1-8 0 4 4 0 0 1 8 0m173 144a5 5 0 1 1-9 0 5 5 0 0 1 9 0m-216 225a5 5 0 1 1-9 0 5 5 0 0 1 9 0m-11 38a4 4 0 1 1-8 0 4 4 0 0 1 8 0m-382 336a4 4 0 1 1-8 0 4 4 0 0 1 8 0m256 96a5 5 0 1 1-9 0 5 5 0 0 1 9 0m-418-839a4 4 0 1 1-8 0 4 4 0 0 1 8 0m660 431a4 4 0 1 1-8 0 4 4 0 0 1 8 0m-396 81a4 4 0 1 1-8 0 4 4 0 0 1 8 0m-296-78a5 5 0 1 1-9 0 5 5 0 0 1 9 0m632 393a4 4 0 1 1-8 0 4 4 0 0 1 8 0m-545-575a4 4 0 1 1-8 0 4 4 0 0 1 8 0m112 285a4 4 0 1 1-8 0 4 4 0 0 1 8 0m567-491a5 5 0 1 1-9 0 5 5 0 0 1 9 0m-779-6a4 4 0 1 1-8 0 4 4 0 0 1 8 0m102 468a4 4 0 1 1-8 0 4 4 0 0 1 8 0m-16-1196a4 4 0 1 1-8 0 4 4 0 0 1 8 0m182 1a5 5 0 1 1-9 0 5 5 0 0 1 9 0m41-234a5 5 0 1 1-9 0 5 5 0 0 1 9 0m-48 491a4 4 0 1 1-8 0 4 4 0 0 1 8 0m-12-701a5 5 0 1 1-9 0 5 5 0 0 1 9 0m442 850a4 4 0 1 1-8 0 4 4 0 0 1 8 0m-3 65a5 5 0 1 1-9 0 5 5 0 0 1 9 0m-664-594a5 5 0 1 1-9-1 5 5 0 0 1 9 1m68-164a4 4 0 1 1-8 0 4 4 0 0 1 8 0m9 764a5 5 0 1 1-9 0 5 5 0 0 1 9 0m43-333a4 4 0 1 1-8 0 4 4 0 0 1 8 0m-21 262a4 4 0 1 1-8 0 4 4 0 0 1 8 0m358-343a5 5 0 1 1-9 0 5 5 0 0 1 9 0m-370-210a4 4 0 1 1-8 0 4 4 0 0 1 8 0m5 298a5 5 0 1 1-9 0 5 5 0 0 1 9 0m348-357a4 4 0 1 1-8 0 4 4 0 0 1 8 0m-76 713a4 4 0 1 1-8 0 4 4 0 0 1 8 0m-8-799a4 4 0 1 1-8 0 4 4 0 0 1 8 0m174 361a5 5 0 1 1-9 0 5 5 0 0 1 9 0m-499-338a5 5 0 1 1-9 0 5 5 0 0 1 9 0m-143 568a4 4 0 0 1-8 0 4 4 0 0 1 8 0m671 166a4 4 0 1 1-8 0 4 4 0 0 1 8 0m-73-126a5 5 0 1 1-9 0 5 5 0 0 1 9 0m67 192a4 4 0 1 1-8 0 4 4 0 0 1 8 0m-89-168a5 5 0 1 1-9 0 5 5 0 0 1 9 0m-41-506a5 5 0 1 1-9 0 5 5 0 0 1 9 0m-312-225a4 4 0 1 1-8 0 4 4 0 0 1 8 0m15 727a5 5 0 1 1-9 0 5 5 0 0 1 9 0m-340-146a4 4 0 1 1-8 0 4 4 0 0 1 8 0m440-405a4 4 0 1 1-8 0 4 4 0 0 1 8 0m-306 139a4 4 0 1 1-8 0 4 4 0 0 1 8 0m391-93a4 4 0 1 1-8 0 4 4 0 0 1 8 0m-368 773a5 5 0 1 1-9 0 5 5 0 0 1 9 0m693-520a5 5 0 1 1-9 0 5 5 0 0 1 9 0m-90 99a4 4 0 1 1-8 0 4 4 0 0 1 8 0m-597-237a5 5 0 1 1-9 0 5 5 0 0 1 9 0m88-36a4 4 0 1 1-8 0 4 4 0 0 1 8 0m274 53a4 4 0 1 1-8 0 4 4 0 0 1 8 0m-3147 19a4 4 0 1 1-8 0 4 4 0 0 1 8 0m-139-344a5 5 0 1 1-9 0 5 5 0 0 1 9 0m-11 565a5 5 0 1 1-9 0 5 5 0 0 1 9 0m-189 364a4 4 0 1 1-8 0 4 4 0 0 1 8 0m-84-72a5 5 0 1 1-9 0 5 5 0 0 1 9 0m598-468a5 5 0 1 1-9 0 5 5 0 0 1 9 0m-350-43a5 5 0 1 1-9 0 5 5 0 0 1 9 0m52 46a4 4 0 1 1-8 0 4 4 0 0 1 8 0m308 10a4 4 0 1 1-8 0 4 4 0 0 1 8 0m-44 124a5 5 0 1 1-9 0 5 5 0 0 1 9 0m-268-377a5 5 0 1 1-9 0 5 5 0 0 1 9 0m189 191a5 5 0 1 1-9 0 5 5 0 0 1 9 0m184-109a4 4 0 1 1-8 0 4 4 0 0 1 8 0m-503 244a5 5 0 1 1-9 0 5 5 0 0 1 9 0m181 439a4 4 0 1 1-8 0 4 4 0 0 1 8 0m34 196a5 5 0 1 1-9 0 5 5 0 0 1 9 0m-289-201a5 5 0 1 1-9 0 5 5 0 0 1 9 0m-144-248a5 5 0 1 1-9 0 5 5 0 0 1 9 0m7-162a4 4 0 1 1-8 0 4 4 0 0 1 8 0m467-177a4 4 0 1 1-8 0 4 4 0 0 1 8 0m-481 617a5 5 0 1 1-9 0 5 5 0 0 1 9 0m647 168a4 4 0 1 1-8 0 4 4 0 0 1 8 0m-659-302a5 5 0 1 1-9 0 5 5 0 0 1 9 0m547-123a4 4 0 1 1-8 0 4 4 0 0 1 8 0m-100-305a5 5 0 1 1-9 0 5 5 0 0 1 9 0m-189 148a5 5 0 1 1-9 0 5 5 0 0 1 9 0m117 128a4 4 0 1 1-8 0 4 4 0 0 1 8 0m82-218a4 4 0 1 1-8 0 4 4 0 0 1 8 0m12-121a4 4 0 1 1-8 0 4 4 0 0 1 8 0m-95 222a5 5 0 1 1-9 0 5 5 0 0 1 9 0M71 2469a4 4 0 1 1-8 0 4 4 0 0 1 8 0m551-714a4 4 0 1 1-8 0 4 4 0 0 1 8 0m55-39a4 4 0 1 1-8-1 4 4 0 0 1 8 1m-178 376a5 5 0 1 1-9 0 5 5 0 0 1 9 0m241 443a4 4 0 1 1-8 0 4 4 0 0 1 8 0M512 1531a5 5 0 1 1-9 0 5 5 0 0 1 9 0m-30 850a5 5 0 1 1-9 0 5 5 0 0 1 9 0m221 81a4 4 0 1 1-8 0 4 4 0 0 1 8 0m-57-183a5 5 0 1 1-9 0 5 5 0 0 1 9 0m-579 81a5 5 0 1 1-9 0 5 5 0 0 1 9 0m301 91a4 4 0 1 1-8 0 4 4 0 0 1 8 0m294-241a5 5 0 1 1-9 0 5 5 0 0 1 9 0m121-512a5 5 0 1 1-9 0 5 5 0 0 1 9 0M99 2170a5 5 0 1 1-9 0 5 5 0 0 1 9 0m846-367a4 4 0 1 1-8 0 4 4 0 0 1 8 0m-311-64a5 5 0 1 1-9 0 5 5 0 0 1 9 0m-111 494a4 4 0 1 1-8 0 4 4 0 0 1 8 0M382 3556a4 4 0 1 1-8 0 4 4 0 0 1 8 0m599-226a4 4 0 1 1-8 0 4 4 0 0 1 8 0m-482-438a5 5 0 1 1-9 0 5 5 0 0 1 9 0m154-150a5 5 0 1 1-9 0 5 5 0 0 1 9 0m-243 666a5 5 0 1 1-9 0 5 5 0 0 1 9 0m341-507a5 5 0 1 1-9 0 5 5 0 0 1 9 0m-104-226a5 5 0 1 1-9 0 5 5 0 0 1 9 0m-232 304a4 4 0 1 1-8 0 4 4 0 0 1 8 0m330 232a5 5 0 1 1-9 0 5 5 0 0 1 9 0m141 158a4 4 0 1 1-8 0 4 4 0 0 1 8 0m-292-123a4 4 0 1 1-8 0 4 4 0 0 1 8 0m71-152a5 5 0 1 1-9 0 5 5 0 0 1 9 0m249 101a4 4 0 1 1-8 0 4 4 0 0 1 8 0m7 82a4 4 0 1 1-8 0 4 4 0 0 1 8 0m-638-703a5 5 0 1 1-9 0 5 5 0 0 1 9 0m311 226a5 5 0 1 1-9 0 5 5 0 0 1 9 0m70-215a4 4 0 1 1-8 0 4 4 0 0 1 8 0m332 720a4 4 0 1 1-8 0 4 4 0 0 1 8 0m-566 106a5 5 0 1 1-9 0 5 5 0 0 1 9 0m414-745a4 4 0 1 1-8 0 4 4 0 0 1 8 0m-418-45a4 4 0 1 1-8 0 4 4 0 0 1 8 0m-270 179a4 4 0 1 1-8 0 4 4 0 0 1 8 0m-18 263a4 4 0 1 1-8 0 4 4 0 0 1 8 0m274-401a4 4 0 1 1-8 0 4 4 0 0 1 8 0m10 303a5 5 0 1 1-9 0 5 5 0 0 1 9 0m-179-80a5 5 0 1 1-9 0 5 5 0 0 1 9 0m272 509a4 4 0 1 1-8 0 4 4 0 0 1 8 0m61-810a4 4 0 1 1-8 0 4 4 0 0 1 8 0m-134 480a4 4 0 1 1-8 0 4 4 0 0 1 8 0m-117-110a4 4 0 1 1-8 0 4 4 0 0 1 8 0m-38 72a4 4 0 1 1-8 0 4 4 0 0 1 8 0m457 429a5 5 0 1 1-9 0 5 5 0 0 1 9 0m-278-794a4 4 0 1 1-8 0 4 4 0 0 1 8 0m513 741a5 5 0 1 1-9 0 5 5 0 0 1 9 0m-549-18a5 5 0 1 1-9 0 5 5 0 0 1 9 0m1089 731a5 5 0 1 1-9 0 5 5 0 0 1 9 0m-676 81a5 5 0 1 1-9 0 5 5 0 0 1 9 0m-51-74a5 5 0 1 1-9 0 5 5 0 0 1 9 0m473 292a5 5 0 1 1-9 0 5 5 0 0 1 9 0m-602-581a4 4 0 1 1-8 0 4 4 0 0 1 8 0m937 259a5 5 0 1 1-9 0 5 5 0 0 1 9 0m-680 314a5 5 0 1 1-9 0 5 5 0 0 1 9 0m103-515a4 4 0 1 1-8 0 4 4 0 0 1 8 0m236-186a5 5 0 1 1-9 0 5 5 0 0 1 9 0m-544 358a4 4 0 1 1-8 0 4 4 0 0 1 8 0m266 41a4 4 0 1 1-8 0 4 4 0 0 1 8 0m-275 44a5 5 0 1 1-9 0 5 5 0 0 1 9 0m705-82a5 5 0 1 1-9 0 5 5 0 0 1 9 0m-620 79a4 4 0 1 1-8 0 4 4 0 0 1 8 0m-365-337a4 4 0 1 1-8 0 4 4 0 0 1 8 0m248 304a5 5 0 1 1-9 0 5 5 0 0 1 9 0m747-153a4 4 0 1 1-8 0 4 4 0 0 1 8 0m-335-139a5 5 0 1 1-9 0 5 5 0 0 1 9 0m74 696a5 5 0 1 1-9 0 5 5 0 0 1 9 0m-118-1061a4 4 0 1 1-8 0 4 4 0 0 1 8 0m173 874a5 5 0 1 1-9 0 5 5 0 0 1 9 0m-310-39a5 5 0 1 1-9 0 5 5 0 0 1 9 0m-67-622a5 5 0 1 1-9 0 5 5 0 0 1 9 0m684 834a5 5 0 1 1-9 0 5 5 0 0 1 9 0m932 182a5 5 0 1 1-9 0 5 5 0 0 1 9 0m-290-204a5 5 0 1 1-9 0 5 5 0 0 1 9 0m-449-128a4 4 0 1 1-8 0 4 4 0 0 1 8 0m421 268a4 4 0 1 1-8 0 4 4 0 0 1 8 0m-403-371a4 4 0 1 1-8 0 4 4 0 0 1 8 0m-157 130a4 4 0 1 1-8 0 4 4 0 0 1 8 0m879 658a5 5 0 1 1-9 0 5 5 0 0 1 9 0m-747-367a5 5 0 1 1-9 0 5 5 0 0 1 9 0m495 101a5 5 0 1 1-9 0 5 5 0 0 1 9 0m207 134a5 5 0 1 1-9 0 5 5 0 0 1 9 0m-255-16a5 5 0 1 1-9 0 5 5 0 0 1 9 0m-663-341a4 4 0 1 1-8 0 4 4 0 0 1 8 0m571-81a5 5 0 1 1-9 0 5 5 0 0 1 9 0m-20-140a5 5 0 1 1-9 0 5 5 0 0 1 9 0m409 198a5 5 0 1 1-9 0 5 5 0 0 1 9 0m-265-115a4 4 0 1 1-8 0 4 4 0 0 1 8 0m-187 411a4 4 0 1 1-8 0 4 4 0 0 1 8 0m-601-262a5 5 0 1 1-9 0 5 5 0 0 1 9 0m310-198a5 5 0 1 1-9-1 5 5 0 0 1 9 1m221 546a4 4 0 1 1-8 0 4 4 0 0 1 8 0m477-50a4 4 0 1 1-8 0 4 4 0 0 1 8 0m-195 128a4 4 0 1 1-8 0 4 4 0 0 1 8 0m-263-143a4 4 0 1 1-8 0 4 4 0 0 1 8 0m1580-512a5 5 0 1 1-9 0 5 5 0 0 1 9 0m-374 375a5 5 0 1 1-9 0 5 5 0 0 1 9 0m-13 218a4 4 0 1 1-8 0 4 4 0 0 1 8 0m379-506a4 4 0 1 1-8 0 4 4 0 0 1 8 0m-913 431a5 5 0 1 1-9 0 5 5 0 0 1 9 0m491-623a5 5 0 1 1-9 0 5 5 0 0 1 9 0m-338 63a5 5 0 1 1-9 0 5 5 0 0 1 9 0m721 97a4 4 0 1 1-8 0 4 4 0 0 1 8 0m-917 522a5 5 0 1 1-9 0 5 5 0 0 1 9 0m175-319a5 5 0 1 1-9 0 5 5 0 0 1 9 0m338-49a4 4 0 1 1-8 0 4 4 0 0 1 8 0m-12-296a4 4 0 0 1-8 0 4 4 0 0 1 8 0m283 560a5 5 0 1 1-9 0 5 5 0 0 1 9 0m-504-365a5 5 0 1 1-9 0 5 5 0 0 1 9 0m-111-78a5 5 0 1 1-9 0 5 5 0 0 1 9 0m232 410a5 5 0 1 1-9 0 5 5 0 0 1 9 0m38-324a4 4 0 1 1-8 0 4 4 0 0 1 8 0m449-167a5 5 0 1 1-9 0 5 5 0 0 1 9 0m-502-3a4 4 0 1 1-8 0 4 4 0 0 1 8 0m578 509a5 5 0 1 1-9 0 5 5 0 0 1 9 0m-840-367a5 5 0 1 1-9 0 5 5 0 0 1 9 0m71-101a5 5 0 1 1-9 0 5 5 0 0 1 9 0m12 671a4 4 0 1 1-8 0 4 4 0 0 1 8 0m596-438a5 5 0 1 1-9 0 5 5 0 0 1 9 0m-503 6a4 4 0 1 1-8 0 4 4 0 0 1 8 0m308-48a5 5 0 1 1-9 0 5 5 0 0 1 9 0m503-292a6 6 0 1 1-11 0 6 6 0 0 1 11 0m325-603a5 5 0 1 1-9 0 5 5 0 0 1 9 0m514 256a4 4 0 1 1-8 0 4 4 0 0 1 8 0m-784 23a4 4 0 1 1-8 0 4 4 0 0 1 8 0m586-177a4 4 0 1 1-8 0 4 4 0 0 1 8 0m-402-101a5 5 0 1 1-9 0 5 5 0 0 1 9 0m682 227a5 5 0 1 1-9 0 5 5 0 0 1 9 0m-393 569a5 5 0 1 1-9 0 5 5 0 0 1 9 0m163-528a4 4 0 1 1-8 0 4 4 0 0 1 8 0m-320-313a5 5 0 1 1-9 0 5 5 0 0 1 9 0m315 62a4 4 0 1 1-8 0 4 4 0 0 1 8 0m-96 23a4 4 0 1 1-8 0 4 4 0 0 1 8 0m-171-193a4 4 0 1 1-8 0 4 4 0 0 1 8 0m-277 1240a5 5 0 1 1-9 0 5 5 0 0 1 9 0m512-420a4 4 0 1 1-8 0 4 4 0 0 1 8 0m176-445a4 4 0 1 1-8 0 4 4 0 0 1 8 0m-554 362a5 5 0 0 1-9 0 5 5 0 0 1 9 0m-329-314a5 5 0 1 1-9 0 5 5 0 0 1 9 0m572-202a4 4 0 0 1-8 0 4 4 0 0 1 8 0m-352 107a4 4 0 1 1-8 0 4 4 0 0 1 8 0m78 234a4 4 0 1 1-8 0 4 4 0 0 1 8 0m0 82a4 4 0 1 1-8 0 4 4 0 0 1 8 0m161-578a5 5 0 1 1-9 0 5 5 0 0 1 9 0m129 65a5 5 0 1 1-9 0 5 5 0 0 1 9 0m-341 249a5 5 0 1 1-9 0 5 5 0 0 1 9 0m-138 70a4 4 0 1 1-8 0 4 4 0 0 1 8 0m-186 189a4 4 0 1 1-8 0 4 4 0 0 1 8 0m205 162a5 5 0 1 1-9 0 5 5 0 0 1 9 0m305 51a5 5 0 1 1-9 0 5 5 0 0 1 9 0m-154-500a5 5 0 1 1-9 0 5 5 0 0 1 9 0m-2 330a4 4 0 1 1-8 0 4 4 0 0 1 8 0m6 277a5 5 0 1 1-9 0 5 5 0 0 1 9 0m828-1630a4 4 0 1 1-8 0 4 4 0 0 1 8 0m228-66a5 5 0 1 1-9 0 5 5 0 0 1 9 0m-612 568a5 5 0 1 1-9 0 5 5 0 0 1 9 0m17-381a5 5 0 1 1-9 0 5 5 0 0 1 9 0m385 252a4 4 0 1 1-8 0 4 4 0 0 1 8 0m-435-508a4 4 0 1 1-8 0 4 4 0 0 1 8 0m337 317a4 4 0 0 1-8 0 4 4 0 0 1 8 0m-377-405a4 4 0 1 1-8 0 4 4 0 0 1 8 0m105 817a5 5 0 1 1-9 0 5 5 0 0 1 9 0m633-703a5 5 0 1 1-9 0 5 5 0 0 1 9 0m-163 810a4 4 0 1 1-8 0 4 4 0 0 1 8 0m102-588a5 5 0 1 1-9 1 5 5 0 0 1 9-1m-233 289a4 4 0 1 1-8 0 4 4 0 0 1 8 0m-370-411a4 4 0 1 1-8 0 4 4 0 0 1 8 0m175 632a5 5 0 0 1-9 0 5 5 0 0 1 9 0m312 177a5 5 0 1 1-9 0 5 5 0 0 1 9 0m-624-104a5 5 0 1 1-9 0 5 5 0 0 1 9 0m404-109a5 5 0 1 1-9 0 5 5 0 0 1 9 0m63-310a5 5 0 1 1-9 0 5 5 0 0 1 9 0m-42 11a5 5 0 1 1-9 0 5 5 0 0 1 9 0m-602 316a4 4 0 1 1-8 0 4 4 0 0 1 8 0m343 126a4 4 0 1 1-8 0 4 4 0 0 1 8 0m207-2036a4 4 0 1 1-8 0 4 4 0 0 1 8 0m-22 62a5 5 0 1 1-9 0 5 5 0 0 1 9 0m59 398a5 5 0 1 1-9 0 5 5 0 0 1 9 0m-446-71a5 5 0 1 1-9 0 5 5 0 0 1 9 0m660-216a4 4 0 1 1-8 0 4 4 0 0 1 8 0m-547-96a5 5 0 1 1-9 0 5 5 0 0 1 9 0m334-149a5 5 0 1 1-9 0 5 5 0 0 1 9 0m205 1066a5 5 0 1 1-9 0 5 5 0 0 1 9 0m-468-842a5 5 0 1 1-9 0 5 5 0 0 1 9 0m-72 858a4 4 0 1 1-8 0 4 4 0 0 1 8 0m188-143a4 4 0 0 1-8 0 4 4 0 0 1 8 0m290-982a5 5 0 1 1-9 0 5 5 0 0 1 9 0m244 1175a4 4 0 1 1-8-1 4 4 0 0 1 8 1m-406-539a4 4 0 1 1-8 0 4 4 0 0 1 8 0m417 487a5 5 0 1 1-9 0 5 5 0 0 1 9 0m-539-331a4 4 0 1 1-8 0 4 4 0 0 1 8 0m30 315a4 4 0 1 1-8 0 4 4 0 0 1 8 0m33-340a4 4 0 1 1-8 0 4 4 0 0 1 8 0m-144-448a4 4 0 1 1-8 0 4 4 0 0 1 8 0m10-14a4 4 0 0 1-8 0 4 4 0 0 1 8 0m-143 178a4 4 0 1 1-8 0 4 4 0 0 1 8 0m427-234a5 5 0 1 1-9 0 5 5 0 0 1 9 0m359 914a5 5 0 1 1-9 0 5 5 0 0 1 9 0m-857-869a4 4 0 1 1-8 0 4 4 0 0 1 8 0m211 436a5 5 0 1 1-9 0 5 5 0 0 1 9 0m495-137a4 4 0 1 1-8 0 4 4 0 0 1 8 0m68 586a4 4 0 1 1-8 0 4 4 0 0 1 8 0m-120-71a5 5 0 1 1-9 0 5 5 0 0 1 9 0m50-858a4 4 0 1 1-8 0 4 4 0 0 1 8 0m-273 931a4 4 0 1 1-8 0 4 4 0 0 1 8 0m-49-1102a5 5 0 1 1-9 0 5 5 0 0 1 9 0m-188 468a4 4 0 1 1-8 0 4 4 0 0 1 8 0m-79 276a4 4 0 1 1-8 0 4 4 0 0 1 8 0m676 136a4 4 0 1 1-8 0 4 4 0 0 1 8 0m-514 52a5 5 0 1 1-9 0 5 5 0 0 1 9 0m-231-719a4 4 0 1 1-8 0 4 4 0 0 1 8 0m249 877a5 5 0 1 1-9 0 5 5 0 0 1 9 0m-341-602a5 5 0 1 1-9 0 5 5 0 0 1 9 0M3821 670a4 4 0 1 1-8 0 4 4 0 0 1 8 0m385 526a5 5 0 1 1-9 0 5 5 0 0 1 9 0m-41 8a5 5 0 1 1-9 0 5 5 0 0 1 9 0m-37-459a5 5 0 1 1-9 0 5 5 0 0 1 9 0m175 425a5 5 0 1 1-9 0 5 5 0 0 1 9 0m-483-154a5 5 0 1 1-9 0 5 5 0 0 1 9 0m-249 20a4 4 0 1 1-8 0 4 4 0 0 1 8 0m547 124a4 4 0 1 1-8 0 4 4 0 0 1 8 0m-416-318a4 4 0 1 1-8 0 4 4 0 0 1 8 0m458 320a4 4 0 1 1-8 0 4 4 0 0 1 8 0m-108-310a5 5 0 1 1-9 0 5 5 0 0 1 9 0m-34 714a5 5 0 1 1-9 0 5 5 0 0 1 9 0m-317-507a5 5 0 1 1-9 0 5 5 0 0 1 9 0m158 275a5 5 0 1 1-9 0 5 5 0 0 1 9 0m220 327a4 4 0 1 1-8 0 4 4 0 0 1 8 0m138-448a4 4 0 1 1-8 0 4 4 0 0 1 8 0m-137-331a5 5 0 1 1-9 0 5 5 0 0 1 9 0m-555 229a4 4 0 1 1-8 0 4 4 0 0 1 8 0m547 424a5 5 0 0 1-9 0 5 5 0 0 1 9 0m-15-228a5 5 0 1 1-9 0 5 5 0 0 1 9 0m-122 35a4 4 0 1 1-8 0 4 4 0 0 1 8 0m386 37a5 5 0 1 1-9 0 5 5 0 0 1 9 0M2982 848a5 5 0 1 1-9 0 5 5 0 0 1 9 0m79-354a4 4 0 1 1-8 0 4 4 0 0 1 8 0m247-53a4 4 0 1 1-8 0 4 4 0 0 1 8 0m-195 342a5 5 0 1 1-9 0 5 5 0 0 1 9 0m534-334a4 4 0 1 1-8 0 4 4 0 0 1 8 0m-637-303a4 4 0 1 1-8 0 4 4 0 0 1 8 0m413 791a5 5 0 1 1-9 0 5 5 0 0 1 9 0m-274-173a5 5 0 1 1-9 0 5 5 0 0 1 9 0m-586-563a5 5 0 1 1-9 0 5 5 0 0 1 9 0m201-25a5 5 0 1 1-9 0 5 5 0 0 1 9 0m484 283a4 4 0 1 1-8 0 4 4 0 0 1 8 0m-363-248a5 5 0 1 1-9 0 5 5 0 0 1 9 0m-46 474a4 4 0 1 1-8 0 4 4 0 0 1 8 0m-89-614a4 4 0 1 1-8 0 4 4 0 0 1 8 0m328 261a5 5 0 1 1-9 0 5 5 0 0 1 9 0m67-142a4 4 0 1 1-8 0 4 4 0 0 1 8 0m-296 194a5 5 0 1 1-9 0 5 5 0 0 1 9 0m27 316a4 4 0 1 1-8 0 4 4 0 0 1 8 0m-303 13a4 4 0 1 1-8 0 4 4 0 0 1 8 0m986-450a5 5 0 1 1-9 0 5 5 0 0 1 9 0m-585 507a5 5 0 1 1-9 0 5 5 0 0 1 9 0m524-436a5 5 0 1 1-9 0 5 5 0 0 1 9 0m-367 596a4 4 0 1 1-8 0 4 4 0 0 1 8 0m154 32a4 4 0 1 1-8 0 4 4 0 0 1 8 0m418-518a4 4 0 1 1-8 0 4 4 0 0 1 8 0m-507-98a5 5 0 1 1-9 0 5 5 0 0 1 9 0m-521 490a4 4 0 1 1-8 0 4 4 0 0 1 8 0m240-761a4 4 0 1 1-8 0 4 4 0 0 1 8 0m-821 1005a5 5 0 1 1-9 0 5 5 0 0 1 9 0m295 537a5 5 0 1 1-9 0 5 5 0 0 1 9 0m-529-225a4 4 0 1 1-8 0 4 4 0 0 1 8 0m660 285a4 4 0 1 1-8 0 4 4 0 0 1 8 0m-800-443a4 4 0 1 1-8 0 4 4 0 0 1 8 0m549-335a4 4 0 1 1-8 0 4 4 0 0 1 8 0m93 760a5 5 0 1 1-9 0 5 5 0 0 1 9 0m-293-176a5 5 0 1 1-9 0 5 5 0 0 1 9 0m322 58a4 4 0 1 1-8 0 4 4 0 0 1 8 0m-193-406a5 5 0 1 1-9 0 5 5 0 0 1 9 0m-540 101a5 5 0 1 1-9 0 5 5 0 0 1 9 0m410 312a4 4 0 1 1-8 0 4 4 0 0 1 8 0m-77-254a5 5 0 1 1-9 0 5 5 0 0 1 9 0m202 100a4 4 0 1 1-8 0 4 4 0 0 1 8 0m61 216a5 5 0 1 1-9 0 5 5 0 0 1 9 0m46-634a5 5 0 1 1-9 0 5 5 0 0 1 9 0m-267-41a5 5 0 1 1-9 0 5 5 0 0 1 9 0m402 112a5 5 0 1 1-9 0 5 5 0 0 1 9 0m-179 149a4 4 0 1 1-8 0 4 4 0 0 1 8 0m70 195a4 4 0 1 1-8 0 4 4 0 0 1 8 0m121-291a4 4 0 1 1-8 0 4 4 0 0 1 8 0m-105 604a5 5 0 1 1-9 0 5 5 0 0 1 9 0m-134 47a5 5 0 1 1-9 0 5 5 0 0 1 9 0m-321-107a4 4 0 0 1-8 0 4 4 0 0 1 8 0m530-90a5 5 0 1 1-9 0 5 5 0 0 1 9 0m-66-104a4 4 0 1 1-8 0 4 4 0 0 1 8 0m-581-151a5 5 0 1 1-9 0 5 5 0 0 1 9 0m577 397a5 5 0 1 1-9 0 5 5 0 0 1 9 0m-504-230a4 4 0 1 1-8 0 4 4 0 0 1 8 0m241-88a5 5 0 1 1-9 0 5 5 0 0 1 9 0m-419-134a4 4 0 1 1-8 0 4 4 0 0 1 8 0m447 127a4 4 0 1 1-8 0 4 4 0 0 1 8 0m210 98a5 5 0 0 1-9 0 5 5 0 0 1 9 0m4-115a5 5 0 1 1-9 0 5 5 0 0 1 9 0m-366-72a4 4 0 1 1-8 0 4 4 0 0 1 8 0m-328-149a5 5 0 1 1-9 0 5 5 0 0 1 9 0m346 205a4 4 0 1 1-8 0 4 4 0 0 1 8 0m34 39a4 4 0 1 1-8 0 4 4 0 0 1 8 0m235 327a4 4 0 1 1-8 0 4 4 0 0 1 8 0m-917 612a4 4 0 1 1-8 0 4 4 0 0 1 8 0m340-480a4 4 0 1 1-8 0 4 4 0 0 1 8 0m-132-233a4 4 0 1 1-8 0 4 4 0 0 1 8 0m-533 510a5 5 0 1 1-9 0 5 5 0 0 1 9 0m145-422a4 4 0 1 1-8 0 4 4 0 0 1 8 0m185 140a5 5 0 1 1-9 0 5 5 0 0 1 9 0m474 4a5 5 0 1 1-9 0 5 5 0 0 1 9 0m-521 388a4 4 0 0 1-8 0 4 4 0 0 1 8 0m279-346a5 5 0 1 1-9 0 5 5 0 0 1 9 0m-356 354a5 5 0 1 1-9 0 5 5 0 0 1 9 0m296-682a4 4 0 1 1-8 0 4 4 0 0 1 8 0m-295 657a4 4 0 1 1-8 0 4 4 0 0 1 8 0m688-366a4 4 0 1 1-8 0 4 4 0 0 1 8 0m-463-35a4 4 0 1 1-8 0 4 4 0 0 1 8 0m177-121a5 5 0 1 1-9 0 5 5 0 0 1 9 0m-416-46a5 5 0 1 1-9 0 5 5 0 0 1 9 0m630 148a4 4 0 1 1-8 0 4 4 0 0 1 8 0m-600-10a4 4 0 1 1-8 0 4 4 0 0 1 8 0m268 215a5 5 0 1 1-9 0 5 5 0 0 1 9 0m219-217a5 5 0 1 1-9 0 5 5 0 0 1 9 0m81-95a4 4 0 1 1-8 0 4 4 0 0 1 8 0m-298 350a4 4 0 1 1-8 0 4 4 0 0 1 8 0m384 0a5 5 0 1 1-9 0 5 5 0 0 1 9 0m-319-556a4 4 0 1 1-8 0 4 4 0 0 1 8 0m32 383a4 4 0 1 1-8 0 4 4 0 0 1 8 0m-331 203a4 4 0 1 1-8 0 4 4 0 0 1 8 0m302-42a4 4 0 1 1-8 0 4 4 0 0 1 8 0m43-189a5 5 0 1 1-9 0 5 5 0 0 1 9 0m-43 445a4 4 0 1 1-8 0 4 4 0 0 1 8 0m-70-864a5 5 0 1 1-9 0 5 5 0 0 1 9 0m-519 850a5 5 0 1 1-9 0 5 5 0 0 1 9 0m879-246a5 5 0 1 1-9 0 5 5 0 0 1 9 0m-317 54a4 4 0 1 1-8 0 4 4 0 0 1 8 0m-42-475a5 5 0 1 1-9 0 5 5 0 0 1 9 0m150 257a5 5 0 1 1-9 0 5 5 0 0 1 9 0m-95-313a5 5 0 1 1-9 0 5 5 0 0 1 9 0m-255 393a5 5 0 1 1-9 0 5 5 0 0 1 9 0m-134 371a4 4 0 1 1-8 0 4 4 0 0 1 8 0m709-401a4 4 0 1 1-8 0 4 4 0 0 1 8 0m-763 214a4 4 0 1 1-8 0 4 4 0 0 1 8 0m241-585a5 5 0 1 1-9 0 5 5 0 0 1 9 0m84 509a4 4 0 1 1-8 0 4 4 0 0 1 8 0m-309 219a4 4 0 1 1-8 0 4 4 0 0 1 8 0m11-154a4 4 0 1 1-8 0 4 4 0 0 1 8 0m501-624a4 4 0 1 1-8 0 4 4 0 0 1 8 0m-507 411a4 4 0 1 1-8 0 4 4 0 0 1 8 0m331-442a4 4 0 1 1-8 0 4 4 0 0 1 8 0m-331 717a5 5 0 1 1-9 0 5 5 0 0 1 9 0m407-457a5 5 0 1 1-9 0 5 5 0 0 1 9 0m-292-54a5 5 0 0 1-9 0 5 5 0 0 1 9 0m396 183a5 5 0 1 1-9 0 5 5 0 0 1 9 0m-363 712a4 4 0 1 1-8 0 4 4 0 0 1 8 0m-231 663a5 5 0 1 1-9 0 5 5 0 0 1 9 0m12-662a4 4 0 1 1-8 0 4 4 0 0 1 8 0m-50 364a5 5 0 1 1-9 0 5 5 0 0 1 9 0m534-364a5 5 0 0 1-9 0 5 5 0 0 1 9 0m-428-52a5 5 0 1 1-9 0 5 5 0 0 1 9 0m-87 679a4 4 0 1 1-8 0 4 4 0 0 1 8 0m278-626a4 4 0 0 1-8 0 4 4 0 0 1 8 0m382 222a4 4 0 1 1-8 0 4 4 0 0 1 8 0m-745 296a5 5 0 1 1-9 0 5 5 0 0 1 9 0m737-442a4 4 0 1 1-8 0 4 4 0 0 1 8 0m-563-143a5 5 0 1 1-9 0 5 5 0 0 1 9 0m364 495a4 4 0 1 1-8 0 4 4 0 0 1 8 0m-418-486a5 5 0 1 1-9 0 5 5 0 0 1 9 0m-135-136a4 4 0 1 1-8 0 4 4 0 0 1 8 0m301 424a5 5 0 1 1-9 0 5 5 0 0 1 9 0m478-56a5 5 0 1 1-9 0 5 5 0 0 1 9 0m-518 269a5 5 0 1 1-9-1 5 5 0 0 1 9 1m-60 216a4 4 0 1 1-8 0 4 4 0 0 1 8 0m194-342a5 5 0 1 1-9 0 5 5 0 0 1 9 0m85-191a4 4 0 1 1-8 0 4 4 0 0 1 8 0m349 260a5 5 0 1 1-9 0 5 5 0 0 1 9 0m-675-614a5 5 0 1 1-9 0 5 5 0 0 1 9 0m502 207a5 5 0 0 1-9 0 5 5 0 0 1 9 0m403 1273a4 4 0 1 1-8 0 4 4 0 0 1 8 0m-439-39a5 5 0 1 1-9 0 5 5 0 0 1 9 0m164-374a5 5 0 1 1-9 0 5 5 0 0 1 9 0m193 32a5 5 0 1 1-9 0 5 5 0 0 1 9 0m71 332a4 4 0 1 1-8 0 4 4 0 0 1 8 0m-266-330a4 4 0 1 1-8 0 4 4 0 0 1 8 0m377-130a4 4 0 1 1-8 0 4 4 0 0 1 8 0m-507 408a4 4 0 1 1-8 0 4 4 0 0 1 8 0m12-181a5 5 0 1 1-9 0 5 5 0 0 1 9 0m372 421a4 4 0 1 1-8 0 4 4 0 0 1 8 0m-486-616a5 5 0 0 1-9 0 5 5 0 0 1 9 0m338 24a4 4 0 1 1-8 0 4 4 0 0 1 8 0m7 570a4 4 0 1 1-8 0 4 4 0 0 1 8 0m96-501a5 5 0 1 1-9 0 5 5 0 0 1 9 0m-266 355a5 5 0 1 1-9 0 5 5 0 0 1 9 0m-101-160a5 5 0 1 1-9 0 5 5 0 0 1 9 0m464-198a5 5 0 1 1-9 0 5 5 0 0 1 9 0m-32 678a4 4 0 1 1-8 0 4 4 0 0 1 8 0m-64-82a5 5 0 1 1-9 0 5 5 0 0 1 9 0m116-155a4 4 0 1 1-8 0 4 4 0 0 1 8 0m-325-153a4 4 0 1 1-8 0 4 4 0 0 1 8 0m176-382a4 4 0 1 1-8 0 4 4 0 0 1 8 0m-256-190a4 4 0 1 1-8 0 4 4 0 0 1 8 0m558 312a5 5 0 1 1-9 0 5 5 0 0 1 9 0m592 46a5 5 0 1 1-9 0 5 5 0 0 1 9 0m-465-16a4 4 0 1 1-8 0 4 4 0 0 1 8 0m212 106a5 5 0 1 1-9 0 5 5 0 0 1 9 0m382 393a4 4 0 1 1-8 0 4 4 0 0 1 8 0m-635-163a5 5 0 1 1-9 0 5 5 0 0 1 9 0m343-326a4 4 0 1 1-8 0 4 4 0 0 1 8 0m-353 654a5 5 0 1 1-9 0 5 5 0 0 1 9 0m218-392a5 5 0 1 1-9 0 5 5 0 0 1 9 0m-381 320a5 5 0 1 1-9 0 5 5 0 0 1 9 0m656-150a5 5 0 1 1-9 0 5 5 0 0 1 9 0m-503 266a5 5 0 1 1-9-1 5 5 0 0 1 9 1m-77-358a4 4 0 1 1-8 0 4 4 0 0 1 8 0m843 49a5 5 0 1 1-9 0 5 5 0 0 1 9 0m-726 124a5 5 0 1 1-9 0 5 5 0 0 1 9 0m374-362a4 4 0 1 1-8 0 4 4 0 0 1 8 0m323 537a5 5 0 0 1-9 0 5 5 0 0 1 9 0m10-280a4 4 0 1 1-8 0 4 4 0 0 1 8 0m-197-420a4 4 0 1 1-8 0 4 4 0 0 1 8 0m-462 381a5 5 0 1 1-9 0 5 5 0 0 1 9 0m460-63a5 5 0 1 1-9 0 5 5 0 0 1 9 0m274-210a4 4 0 0 1-8 0 4 4 0 0 1 8 0m-166-100a4 4 0 1 1-8 0 4 4 0 0 1 8 0m547 226a5 5 0 1 1-9 0 5 5 0 0 1 9 0m-217-604a4 4 0 1 1-8 0 4 4 0 0 1 8 0m525 506a5 5 0 1 1-9 0 5 5 0 0 1 9 0m-208-71a4 4 0 1 1-8 0 4 4 0 0 1 8 0m37 347a5 5 0 1 1-9 0 5 5 0 0 1 9 0M1010 1520a4 4 0 1 1-8 0 4 4 0 0 1 8 0m296-1090a5 5 0 1 1-9 0 5 5 0 0 1 9 0m-228 786a5 5 0 1 1-9 0 5 5 0 0 1 9 0m219-585a5 5 0 1 1-9 0 5 5 0 0 1 9 0m-66 811a5 5 0 1 1-9 0 5 5 0 0 1 9 0m173-172a5 5 0 1 1-9 0 5 5 0 0 1 9 0m-219-100a5 5 0 1 1-9 0 5 5 0 0 1 9 0m215 45a4 4 0 1 1-8 0 4 4 0 0 1 8 0M936 927a5 5 0 1 1-9 0 5 5 0 0 1 9 0m-249 47a5 5 0 1 1-9 0 5 5 0 0 1 9 0m369-277a5 5 0 1 1-9 0 5 5 0 0 1 9 0m31 565a4 4 0 1 1-8 0 4 4 0 0 1 8 0m497-245a5 5 0 1 1-9 0 5 5 0 0 1 9 0M221 2501a4 4 0 1 1-8 0 4 4 0 0 1 8 0m391-697a4 4 0 1 1-8 0 4 4 0 0 1 8 0m-393 388a5 5 0 1 1-9 0 5 5 0 0 1 9 0m615 103a4 4 0 1 1-8 0 4 4 0 0 1 8 0m-220 66a5 5 0 1 1-9 0 5 5 0 0 1 9 0m-297-518a4 4 0 1 1-8 0 4 4 0 0 1 8 0m304-107a5 5 0 1 1-9 0 5 5 0 0 1 9 0m31-277a5 5 0 1 1-9 0 5 5 0 0 1 9 0m54 313a4 4 0 1 1-8 0 4 4 0 0 1 8 0m-402 533a5 5 0 1 1-9 0 5 5 0 0 1 9 0m343-646a4 4 0 1 1-8 0 4 4 0 0 1 8 0m-369 187a5 5 0 1 1-9 0 5 5 0 0 1 9 0m-91 6a5 5 0 1 1-9 0 5 5 0 0 1 9 0m497-145a4 4 0 1 1-8 0 4 4 0 0 1 8 0m1808-882a4 4 0 1 1-8 0 4 4 0 0 1 8 0m-877 5a4 4 0 1 1-8 0 4 4 0 0 1 8 0m818-395a4 4 0 1 1-8 0 4 4 0 0 1 8 0m-689 607a4 4 0 1 1-8 0 4 4 0 0 1 8 0m-10-439a5 5 0 1 1-9 0 5 5 0 0 1 9 0m439 124a4 4 0 1 1-8 0 4 4 0 0 1 8 0m-632-226a5 5 0 1 1-9 0 5 5 0 0 1 9 0m385-185a5 5 0 1 1-9 0 5 5 0 0 1 9 0m341 539a4 4 0 1 1-8 0 4 4 0 0 1 8 0m-178-133a4 4 0 1 1-8 0 4 4 0 0 1 8 0m-25-449a4 4 0 1 1-8 0 4 4 0 0 1 8 0m-531 120a5 5 0 1 1-9 0 5 5 0 0 1 9 0m-142 2a5 5 0 1 1-9 0 5 5 0 0 1 9 0m578 397a4 4 0 1 1-8 0 4 4 0 0 1 8 0m-13-101a5 5 0 1 1-9 0 5 5 0 0 1 9 0m-353 97a4 4 0 1 1-8 0 4 4 0 0 1 8 0m348 90a4 4 0 1 1-8 0 4 4 0 0 1 8 0m-322 34a4 4 0 1 1-8 0 4 4 0 0 1 8 0m801-335a5 5 0 1 1-9 0 5 5 0 0 1 9 0m-783-215a5 5 0 1 1-9 0 5 5 0 0 1 9 0m172-22a5 5 0 1 1-9 0 5 5 0 0 1 9 0m188 348a5 5 0 1 1-9 0 5 5 0 0 1 9 0m-445 260a5 5 0 1 1-9 0 5 5 0 0 1 9 0m-739-95a4 4 0 1 1-8 0 4 4 0 0 1 8 0m169 677a5 5 0 1 1-9 0 5 5 0 0 1 9 0m-37-832a5 5 0 1 1-9 0 5 5 0 0 1 9 0m-185 418a4 4 0 1 1-8 0 4 4 0 0 1 8 0m584 124a4 4 0 1 1-8 0 4 4 0 0 1 8 0m-371 301a4 4 0 1 1-8 0 4 4 0 0 1 8 0m20-29a4 4 0 1 1-8 0 4 4 0 0 1 8 0m-232-366a4 4 0 1 1-8 0 4 4 0 0 1 8 0m234 377a4 4 0 1 1-8 0 4 4 0 0 1 8 0m-69-911a5 5 0 1 1-9 0 5 5 0 0 1 9 0m-116 617a5 5 0 1 1-9 0 5 5 0 0 1 9 0m173 291a5 5 0 1 1-9 0 5 5 0 0 1 9 0m73-669a5 5 0 1 1-9 0 5 5 0 0 1 9 0m100-141a4 4 0 1 1-8 0 4 4 0 0 1 8 0m-658 365a5 5 0 1 1-9 0 5 5 0 0 1 9 0" fill="none" stroke="#b2b2b2" stroke-width="10" stroke-miterlimit="10"/></g></svg>