<svg viewBox="0 0 576 512" xmlns="http://www.w3.org/2000/svg"><path d="m512 32h-448c-35.3 0-64 28.7-64 64v320c0 35.3 28.7 64 64 64h448c35.3 0 64-28.7 64-64v-320c0-35.3-28.7-64-64-64zm32 384c0 17.6-14.4 32-32 32h-448c-17.6 0-32-14.4-32-32v-320c0-17.6 14.4-32 32-32h448c17.6 0 32 14.4 32 32zm-72-128h-112c-4.4 0-8 3.6-8 8v16c0 4.4 3.6 8 8 8h112c4.4 0 8-3.6 8-8v-16c0-4.4-3.6-8-8-8zm0-64h-112c-4.4 0-8 3.6-8 8v16c0 4.4 3.6 8 8 8h112c4.4 0 8-3.6 8-8v-16c0-4.4-3.6-8-8-8zm0-64h-112c-4.4 0-8 3.6-8 8v16c0 4.4 3.6 8 8 8h112c4.4 0 8-3.6 8-8v-16c0-4.4-3.6-8-8-8zm-264 128c44.2 0 80-35.8 80-80s-35.8-80-80-80-80 35.8-80 80 35.8 80 80 80zm0-128c26.5 0 48 21.5 48 48s-21.5 48-48 48-48-21.5-48-48 21.5-48 48-48zm46.8 144c-19.5 0-24.4 7-46.8 7s-27.3-7-46.8-7c-21.2 0-41.8 9.4-53.8 27.4-7.2 10.7-11.4 23.6-11.4 37.5v23.1c0 4.4 3.6 8 8 8h16c4.4 0 8-3.6 8-8v-23.1c0-7 2.1-13.8 6-19.6 5.6-8.3 15.8-13.2 27.3-13.2 12.4 0 20.8 7 46.8 7 25.9 0 34.3-7 46.8-7 11.5 0 21.7 5 27.3 13.2 3.9 5.8 6 12.6 6 19.6v23.1c0 4.4 3.6 8 8 8h16c4.4 0 8-3.6 8-8v-23.1c0-13.9-4.2-26.8-11.4-37.5-12.3-18-32.9-27.4-54-27.4z" fill="#fff"/></svg>