<svg viewBox="0 0 512 512" xmlns="http://www.w3.org/2000/svg"><path d="m509.8 227.5-61.8-49.7v-76c0-3.3-2.7-6-6-6h-20c-3.3 0-6 2.7-6 6v50.1l-139.9-112.8c-11.7-9.5-28.5-9.5-40.2 0l-233.7 188.4c-2.6 2.1-3 5.9-.9 8.4l12.6 15.6c2.1 2.6 5.9 3 8.5.9l41.6-33.5v229c0 17.7 14.3 32 32 32h116c6.6 0 12-5.4 12-12v-132.1l64 .3v132.2c0 6.6 5.4 12 12 12l116-.3c17.7 0 32-14.3 32-32v-229l41.6 33.5c2.6 2.1 6.4 1.7 8.5-.9l12.6-15.6c2.1-2.6 1.6-6.4-.9-8.5zm-93.8 220.5-96 .3v-132.3c0-6.6-5.4-12-12-12l-104-.3c-6.6 0-12 5.4-12 12v132.3h-96v-254.9l156.2-126c2.2-1.8 5.3-1.8 7.5 0l156.2 126v254.9z" fill="#fff"/></svg>