<svg viewBox="0 0 576 512" xmlns="http://www.w3.org/2000/svg"><path d="m557.1 240.7-45.1-36.9v-99.8c0-4.4-3.6-8-8-8h-32c-4.4 0-8 3.6-8 8v60.5l-150.6-123.4c-14.7-12.1-36-12.1-50.7 0l-243.8 199.6c-3.4 2.8-3.9 7.8-1.1 11.3l20.3 24.8c2.8 3.4 7.8 3.9 11.3 1.1l14.7-12v198.1c0 8.8 7.2 16 16 16h168c4.4 0 8-3.6 8-8v-128h64v128c0 4.4 3.6 8 8 8h168c8.8 0 16-7.2 16-16v-198.2l14.7 12c3.4 2.8 8.5 2.3 11.3-1.1l20.3-24.8c2.6-3.4 2.1-8.4-1.3-11.2zm-93.1 191.3h-96v-128c0-4.4-3.6-8-8-8h-144c-4.4 0-8 3.6-8 8v128h-96v-205.5l170.9-140c2.9-2.4 7.2-2.4 10.1 0l170.9 140v205.5z" fill="#ededed"/></svg>