<svg viewBox="0 0 576 512" xmlns="http://www.w3.org/2000/svg"><path d="m552 64h-464c-13.234 0-24 10.767-24 24v8h-40c-13.255 0-24 10.745-24 24v280c0 26.51 21.49 48 48 48h504c13.233 0 24-10.767 24-24v-336c0-13.233-10.767-24-24-24zm-520 336v-272h32v272c0 8.822-7.178 16-16 16s-16-7.178-16-16zm512 16h-450.742a47.897 47.897 0 0 0 2.742-16v-304h448zm-404-96h168c6.627 0 12-5.373 12-12v-168c0-6.627-5.373-12-12-12h-168c-6.627 0-12 5.373-12 12v168c0 6.627 5.373 12 12 12zm20-160h128v128h-128zm-32 212v-8c0-6.627 5.373-12 12-12h168c6.627 0 12 5.373 12 12v8c0 6.627-5.373 12-12 12h-168c-6.627 0-12-5.373-12-12zm224 0v-8c0-6.627 5.373-12 12-12h136c6.627 0 12 5.373 12 12v8c0 6.627-5.373 12-12 12h-136c-6.627 0-12-5.373-12-12zm0-64v-8c0-6.627 5.373-12 12-12h136c6.627 0 12 5.373 12 12v8c0 6.627-5.373 12-12 12h-136c-6.627 0-12-5.373-12-12zm0-128v-8c0-6.627 5.373-12 12-12h136c6.627 0 12 5.373 12 12v8c0 6.627-5.373 12-12 12h-136c-6.627 0-12-5.373-12-12zm0 64v-8c0-6.627 5.373-12 12-12h136c6.627 0 12 5.373 12 12v8c0 6.627-5.373 12-12 12h-136c-6.627 0-12-5.373-12-12z" fill="#fff"/></svg>