<?xml version="1.0" encoding="UTF-8" standalone="no"?>
<svg
   xmlns:dc="http://purl.org/dc/elements/1.1/"
   xmlns:cc="http://creativecommons.org/ns#"
   xmlns:rdf="http://www.w3.org/1999/02/22-rdf-syntax-ns#"
   xmlns:svg="http://www.w3.org/2000/svg"
   xmlns="http://www.w3.org/2000/svg"
   xmlns:sodipodi="http://sodipodi.sourceforge.net/DTD/sodipodi-0.dtd"
   xmlns:inkscape="http://www.inkscape.org/namespaces/inkscape"
   aria-hidden="true"
   data-prefix="fal"
   data-icon="newspaper"
   role="img"
   viewBox="0 0 576 512"
   class="svg-inline--fa fa-newspaper fa-w-18 fa-7x"
   version="1.1"
   id="svg2916"
   sodipodi:docname="newspaper-light-white.svg"
   inkscape:version="0.92.4 (5da689c313, 2019-01-14)">
  <metadata
     id="metadata2922">
    <rdf:RDF>
      <cc:Work
         rdf:about="">
        <dc:format>image/svg+xml</dc:format>
        <dc:type
           rdf:resource="http://purl.org/dc/dcmitype/StillImage" />
        <dc:title></dc:title>
      </cc:Work>
    </rdf:RDF>
  </metadata>
  <defs
     id="defs2920" />
  <sodipodi:namedview
     pagecolor="#ffffff"
     bordercolor="#666666"
     borderopacity="1"
     objecttolerance="10"
     gridtolerance="10"
     guidetolerance="10"
     inkscape:pageopacity="0"
     inkscape:pageshadow="2"
     inkscape:window-width="775"
     inkscape:window-height="480"
     id="namedview2918"
     showgrid="false"
     inkscape:zoom="0.4609375"
     inkscape:cx="288"
     inkscape:cy="256"
     inkscape:window-x="70"
     inkscape:window-y="27"
     inkscape:window-maximized="0"
     inkscape:current-layer="svg2916" />
  <path
     fill="currentColor"
     d="M552 64H88c-13.234 0-24 10.767-24 24v8H24c-13.255 0-24 10.745-24 24v280c0 26.51 21.49 48 48 48h504c13.233 0 24-10.767 24-24V88c0-13.233-10.767-24-24-24zM32 400V128h32v272c0 8.822-7.178 16-16 16s-16-7.178-16-16zm512 16H93.258A47.897 47.897 0 0 0 96 400V96h448v320zm-404-96h168c6.627 0 12-5.373 12-12V140c0-6.627-5.373-12-12-12H140c-6.627 0-12 5.373-12 12v168c0 6.627 5.373 12 12 12zm20-160h128v128H160V160zm-32 212v-8c0-6.627 5.373-12 12-12h168c6.627 0 12 5.373 12 12v8c0 6.627-5.373 12-12 12H140c-6.627 0-12-5.373-12-12zm224 0v-8c0-6.627 5.373-12 12-12h136c6.627 0 12 5.373 12 12v8c0 6.627-5.373 12-12 12H364c-6.627 0-12-5.373-12-12zm0-64v-8c0-6.627 5.373-12 12-12h136c6.627 0 12 5.373 12 12v8c0 6.627-5.373 12-12 12H364c-6.627 0-12-5.373-12-12zm0-128v-8c0-6.627 5.373-12 12-12h136c6.627 0 12 5.373 12 12v8c0 6.627-5.373 12-12 12H364c-6.627 0-12-5.373-12-12zm0 64v-8c0-6.627 5.373-12 12-12h136c6.627 0 12 5.373 12 12v8c0 6.627-5.373 12-12 12H364c-6.627 0-12-5.373-12-12z"
     class=""
     id="path2914"
     style="fill:#ffffff;fill-opacity:1" />
</svg>
