<svg viewBox="0 0 448 512" xmlns="http://www.w3.org/2000/svg"><path d="m383.9 308.3 23.9-62.6c4-10.5-3.7-21.7-15-21.7h-33.6c5.4-15.1 8.8-31.1 8.8-48 0-6.6-.7-13.1-1.6-19.4 30.7-7.6 49.6-17.6 49.6-28.6 0-13.3-27.3-25.1-70.1-33-9.2-32.8-27-65.8-40.6-82.8-6.2-7.9-15.6-12.2-25.2-12.2-4.8 0-9.7 1.1-14.3 3.4-29.8 14.9-32.3 17.1-41.8 17.1s-12.3-2.4-41.9-17.2c-4.6-2.3-9.4-3.4-14.3-3.4-9.6 0-18.9 4.3-25.2 12.2-13.5 17-31.4 50-40.6 82.8-42.7 8-70 19.8-70 33.1 0 11 18.9 21 49.6 28.6-1 6.4-1.6 12.8-1.6 19.4 0 16.9 3.5 32.9 8.8 48h-32.5c-11.5 0-19.2 11.7-14.7 22.3l25.8 60.2c-40.1 23.3-67.4 66.2-67.4 115.9v44.8c0 24.7 20.1 44.8 44.8 44.8h358.4c24.7 0 44.8-20.1 44.8-44.8v-44.8c0-48.4-25.8-90.4-64.1-114.1zm-210.9-255.8c16.2 8.1 29 16 51 16 21.8 0 34.8-7.9 51-16 19 30.4 25.7 59.2 27.7 66.2-21.8 2.4-48.1 3.9-78.7 3.9s-56.8-1.6-78.7-3.9c2-7.1 8.7-35.8 27.7-66.2zm-45 123.2c.1.1 5.5 3.2 6.3 5.8 3.9 11.9 7 24.6 16.5 33.4 8 7.4 47 25.1 64-25 2.8-8.4 15.4-8.4 18.3 0 16 47.4 53.9 34.4 64 25 9.5-8.8 12.7-21.5 16.5-33.4.8-2.5 6.2-5.6 6.3-5.7v.3c0 52.9-43.1 96-96 96s-96-43.1-96-96c.1-.2.1-.3.1-.4zm-80 246.7c0-30.8 16.2-58.6 43.5-74.3l36.8-21.3-23.5-54.8h12.6c17 18.9 38.8 32.9 63.6 40.7l27 47.3-24.5 104h-135.5zm352 41.6h-135.5l-24.5-104 27-47.3c24.8-7.8 46.6-21.9 63.6-40.7h15.7l-21.5 56.3 33.8 20.8c25.9 16 41.3 43.4 41.3 73.2v41.7z" fill="#fff"/></svg>