<?xml version="1.0" encoding="UTF-8" standalone="no"?>
<svg
   xmlns:dc="http://purl.org/dc/elements/1.1/"
   xmlns:cc="http://creativecommons.org/ns#"
   xmlns:rdf="http://www.w3.org/1999/02/22-rdf-syntax-ns#"
   xmlns:svg="http://www.w3.org/2000/svg"
   xmlns="http://www.w3.org/2000/svg"
   xmlns:sodipodi="http://sodipodi.sourceforge.net/DTD/sodipodi-0.dtd"
   xmlns:inkscape="http://www.inkscape.org/namespaces/inkscape"
   aria-hidden="true"
   focusable="false"
   data-prefix="fas"
   data-icon="user-secret"
   class="svg-inline--fa fa-user-secret fa-w-14"
   role="img"
   viewBox="0 0 448 512"
   version="1.1"
   id="svg865"
   sodipodi:docname="user-secret-solid-neg.svg"
   inkscape:version="0.92.4 (5da689c313, 2019-01-14)">
  <metadata
     id="metadata871">
    <rdf:RDF>
      <cc:Work
         rdf:about="">
        <dc:format>image/svg+xml</dc:format>
        <dc:type
           rdf:resource="http://purl.org/dc/dcmitype/StillImage" />
        <dc:title></dc:title>
      </cc:Work>
    </rdf:RDF>
  </metadata>
  <defs
     id="defs869" />
  <sodipodi:namedview
     pagecolor="#ffffff"
     bordercolor="#666666"
     borderopacity="1"
     objecttolerance="10"
     gridtolerance="10"
     guidetolerance="10"
     inkscape:pageopacity="0"
     inkscape:pageshadow="2"
     inkscape:window-width="1850"
     inkscape:window-height="1016"
     id="namedview867"
     showgrid="false"
     inkscape:zoom="1.6328125"
     inkscape:cx="224"
     inkscape:cy="280.49761"
     inkscape:window-x="70"
     inkscape:window-y="27"
     inkscape:window-maximized="1"
     inkscape:current-layer="svg865" />
  <path
     d="m 383.9,308.3 23.9,-62.6 c 4,-10.5 -3.7,-21.7 -15,-21.7 h -58.5 c 11,-18.9 17.8,-40.6 17.8,-64 v -0.3 c 39.2,-7.8 64,-19.1 64,-31.7 0,-13.3 -27.3,-25.1 -70.1,-33 C 336.8,62.2 319,29.2 305.4,12.2 295.9,0.3 279.5,-3.4 265.9,3.4 l -27.6,13.8 c -9,4.5 -19.6,4.5 -28.6,0 L 182.1,3.4 c -13.6,-6.8 -30,-3.1 -39.5,8.8 -13.5,17 -31.4,50 -40.6,82.8 -42.7,7.9 -70,19.7 -70,33 0,12.6 24.8,23.9 64,31.7 v 0.3 c 0,23.4 6.8,45.1 17.8,64 H 56.3 c -11.5,0 -19.2,11.7 -14.7,22.3 l 25.8,60.2 C 27.3,329.8 0,372.7 0,422.4 v 44.8 C 0,491.9 20.1,512 44.8,512 h 358.4 c 24.7,0 44.8,-20.1 44.8,-44.8 V 422.4 C 448,374 422.2,332 383.9,308.3 Z M 176,480 134.4,288 l 49.6,32 24,40 z m 96,0 -32,-120 24,-40 49.6,-32 z m 41.7,-298.5 c -3.9,11.9 -7,24.6 -16.5,33.4 -10.1,9.3 -48,22.4 -64,-25 -2.8,-8.4 -15.4,-8.4 -18.3,0 -17,50.2 -56,32.4 -64,25 -9.5,-8.8 -12.7,-21.5 -16.5,-33.4 -0.8,-2.5 -6.3,-5.7 -6.3,-5.8 v -10.8 c 28.3,3.6 61,5.8 96,5.8 35,0 67.7,-2.1 96,-5.8 v 10.8 c -0.1,0.1 -5.6,3.2 -6.4,5.8 z"
     id="path863"
     inkscape:connector-curvature="0"
     style="fill:#ffffff;fill-opacity:1"
     sodipodi:nodetypes="ccscscsccssssccscscsccsssssscccccccccccccccccscsccc" />
</svg>
