<svg xmlns="http://www.w3.org/2000/svg" version="1.0" width="100" height="100" viewBox="22 40 948 693"><defs><clipPath id="a"><path d="M0 0h792v612H0V0z"/></clipPath></defs><g clip-path="url(#a)" transform="matrix(1.25 0 0 -1.25 0 765)"><path d="M304 76c-55-41-129-34-165 15-36 50-21 122 35 163 55 41 129 34 165-16 36-49 21-122-35-162z" fill-rule="evenodd"/><path d="M304 76c-55-41-129-34-165 15-36 50-21 122 35 163 55 41 129 34 165-16 36-49 21-122-35-162z" fill="none" stroke="#000" stroke-width="4" stroke-linejoin="round" stroke-miterlimit="10"/><path d="M274 524c69-51 88-141 43-203-45-61-137-69-206-19S23 443 68 504s137 70 206 20z" fill-rule="evenodd"/><path d="M274 524c69-51 88-141 43-203-45-61-137-69-206-19S23 443 68 504s137 70 206 20z" fill="none" stroke="#000" stroke-width="7" stroke-linejoin="round" stroke-miterlimit="10"/><path d="M213 371c-25 21-27 62-3 91s65 36 90 15c26-22 28-63 4-92s-65-36-91-14z" fill="#0f0" fill-rule="evenodd"/><path d="M213 371c-25 21-27 62-3 91s65 36 90 15c26-22 28-63 4-92s-65-36-91-14z" fill="none"/><path d="M192 376c-26 21-28 62-4 91 24 30 65 36 91 15s27-62 3-92c-24-29-64-35-90-14z" fill-rule="evenodd"/><path d="M192 376c-26 21-28 62-4 91 24 30 65 36 91 15s27-62 3-92c-24-29-64-35-90-14z" fill="none"/><path d="M246 312c-42 27-99 49-124 86-19 27-39 38-17 65 21 26 32 54 61 58 33-4 59-7 80-44-3-21 5-66-23-88l-48-26" fill="none" stroke="#00f" stroke-width="22" stroke-linejoin="round" stroke-miterlimit="10"/><path d="M175 401c-24 0-43 18-43 42 0 23 19 42 43 42s43-19 43-42c0-24-19-42-43-42z" fill="#f36" fill-rule="evenodd"/><path d="M175 401c-24 0-43 18-43 42 0 23 19 42 43 42s43-19 43-42c0-24-19-42-43-42z" fill="none"/><path d="M194 419c-9-7-22-6-29 3-8 9-7 23 2 30s22 6 30-3c7-9 6-23-3-30z" fill="#00f" fill-rule="evenodd"/><path d="M194 419c-9-7-22-6-29 3-8 9-7 23 2 30s22 6 30-3c7-9 6-23-3-30z" fill="none"/><path d="M249 309c-41 28-104 28-129 65-18 27-50 63-28 90 20 32 45 54 77 54 33-5 67-17 75-43-2-22 2-56-26-77l-45-36" fill="none" stroke="#00f" stroke-width="22" stroke-linejoin="round" stroke-miterlimit="10"/><path d="M268 298c-3-5-15-3-28 4-12 7-20 17-17 22s16 3 28-4 20-17 17-22z" fill="#00f" fill-rule="evenodd"/><path d="M268 298c-3-5-15-3-28 4-12 7-20 17-17 22s16 3 28-4 20-17 17-22z" fill="none"/><path d="M629 253c55-40 71-113 35-163-36-49-110-56-166-15-55 40-71 113-34 162 36 50 110 57 165 16z" fill-rule="evenodd"/><path d="M629 253c55-40 71-113 35-163-36-49-110-56-166-15-55 40-71 113-34 162 36 50 110 57 165 16z" fill="none" stroke="#000" stroke-width="4" stroke-linejoin="round" stroke-miterlimit="10"/><path d="M400 162c-64 0-116 41-116 93 0 51 52 92 116 92s115-41 115-92c0-52-51-93-115-93z" fill="#ff0" fill-rule="evenodd"/><path d="M400 162c-64 0-116 41-116 93 0 51 52 92 116 92s115-41 115-92c0-52-51-93-115-93z" fill="none" stroke="#000" stroke-width="9" stroke-linejoin="round" stroke-miterlimit="10"/><path d="M320 256a46 46 0 1 0 0 92 46 46 0 0 0 0-92z" fill="#fff" fill-rule="evenodd"/><path d="M320 256a46 46 0 1 0 0 92 46 46 0 0 0 0-92z" fill="none" stroke="#000" stroke-width="10" stroke-linejoin="round" stroke-miterlimit="10"/><path d="M683 296c-68-50-160-41-204 20-45 61-25 150 43 201 69 50 160 41 205-20 44-61 25-151-44-201z" fill-rule="evenodd"/><path d="M683 296c-68-50-160-41-204 20-45 61-25 150 43 201 69 50 160 41 205-20 44-61 25-151-44-201z" fill="none" stroke="#000" stroke-width="7" stroke-linejoin="round" stroke-miterlimit="10"/><path d="M699 335c-26-21-66-14-90 15s-23 70 3 91 66 14 90-15 22-70-3-91z" fill="#0f0" fill-rule="evenodd"/><path d="M699 335c-26-21-66-14-90 15s-23 70 3 91 66 14 90-15 22-70-3-91z" fill="none"/><path d="M677 335c-26-21-66-14-90 15s-22 70 4 91c25 21 65 14 89-15s23-70-3-91z" fill-rule="evenodd"/><path d="M677 335c-26-21-66-14-90 15s-22 70 4 91c25 21 65 14 89-15s23-70-3-91z" fill="none"/><path d="M706 465c-18 58-99 38-129 18-41-28-36-22-60-59-19-27-9-64 13-91 21-25 29-13 62-9 32 4 41 5 49 31 10 32-22 65-50 87l-31 21" fill="none" stroke="#00f" stroke-width="22" stroke-linejoin="round" stroke-miterlimit="10"/><path d="M569 345c-21 0-38 18-38 39s17 38 38 38 38-17 38-38-17-39-38-39z" fill="#f36" fill-rule="evenodd"/><path d="M569 345c-21 0-38 18-38 39s17 38 38 38 38-17 38-38-17-39-38-39z" fill="none"/><path d="M583 362c-9-7-23-6-30 3s-6 22 3 30c8 7 22 5 29-4s6-22-2-29z" fill="#00f" fill-rule="evenodd"/><path d="M583 362c-9-7-23-6-30 3s-6 22 3 30c8 7 22 5 29-4s6-22-2-29z" fill="none"/><path d="M711 467c-18 58-116 47-146 27-42-28-36-22-60-59-19-28-2-77 20-104 20-26 35-20 68-16 33 5 44 4 52 30 10 32 4 71-24 93l-61 25" fill="none" stroke="#00f" stroke-width="22" stroke-linejoin="round" stroke-miterlimit="10"/><path d="M473 256a46 46 0 1 0 0 93 46 46 0 0 0 0-93z" fill="#fff" fill-rule="evenodd"/><path d="M473 256a46 46 0 1 0 0 93 46 46 0 0 0 0-93z" fill="none" stroke="#000" stroke-width="10" stroke-linejoin="round" stroke-miterlimit="10"/><path d="M322 279a23 23 0 0 0 0 46 23 23 0 0 0 0-46z" fill-rule="evenodd"/><path d="M322 279a23 23 0 0 0 0 46 23 23 0 0 0 0-46z" fill="none"/><path d="M475 282a23 23 0 1 0 0 46 23 23 0 0 0 0-46z" fill-rule="evenodd"/><path d="M475 282a23 23 0 1 0 0 46 23 23 0 0 0 0-46z" fill="none"/><path d="M360 230c-5-32 88-55 76-5v2" fill="none" stroke="#f36" stroke-width="13" stroke-linejoin="round" stroke-miterlimit="10"/><path d="M385 348c-2 25 7 54-4 77l-10 23-12-21 9-2M413 348c2 25-7 54 4 77l10 23 13-21-10-2" fill="none" stroke="#000" stroke-width="10" stroke-linejoin="round" stroke-miterlimit="10"/><path d="M181 99c-26 22-27 65-2 96 26 31 68 39 95 17 26-22 27-65 2-96-26-31-68-39-95-17z" fill="#f36" fill-rule="evenodd"/><path d="M181 99c-26 22-27 65-2 96 26 31 68 39 95 17 26-22 27-65 2-96-26-31-68-39-95-17z" fill="none"/><path d="M376 161v-30l16-27h0M412 161v-30l16-27h0" fill="none" stroke="#000" stroke-width="9" stroke-linejoin="round" stroke-miterlimit="10"/><path d="M212 135c-12 10-10 32 5 49 14 18 35 24 47 14s10-32-4-49c-14-18-36-24-48-14z" fill="#00f" fill-rule="evenodd"/><path d="M212 135c-12 10-10 32 5 49 14 18 35 24 47 14s10-32-4-49c-14-18-36-24-48-14z" fill="none"/><path d="M617 99c-27-22-69-14-95 17-25 31-25 74 2 96s69 14 95-17c25-31 24-74-2-96z" fill="#f36" fill-rule="evenodd"/><path d="M617 99c-27-22-69-14-95 17-25 31-25 74 2 96s69 14 95-17c25-31 24-74-2-96z" fill="none"/><path d="M582 132c-12-10-34-4-48 14-14 17-16 40-4 49 12 10 33 4 48-13 14-18 16-40 4-50z" fill="#00f" fill-rule="evenodd"/><path d="M582 132c-12-10-34-4-48 14-14 17-16 40-4 49 12 10 33 4 48-13 14-18 16-40 4-50z" fill="none"/><text transform="matrix(1 0 0 -1 658 246)"><tspan x="0 9.6960001" y="0" style="-inkscape-font-specification:NimbusSanL-Regu" font-size="16" fill="gray" font-family="NimbusSanL">TM</tspan></text><path d="M722 447c-6-4-19 5-29 19-11 15-14 31-8 35s19-5 30-19c10-15 13-30 7-35z" fill="#00f" fill-rule="evenodd"/><path d="M722 447c-6-4-19 5-29 19-11 15-14 31-8 35s19-5 30-19c10-15 13-30 7-35z" fill="none"/></g></svg>
