<svg height="82.151" viewBox="0 0 81.919922 82.150841" width="81.92" xmlns="http://www.w3.org/2000/svg"><g stroke-width=".32" transform="translate(-.052231 .16762)"><path d="m81.972 67.913h-81.92v14.07l40.959-.0098 40.961-.0098z" fill="#07085b"/><path d="m41.388 6.1121c-13.077-.89263-28.08 4.7266-30.016 22.791-.69826.23501 5.8236 15.296 7.0488 15.525 1.5461.29004 1.2721-6.2353.50977-7.7305-4.0602-5.372-1.2055-6.6532-3.7402-11.32 4.7204-7.0892 27.242-22.941 26.301-10.117-10.114.17143-17.208 5.8957-17.906 12.055-2.4514 13.546 2.2902 17.567 9.3652 20.084 5.575.12672 6.8524 1.5727 7.7188 2.627l-.0625 11.763 2.4507-.08839-.0074-11.214c.99588 1.0716 2.2608 1.7477 3.3848 1.6309 14.22-3.161 28.07-12.326 29.137-19.098.98348-6.2722-1.5236-4.5698-1.2871-6.4004-.18721-1.9734 6.4517-6.3977-2.4805-13.916-3.3468-2.8191-1.5037 20.519-4.7344 22.129-2.4082 2.8442-3.7191 4.352-6.3809 7.1367-1.7053 4.346-8.6462 4.3163-10.984 4.6504.38619-1.1432 3.6344-.90508 7.3105-3.7812 1.1478-2.625-4.1908-3.0127-6.1602-1.3848-1.8613 1.6341-5.2086 4.3618-7.4434 4.2051-.05681-1.7597-.11135-3.5195-.16602-5.2793 9.2025.81651 12.173-8.1771 19.016-12.41 6.2458-4.1259 4.2187-17.273-2.2207-4.127-.03069.70116-1.9814 3.0977-2.5215 3.0977 1.2942-6.8277.85527-13.18-4.2519-17.984-3.3752-1.5247-7.5201-2.5462-11.879-2.8438zm-2.9336 12.41c1.1149-.18513 2.2096-.05853 3.2285.14844.29555.47822.29873 4.2143.0039 4.6914-2.3507 1.2944-5.4569.50051-7.4766 1.873-5.4971 4.6276.23353 10.717 5.3848 13.225.92958 0 1.7377-.03565 1.7344 2.1055l-.46094 4.4727c-3.5855-.2073-13.024-9.9572-13.408-17.299-.08504-2.4026.19916-3.2025 1.668-4.6973 1.4671-1.8632 5.7396-4.0332 9.3262-4.5195zm5.6855.16992c6.384.53784 5.2964 5.8272-.08789 5.1992zm29.707 12.547c1.1184 2.1908-1.6328 2.0957-1.6328 2.0957-1.3994-2.3603 1.6328-2.0957 1.6328-2.0957zm-27.328-20.369c2.6853.04952 5.364 1.9485 7.6582 5.627 1.1518 6.3807-2.828 22.474-10.59 18.438l-.01172-6.9238c11.803-3.778 8.7487-10.556 1.1816-12.773-.81129-3.2432.15055-4.3969 1.7617-4.3672zm-5.2207 17.064-.25586 6.1855c-4.0611-1.2678-7.9244-4.8233.25586-6.1855z" fill="#9b9aa4"/><path d="m2.2378 55.079c2.9106 6.7362 8.1382 12.139 13.137 17.328l48.289.03125s12.005-7.2486 15.982-16.176c-14.57 3.2273-21.21 4.0781-39.089 3.4034-20.093.45684-21.902-1.6995-38.319-4.587z" fill="#550d2a"/></g></svg>