<svg height="300mm" viewBox="0 0 300 300" width="300mm" xmlns="http://www.w3.org/2000/svg"><g transform="translate(0 3)"><g fill="#fff" font-family="Liberation Sans"><text font-size="9.172221" stroke-width=".352778" x="55.145618" y="171.98048"><tspan fill="#fff" stroke-width=".352778" x="55.145618 59.759247 64.868195 66.904411 68.913124 74.058762 79.167664 81.708382 88.862724 90.871422 93.934929 99.043877 102.07987 107.18881 109.72948 112.2702 117.41584 122.52474 127.63367 132.74258 137.85155 140.91505 146.024 151.1329 153.67361 159.80067 164.94627 170.05522 174.64133 176.67757 179.21826 181.75897 189.4086 194.51753 197.58105 200.12177 202.13048 207.27606 209.81679 215.42101 220.56665 225.67557 228.71158 233.82048 238.92943 244.07503 249.18399 254.29294 257.35645 262.46536 267.57428 272.68323 277.79218 280.33286" y="171.98048">Julien Girard, Leonardo Vanzi, Martin Tourehenerboauf</tspan></text><text font-size="40" transform="matrix(.35277777 0 0 .35277777 42.997982577 102.164768151)"><tspan x="0 26.6 48.799999 71 93.199997 104.36 113.24 133.24001 155.44 177.67999 204.36 226.56 246.56 266.64001 288.72 302.07999 324.28 346.48001 368.67999 390.76001 401.92001 413.07999 435.28 446.44 468.51999 481.88 504.07999 524.08002 535.23999 544.03998 564.12 586.32001 597.47998 624.08002 635.15997 648.52002 670.71997 692.79999 701.76001" y="0">Adaptive Background Interactive Strehl</tspan></text><text font-size="40" transform="matrix(.35277777 0 0 .35277777 144.794527866 145.868896693)"><tspan x="0 33.200001 55.400002 66.559998 88.760002" y="0">Meter</tspan></text></g><path d="m3.02381-.089283h303.1369v71.815475h-303.1369z" stroke="#060404" stroke-width="1.322917"/><text fill="#fff" font-family="Liberation Sans" font-size="80" font-weight="bold" transform="matrix(.35277777 0 0 .35277777 97.24549305 42.131834025)"><tspan x="0 57.84 115.6 137.75999 191.12" y="0">ABISM</tspan></text><path d="m137.8466 281.43452c-14.43172-9.92976-31.32848-16.67203-48.880073-17.67745 2.818442-17.9694-23.738045-6.94726-26.501433-19.95597 4.190234-10.58989 8.644905-26.89235-8.763145-25.68935-12.889496-5.73427-25.737492 1.08267-38.354607.10246-11.8697698-5.11512-7.0387675-20.56267-6.4570146-30.62283 4.9990916-13.27809 17.2683336.78964 25.8101106-7.50335 16.36757-6.40489 36.708847-11.84708 52.136281-.18155 15.788191 7.40795 33.517601 1.54864 50.175611 3.06007 13.19764.44302 25.34524 6.43143 35.7247 14.23392 15.25845 8.37878 32.80844 11.52288 47.74705 20.57607 20.65255 5.1749 39.00961 17.93294 60.48797 20.04274 9.46957 11.88701 9.19801 33.72979-5.7669 41.02401-14.48272 2.31619-29.20235-.34544-43.76519 1.23922-31.19358.71075-62.39472.9735-93.59336 1.35206zm26.62767-12.38889c-1.38759-1.34824-.94429 2.48214 0 0zm-55.64396-5.8264c-2.57143-1.15887 1.81459 3.92154 0 0zm14.13239-10.29247c.3754-2.82505-1.65641 2.0958 0 0zm11.65788-8.2726c.37541-2.82505-1.6564 2.09577 0 0zm12.58236-18.63949c-1.07496-3.87218-.83585 3.08192 0 0zm7.09922-1.68742c1.15379-4.08316-2.12172 1.81353 0 0zm7.43862-9.23711-.049.48205zm6.70372-5.75415c1.06488-1.84051-1.64551.0756 0 0zm6.36289-7.4211c-.91414-1.04541.089 1.48363 0 0zm-146.253438-6.79853c-2.040865-1.79149-.795948 3.31023 0 0zm64.184591-4.97079-.646441.0126zm-51.695629-3.76951-.627583.31329zm29.697828-4.92978c-2.198489-3.64924-3.075286.88435 0 0zm27.760505 2.59323c-.36917-1.6814 5.151763 4.17172 0 0zm51.533143-65.5515c-10.61135 5.95759-13.9675-17.12687-1.25261-8.1554 10.04185 3.06453 21.36986-8.88035 30.13945-2.02493-7.67204 4.155 20.13235 1.59675 6.72361 7.42941-11.72671 2.37182-23.77305 1.45907-35.61045 2.75092zm30.33699-2.68155c-2.0656-2.05991-1.22598 2.18217 0 0zm-6.6238-6.75103c-1.12281-2.58299-1.53152 2.45087 0 0zm1.60232-1.2424c-1.83563-4.16953-2.54008 4.17094 0 0zm3.16682-.3346-.47861-.1576zm-8.27975 11.15101c4.14866-3.09488 5.88206 2.76915 0 0zm-21.33606-8.67587c.6674-1.95925 1.10892 1.43176 0 0zm2.85567-.22254c.66075-1.45415.71246 1.32247 0 0zm2.11962-.26696c.71246-1.32246.66074 1.45419 0 0zm1.97287-.022c-.0228-2.36568 1.70792 1.69019 0 0zm31.67601.0744c-8.52647-6.66558 9.43306-1.23169 0 0zm1.91207-1.16736c-1.83599-.40315 1.10632 1.71566 0 0zm-.38936-1.22756c-.90707-3.80743-2.2944 2.89367 0 0zm-45.24228 1.6737c-2.20377-4.09472 4.19365 1.11199 0 0zm22.67445.16674c.13473-2.46177 1.81024 1.63674 0 0zm-15.25328-.29722c.41518-1.24278.4494 1.08548 0 0zm13.77749 0c.56127-1.26047.56127 1.26047 0 0zm-11.24913-1.04901c.21817-1.82314 1.21461 1.41465 0 0zm-5.04541-.28524c.71247-1.3225.66075 1.45414 0 0zm7.41865 0c.66076-1.45418.71247 1.32246 0 0zm10.59809-.26697c-.72101-1.81888 1.74478.60331 0 0zm-5.07489-2.61038c-2.68665-3.50967 11.30355 1.4342 0 0z" fill="#0b3bc9" stroke-width=".265904"/><path d="m170.23697 118.62944 46.72136 116.38246m-62.65617-10.68465 15.93481-105.69781 11.1916 114.87056m-71.81548-13.60714 60.62388-101.26342-37.9453 104.28723" fill="none" stroke="#fefefe"/></g></svg>