<svg xmlns="http://www.w3.org/2000/svg" xmlns:xlink="http://www.w3.org/1999/xlink" width="90.52" height="76.59" viewBox="0 0 67.89 57.44"><defs><symbol id="b" overflow="visible"><path d="M1.56-3.27l.03-.1c0-.08-.07-.08-.15-.08l-.61.04c-.1 0-.1 0-.13.04l-.03.1c0 .08.08.08.14.08.02 0 .1 0 .17.02.1.01.11.03.11.06L1-2.77.6-1.09a.82.82 0 0 0-.05.28c0 .51.37.87.86.87.72 0 1.4-.7 1.4-1.39 0-.5-.36-.87-.87-.87-.22 0-.46.07-.7.26zM1.4-.1C1.2-.1.96-.25.96-.64c0-.17.03-.33.08-.5l.11-.4c.02-.05.36-.5.78-.5.22 0 .44.13.44.5 0 .2-.1.66-.25.96-.17.28-.45.47-.7.47z"/></symbol><symbol id="i" overflow="visible"><path d="M3.02-2.36c0-.6-.29-1.16-.82-1.16-.8 0-1.67 1.25-1.67 2.43 0 .67.33 1.15.81 1.15.82 0 1.68-1.3 1.68-2.42zm-1.88.52c.31-1.24.81-1.5 1.05-1.5.28 0 .4.3.4.7 0 .16-.01.36-.12.8zm1.27.23C2.1-.42 1.6-.1 1.36-.1c-.38 0-.4-.56-.4-.7 0-.2.02-.44.12-.8z"/></symbol><symbol id="j" overflow="visible"><path d="M2.53-1.89c-.17.06-.2.2-.2.25 0 .12.1.19.19.19.06 0 .26-.05.26-.32 0-.32-.39-.43-.76-.43-.85 0-1 .51-1 .68a.41.41 0 0 0 .18.36c.14.1.3.13.57.18.3.04.65.09.65.34 0 .02 0 .53-.92.53-.19 0-.5-.01-.66-.17.2-.05.27-.19.27-.31C1.1-.73 1-.8.89-.8c-.17 0-.31.13-.31.35 0 .5.76.5.92.5 1.02 0 1.19-.6 1.19-.8 0-.45-.55-.53-.8-.57-.36-.06-.6-.1-.6-.3 0-.01 0-.42.71-.42.14 0 .39 0 .53.14z"/></symbol><symbol id="k" overflow="visible"><path d="M1.97-3.11c0-.12-.08-.22-.22-.22s-.3.14-.3.3c0 .14.11.22.22.22a.3.3 0 0 0 .3-.3zm.23 2.4c0-.07-.07-.07-.1-.07-.08 0-.08.01-.12.1-.07.27-.3.57-.56.57-.1 0-.14-.08-.14-.19s.02-.17.06-.26l.11-.27.28-.69c.04-.09.07-.17.07-.25 0-.23-.24-.43-.55-.43-.52 0-.8.64-.8.76 0 .08.08.08.11.08.08 0 .08-.03.11-.1.11-.35.35-.57.56-.57.1 0 .16.05.16.19 0 .01 0 .07-.03.17s-.27.62-.33.8c-.05.09-.05.09-.1.26-.04.08-.07.14-.07.22 0 .27.25.45.55.45.51 0 .8-.65.8-.78z"/></symbol><symbol id="l" overflow="visible"><path d="M.97-.48a5.84 5.84 0 0 0-.08.35c0 .12.1.2.19.2.06 0 .17-.05.23-.18l.1-.39.17-.7c.08-.13.44-.83 1.03-.83.25 0 .36.12.36.36 0 .28-.22.8-.33 1.08a.43.43 0 0 0-.05.2c0 .27.25.45.55.45.53 0 .8-.65.8-.78 0-.06-.08-.06-.1-.06-.09 0-.09.01-.12.1-.1.3-.33.57-.56.57C3.05-.1 3-.19 3-.3s.03-.15.08-.26c.08-.2.31-.77.31-1.05 0-.37-.27-.6-.75-.6-.45 0-.77.29-.94.5-.01-.41-.42-.5-.6-.5-.5 0-.65.77-.65.77 0 .08.08.08.11.08.08 0 .1-.03.11-.1.08-.29.19-.57.4-.57.16 0 .21.16.21.26 0 .07-.06.25-.08.4a2.56 2.56 0 0 0-.1.43z"/></symbol><symbol id="q" overflow="visible"><path d="M1.56-1.92h.6c.1 0 .1 0 .12-.03.03-.02.05-.08.05-.11 0-.08-.08-.08-.16-.08h-.55l.1-.42.1-.4c0-.07-.07-.16-.2-.16a.26.26 0 0 0-.23.18l-.2.8h-.6c-.09 0-.17 0-.17.12 0 .1.06.1.16.1h.55L.83-.75c-.03.11-.07.27-.07.33 0 .28.26.48.62.48.6 0 .97-.69.97-.78 0-.06-.1-.06-.11-.06-.08 0-.1.01-.11.08-.17.36-.47.6-.73.6-.16 0-.2-.13-.2-.28v-.14z"/></symbol><symbol id="s" overflow="visible"><path d="M3.19-1.78c0-.33-.17-.42-.28-.42-.14 0-.3.15-.3.28 0 .1.08.14.1.17.06.05.2.16.2.38 0 .28-.38 1.26-.97 1.26-.27 0-.49-.1-.49-.47 0-.25.13-.58.28-.94a.73.73 0 0 0 .07-.25c0-.25-.24-.43-.55-.43-.52 0-.8.64-.8.76 0 .08.08.08.11.08.08 0 .08-.03.11-.1.1-.34.33-.57.56-.57.1 0 .16.05.16.19 0 .09-.03.15-.1.3-.18.48-.26.71-.26.9 0 .48.4.7.88.7.4 0 .7-.3.87-.58.36-.53.4-1.17.4-1.26z"/></symbol><symbol id="m" overflow="visible"><path d="M2.2-3.63l.02-.04c0-.02-.02-.06-.1-.06-.09 0-1.37.8-1.37 2.48s1.28 2.5 1.38 2.5c.07 0 .09-.05.09-.08s-.03-.04-.05-.06a2.97 2.97 0 0 1-1.04-2.36c0-1.22.56-2.02 1.07-2.38z"/></symbol><symbol id="n" overflow="visible"><path d="M1.95-1.25C1.95-2.94.67-3.73.56-3.73c-.08 0-.08.06-.08.06 0 .01 0 .03.04.06a2.9 2.9 0 0 1 1.04 2.36c0 .45-.08.92-.25 1.33-.23.56-.56.84-.8 1.04l-.03.05c0 .01 0 .08.08.08.11 0 1.4-.8 1.4-2.5z"/></symbol><symbol id="p" overflow="visible"><path d="M2.94-3.45c-.06-.1-.1-.11-.2-.11s-.15.01-.2.1L.47-.12l-.04.07c0 .06.04.06.12.06H4.9c.08 0 .13 0 .13-.06l-.04-.07zm-.4.39l1.62 2.6H.94z"/></symbol><symbol id="o" overflow="visible"><path d="M4.64-1.84c0-.14-.16-.14-.22-.14H.7c-.08 0-.22 0-.22.14s.13.14.2.14h3.76c.08 0 .2 0 .2-.14zm0 1.18c0-.14-.12-.14-.2-.14H.67c-.06 0-.19 0-.19.14s.15.14.22.14h3.72c.06 0 .22 0 .22-.14z"/></symbol><symbol id="r" overflow="visible"><path d="M4.13-2.48c.06-.05.07-.1.07-.13a.14.14 0 0 0-.14-.14c-.04 0-.08.02-.12.08L2.7-1.45 1.47-2.7c-.06-.04-.1-.06-.14-.06a.14.14 0 0 0-.14.14c0 .05.03.08.08.13L2.5-1.25 1.27-.02c-.05.07-.08.08-.08.14 0 .08.06.14.14.14.06 0 .08-.02.12-.07L2.7-1.05 3.97.23a.22.22 0 0 0 .1.04.14.14 0 0 0 .13-.14L4.2.05c-.01-.03-.96-.94-1.3-1.3z"/></symbol><clipPath id="a"><path d="M0 28h67.9v29.44H0z"/></clipPath><clipPath id="c"><path d="M43 23h24.9v34H43z"/></clipPath><clipPath id="d"><path d="M28 23h39.9v34H28z"/></clipPath><clipPath id="e"><path d="M55 25h12.9v25H55z"/></clipPath><clipPath id="f"><path d="M57 23h10.9v19H57z"/></clipPath><clipPath id="g"><path d="M41 0h26.9v50H41z"/></clipPath><clipPath id="h"><path d="M51 0h16.9v18H51z"/></clipPath><clipPath id="t"><path d="M0 30h70v30H0z"/></clipPath><clipPath id="u"><path d="M0 30h70v30H0z"/></clipPath><clipPath id="v"><path d="M0 30h70v30H0z"/></clipPath><clipPath id="w"><path d="M0 30h70v30H0z"/></clipPath></defs><g clip-path="url(#a)" transform="matrix(1 0 0 .9 2 7)"><path d="M8 40c12 20 42 20 52 0" fill="none" stroke="#fff" stroke-miterlimit="10" stroke-dasharray="3,3"/></g><path d="M62.3 42.77H5.6" stroke-miterlimit="10" stroke-width=".3" stroke="#fff" fill="none"/><use x="32.37" y="49.7" xlink:href="#b" fill="#fff"/><g clip-path="url(#e)"><path d="M62.3 42.77l3.54-10.28" stroke-miterlimit="10" stroke-dasharray="0.49814,0.99628" stroke-width=".5" stroke="#fff" fill="none"/></g><g clip-path="url(#f)"><path d="M64.39 30.85l.72 3.74 2.88-2.5" stroke-miterlimit="10" stroke-linecap="round" stroke-width=".5" stroke="#fff" fill="none"/></g><g clip-path="url(#g)"><path d="M48.12 42.77L62.3.25" stroke-miterlimit="10" stroke-dasharray="0.49814,0.99628" stroke-width=".5" stroke="#fff" fill="none"/></g><g clip-path="url(#h)"><path d="M58.14 6.68l.77 3.73 2.85-2.52" stroke-miterlimit="10" stroke-linecap="round" stroke-width=".5" stroke="#fff" fill="none"/></g><path d="M5.6 42.77L19.77.25" stroke-miterlimit="10" stroke-dasharray="0.49814,0.99628" stroke-width=".5" stroke="#fff" fill="none"/><path d="M15.62 6.68l.77 3.73 2.84-2.52" stroke-miterlimit="10" stroke-linecap="round" stroke-width=".5" stroke="#fff" fill="none"/><path d="M62.3 42.77L10.72 26.65m0 0l2.4.76-.44 1.4-2.4-.76.44-1.4m27.7 8.98a24.4 24.4 0 0 0-1.04 7.14" stroke-miterlimit="10" stroke-width=".3" stroke="#fff" fill="none"/><path d="M35.79 36.69c1.37.05 2.2-.52 2.69-1.21 0 .84.36 1.79 1.52 2.52" stroke-miterlimit="10" stroke-linejoin="round" stroke-linecap="round" stroke-width=".3" stroke="#fff" fill="none"/><use x="30.98" y="39.99" xlink:href="#i" fill="#fff"/><g fill="#fff"><use x="25.46" y="8.37" xlink:href="#j"/><use x="28.8" y="8.37" xlink:href="#k"/><use x="31.45" y="8.37" xlink:href="#l"/></g><use x="35.84" y="8.37" xlink:href="#m" fill="#fff"/><use x="38.54" y="8.37" xlink:href="#i" fill="#fff"/><use x="42.09" y="8.37" xlink:href="#n" fill="#fff"/><use x="31.39" y="14.35" xlink:href="#o" fill="#fff"/><use x="25.22" y="18.73" xlink:href="#p" fill="#fff"/><use x="30.69" y="18.73" xlink:href="#q" fill="#fff"/><use x="33.5" y="18.73" xlink:href="#r" fill="#fff"/><use x="38.89" y="18.73" xlink:href="#s" fill="#fff"/><path d="M25.22 20.16h17.45" fill="none" stroke="#fff" stroke-miterlimit="10" stroke-width=".4"/><use x="32.37" y="24.21" xlink:href="#b" fill="#fff"/><g transform="matrix(.2 0 0 .4 -.9 20)" clip-path="url(#t)" fill="none" stroke="#fff" stroke-width="1.1"><path d="M6 40c14 20 44 20 54 0" stroke-width="2.7"/></g><g transform="matrix(.2 0 0 .4 40 20)" clip-path="url(#u)" fill="none" stroke="#fff" stroke-width="1.1"><path d="M6 40c14 20 44 20 54 0" stroke-width="2.7"/></g><g transform="matrix(.2 0 0 .4 50 20)" clip-path="url(#w)" fill="none" stroke="#fff" stroke-width="1.1"><path d="M20 40c20 20 50 20 60 0" stroke-width="2.7"/></g></svg>