<svg xmlns="http://www.w3.org/2000/svg" width="225" height="189"><path d="M87 44c16-10 55-23 57 9 12 6 4 2-3 6-16 0-15 15-49 0 21 15 22 22 49 0 13 18 26 23 18 0 27 4 41 39 31 63-20 10-22 9-33 13-25 15-94 9-102-20-5 14-12 23-16 33-9 32 47 30 65 28-1-2-31-4-35-5-18-3-39-14-20-31 6-6 12-7 18-2 9 8 27 8 34 17 3 4 1 16 3 21l16 2c24 1 51 2 74-7 22-10 19-37-4-44 16-21-1-50-10-61-10-12-19-5-26-9-14-29-16-23-37-26 6-20-25-11-22 5-11 3-8 8-8 8m33-33c3 5 3 5 0 0m15 24c-3-19-20-22-25-4m11 4c5 3 27 12 0 0m3 13c0-2-3 2-6 4 4 4 8 1 6-4M81 61c-42 3-35 26-26 54-1-7-3-35-1-29 6-13 8-15 11 2h1c-1-14-1-14-9-12 2-5 11-18 17-12 3 2 2 8 3 11 1 6 8 11 11 15-4-6-9-18-10-24 5-5 7-5 6-11 6-4 3-4 3-11-7 2-7 12-6 17m27-12c-6 8 5 4 5 4M84 80c2 4 2 4 0 0m4 10c7 11 23 21 36 16 5-1 9-6 14-9 6-4 14-9 18-17-18 10-26 20-40 20-10 1-20-5-28-10m-74-6c10 6 49 39 61 44 7-13 0-8 13-4 24 10 40 11 57 7-7-2-13-14-7-15 0 0 24-14 33-25 13-14-35 24-42 27-43-7-41-21-10 3 3 3 6 9 2 9-8 1-19-7-25-10m8-9C92 95 66 88 66 88m-23 15c7 8 7 8 0 0m25 10c1 2 1 2 0 0m44 43c-7-7 24-8 33-9 16-1 26-15 41-17 12-2 23 12 22 23-15 30-81 22-95 22-5-4-2-14-1-19m46-16c-4 3-4 3 0 0" fill="#d0d2d1"/></svg>