<svg viewBox="0 0 20.48 20.48" xmlns="http://www.w3.org/2000/svg"><path d="m0 10.24c0-3.4133333 0-6.8266667 0-10.24h20.48v20.48c-6.826667 0-13.6533333 0-20.48 0 0-3.413333 0-6.826667 0-10.24z" fill="none" stroke-width=".32"/><path d="m2.8306894 19.297644c-.685384-.951287-.4926787-2.222537-.5155882-3.329034-.020194-.996548.334187-2.295124 1.5114653-2.411095.967031-.115686 2.2804626-.274938 2.8347184.741757.9157263.906673-.210636 1.816427-1.1230741 1.118943-1.002596-.73658-1.8866906.215193-1.6371174 1.264626-.2495732 1.049433.6345214 2.001206 1.6371174 1.264626.8089408-.631973 2.0307462.08371 1.1887588 1.014747-.460122 1.009443-1.6896311.987489-2.626041.884733-.4608788-.05763-.947101-.193358-1.2702392-.549303zm4.9788165-2.534803c.03053-1.04.06106-2.08.09159-3.12 1.3727222.03234 2.7579621-.08423 4.1200001.102856 1.148136.886825-.703913 1.502538-1.500841 1.39679-.5322453-.06148-1.4771563.594188-.495789.798858.757462-.08116 2.044554.808777.847886 1.272236-1.3857433-.07035-1.5099014 1.252556-1.6099381 2.304884-.2822511.572885-1.0279452.301151-1.544493.364376.030528-1.04.061057-2.08.091585-3.12zm5.4399991 0c.06303-.962877-.02809-1.962031.263104-2.891169 1.142572-.881657 1.180798.959699 1.56642 1.604481.736488 1.197854 1.499832-.273552 1.392245-1.118924.264715-1.425604 1.756222-.362668 1.374443.704742.07784 1.605984.106096 3.213908.158554 4.82087-.492447-.04793-1.069.132119-1.484213-.188539-.207762-.756269-.01913-3.021062-1.312037-1.973085-.750984.615756.05735 2.396106-1.354368 2.161624-.309977-.03669-.871568.170947-.685538-.347407.02713-.924198.05426-1.848395.08139-2.772593zm-11.1065272-5.516951c-.7171534-2.2413154-.5067696-4.7655589.6477532-6.8286741 1.0524984-2.0141955 2.8767773-3.60239476 5.0231025-4.35022694 1.2145413.07682001.7067843 1.86878304.849918 2.73109364-.0252397 2.8684244-.0824019 5.7364997-.1226546 8.6047584-2.0317471.017188-4.076945.247958-6.0984421-.020646l-.1993622-.062389-.1003108-.073912zm10.2914482.103618c-.300583-1.555831-.184921-3.1685469-.222738-4.7502955.03662-2.1444689-.01358-4.3047358.274-6.43339851.724715-.1656276 1.711001.62377321 2.466925.94799001 2.482918 1.401648 3.989441 4.207069 3.979728 7.0347591-.05838.9802871.19106 2.1399159-.479613 2.9546909-.89879.639046-2.095322.392798-3.134154.459308-.958859-.0339-1.951702.02633-2.884148-.213054z" fill="#f5f5f5"/></svg>