<svg height="210mm" viewBox="0 0 210 210" width="210mm" xmlns="http://www.w3.org/2000/svg" xmlns:xlink="http://www.w3.org/1999/xlink"><clipPath id="a"><path d="m49.464073 18.995573h121.46704v130.36259h-121.46704z"/></clipPath><clipPath id="b"><path d="m-.534539.865364h210.60838v210.60838h-210.60838z"/></clipPath><g clip-path="url(#b)" fill="#fff" font-family="Liberation Sans" transform="translate(-1.889881 -8.380952)"><text font-size="43.993999" transform="matrix(.35277777 0 0 .35277777 16.85638342653 31.48905394072)"><tspan x="0 24.460665 36.647003 48.041447 73.337997 87.987999 112.44866 134.44566 158.90633 173.55634 195.55333 207.82765 232.24432 244.51865 256.70499 286.04898 298.3233 322.73999 337.38998 349.57632 376.41266 400.87332 415.47934 452.12634 476.58701 488.86133 498.62799 523.08868 547.54932" y="0">1/ Tracers of Star Formation</tspan></text><text font-size="32.002998" transform="matrix(.35277777 0 0 .35277777 11.55383142677 60.35504220986)"><tspan x="0 26.594494 44.388161 62.181828 79.879486 86.984154 95.848984 104.71381 115.30681 133.10048 159.69498 168.5598 189.93781 200.5948 218.29247 234.35797 252.15164 269.8493 276.95395 285.81879 303.51645 321.31012 339.10379 347.9046 371.0748 388.86844 406.5661 417.22311 424.32779 442.02542 450.89026 459.7551 477.54877 495.24643 513.0401 530.73773" y="0">Model from Bruzual and Charlot 2003</tspan></text></g><g clip-path="url(#a)" fill="none" stroke-width="2" transform="matrix(1.7338727 0 0 1.6155584 -88.188824 -33.668331)"><path d="m66.145832 59.630952 87.690478 86.934528" stroke="#ff0101"/><path d="m64.633927 70.592261 89.580353 55.373509" stroke="#e9a60d"/><path d="m62.933034 78.340772 89.769346 23.056548" stroke="#19ff0b"/><path d="m62.933034 78.340772 92.415176 9.449406" stroke="#37c8ff"/><path d="m62.933034 78.340772 91.281246 3.023809" stroke="#0e00f4"/></g></svg>