<?xml version="1.0" encoding="UTF-8" standalone="no"?>
<svg xmlns="http://www.w3.org/2000/svg" xmlns:sodipodi="http://sodipodi.sourceforge.net/DTD/sodipodi-0.dtd" xmlns:inkscape="http://www.inkscape.org/namespaces/inkscape" version="1.1" viewBox="0 0 20.48 20.48" sodipodi:docname="cfht.svg" inkscape:version="0.92.4 (5da689c313, 2019-01-14)">
<g id="g879"> <path style="fill:#ffffff;fill-opacity:0;stroke-width:0.31999999" d="M 0,10.24 C 0,6.8266667 0,3.4133333 0,0 c 6.8266667,0 13.653333,0 20.48,0 0,6.8266667 0,13.653333 0,20.48 -6.826667,0 -13.6533333,0 -20.48,0 0,-3.413333 0,-6.826667 0,-10.24 z" id="path883" inkscape:connector-curvature="0" /> <path style="fill:#f5f5f5;fill-opacity:1;stroke:none;stroke-width:0.31999999;stroke-opacity:1" d="M 2.8306894,19.297644 C 2.1453054,18.346357 2.3380107,17.075107 2.3151012,15.96861 c -0.020194,-0.996548 0.334187,-2.295124 1.5114653,-2.411095 0.967031,-0.115686 2.2804626,-0.274938 2.8347184,0.741757 0.9157263,0.906673 -0.210636,1.816427 -1.1230741,1.118943 -1.002596,-0.73658 -1.8866906,0.215193 -1.6371174,1.264626 -0.2495732,1.049433 0.6345214,2.001206 1.6371174,1.264626 0.8089408,-0.631973 2.0307462,0.08371 1.1887588,1.014747 -0.460122,1.009443 -1.6896311,0.987489 -2.626041,0.884733 -0.4608788,-0.05763 -0.947101,-0.193358 -1.2702392,-0.549303 z m 4.9788165,-2.534803 c 0.03053,-1.04 0.06106,-2.08 0.09159,-3.12 1.3727222,0.03234 2.7579621,-0.08423 4.1200001,0.102856 1.148136,0.886825 -0.703913,1.502538 -1.500841,1.39679 -0.5322453,-0.06148 -1.4771563,0.594188 -0.495789,0.798858 0.757462,-0.08116 2.044554,0.808777 0.847886,1.272236 -1.3857433,-0.07035 -1.5099014,1.252556 -1.6099381,2.304884 -0.2822511,0.572885 -1.0279452,0.301151 -1.544493,0.364376 0.030528,-1.04 0.061057,-2.08 0.091585,-3.12 z m 5.4399991,0 c 0.06303,-0.962877 -0.02809,-1.962031 0.263104,-2.891169 1.142572,-0.881657 1.180798,0.959699 1.56642,1.604481 0.736488,1.197854 1.499832,-0.273552 1.392245,-1.118924 0.264715,-1.425604 1.756222,-0.362668 1.374443,0.704742 0.07784,1.605984 0.106096,3.213908 0.158554,4.82087 -0.492447,-0.04793 -1.069,0.132119 -1.484213,-0.188539 -0.207762,-0.756269 -0.01913,-3.021062 -1.312037,-1.973085 -0.750984,0.615756 0.05735,2.396106 -1.354368,2.161624 -0.309977,-0.03669 -0.871568,0.170947 -0.685538,-0.347407 0.02713,-0.924198 0.05426,-1.848395 0.08139,-2.772593 z M 2.1429778,11.24589 C 1.4258244,9.0045746 1.6362082,6.4803311 2.790731,4.4172159 3.8432294,2.4030204 5.6675083,0.81482114 7.8138335,0.06698896 9.0283748,0.14380897 8.5206178,1.935772 8.6637515,2.7980826 8.6385118,5.666507 8.5813496,8.5345823 8.5410969,11.402841 6.5093498,11.420029 4.4641519,11.650799 2.4426548,11.382195 L 2.2432926,11.319806 2.1429818,11.245894 Z M 12.434426,11.349508 C 12.133843,9.793677 12.249505,8.1809611 12.211688,6.5992125 c 0.03662,-2.1444689 -0.01358,-4.3047358 0.274,-6.43339851 0.724715,-0.16562760243 1.711001,0.62377321 2.466925,0.94799001 2.482918,1.401648 3.989441,4.207069 3.979728,7.0347591 -0.05838,0.9802871 0.19106,2.1399159 -0.479613,2.9546909 -0.89879,0.639046 -2.095322,0.392798 -3.134154,0.459308 -0.958859,-0.0339 -1.951702,0.02633 -2.884148,-0.213054 z" id="path881" inkscape:connector-curvature="0" /> </g>
</svg>
