<svg height="107.30582mm" viewBox="0 0 128.00022 107.30582" width="128.00021mm" xmlns="http://www.w3.org/2000/svg"><g stroke-width=".004826" transform="matrix(56.700317 0 0 -96.283558 -94.61342601752 101.76109415202)"><path d="m1.7346497.44448282v.5h.5.5v-.5-.5h-.5-.5z" fill="#e08f22"/><path d="m1.9757108-.00382826c-.1052821.13377474-.2410611-.02072253-.2410611.20696886 0 .15304066.0001745.1551617.014855.18057933.02049.0354762.03697.0531341.062801.0672879.030122.0165052.039465.0338316.026317.0488038-.00777.008851-.014123.0113379-.028948.0113379-.027275 0-.051234.0150674-.048685.0306173.00996.0244377.066757.007917.068.0403126.034526.0359941.090502.001109.14151-.002411.00736-.0218581.010007-.0451665.02421-.0659035.00518-.007294.00781-.0171162.00585-.0218272.022823-.00030416.057278.0296441.106933.030303.012419.00002222.012574.00023704.022432.0311275.00884.0277095.039331.0547363.074193.0657714.041595.0123649.065482-.00009005.11128-.001696.062719-.00919.051019-.0508458.016421-.0667503-.018151-.0157816.038361-.0419115.00952-.0493679-.028299.0119879-.093918.0426209-.051219-.0006595-.012739-.10486946.1473088-.19038426.216971-.2597183.037621-.0399529.044131-.0985926.045963-.14263274-.00254-.03649248.014193-.04222944-.03012-.0604258.00476-.0465151-.052867-.02081153-.1490365-.0247526-.1237415-.03748736-.3923476-.12871776-.3981864-.01696475zm.00108.51127399c0 .003-.00495.006016-.011006.006702-.00772.00087577-.036004-.003087-.036004-.008665s.028278-.005615.036004-.004739c.00605.00068652.011006.003703.011006.006702zm.2478838.0696213c-.043473.004479-.058848-.0385699-.019897-.0350457.042224.005899.069622.0327437.019897.0350457zm.3975541-.49706534c.027712.03726985.018771.11865882.018368.22641117-.0002717.0688479.00172.0929627.00857.1037037.010689.0105207.046323.0887227.076554.0899214.0076 0 .00892-.0319958.00892-.21604937 0-.1703876-.00166-.2160426-.00786-.21601715-.035261.0035907-.068974.0093363-.104552.01203025zm-.7190673.75424761c.02457.016402.072581.00054012.096576.013012.02889.009756.069481.0181031.093152.026683.00785.002924.00746.004545-.00271.0111623-.020457.0149243-.078301-.003693-.091933.00793-.016591.0255477.1489976.0127783.176746.0199921.041039.0540311.2159634.035352.3010239.0182937.035636-.005318.2341518.041491.258631.006349-.0146593-.02367194-.1279994-.0071555-.132075-.0267227-.0513247-.06722525-.1825429-.00233414-.220923-.0132505-.088148-.0539983-.1386742-.087137-.132808-.0364608-.037294.00750332-.0828288-.0268806-.111977-.0222526-.0508143.0167821-.2624713-.02233077-.2337029-.0047355zm.2496589.0308559c-.020283.002241-.04082-.002308-.040807-.009039.024158-.009048.091363.003048.040807.009039zm.1773283.0605823c-.057208.0126393-.1520983-.0316812-.190494-.027673-.093048-.0222038.2487917.007838.190494.027673z" fill="#5e3c12"/></g><text fill="#333" font-family="LMRoman17" font-size=".118347" stroke-width=".004775" transform="matrix(73.88712997799 0 0 73.88713296867 -11.759861 85.724875)" x=".709882" y=".262465"><tspan stroke-width=".004775" x=".709882 .782701 .836975 .866526" y=".262465">Voie</tspan></text><path d="m-72 41.321h362.835v30.679h-362.835z" fill="#333" transform="matrix(.35277803231 0 0 -.35277814233 25.39999585324 25.40004855559)"/><g stroke-width=".004826" transform="matrix(56.700317 0 0 -96.283558 -31.33161972174 101.76109415202)"><path d="m1.7346497.44448282v.5h.5.5v-.5-.5h-.5-.5z" fill="#e08f22"/><path d="m1.9757108-.00382826c-.1052821.13377474-.2410611-.02072253-.2410611.20696886 0 .15304066.0001745.1551617.014855.18057933.02049.0354762.03697.0531341.062801.0672879.030122.0165052.039465.0338316.026317.0488038-.00777.008851-.014123.0113379-.028948.0113379-.027275 0-.051234.0150674-.048685.0306173.00996.0244377.066757.007917.068.0403126.034526.0359941.090502.001109.14151-.002411.00736-.0218581.010007-.0451665.02421-.0659035.00518-.007294.00781-.0171162.00585-.0218272.022823-.00030416.057278.0296441.106933.030303.012419.00002222.012574.00023704.022432.0311275.00884.0277095.039331.0547363.074193.0657714.041595.0123649.065482-.00009005.11128-.001696.062719-.00919.051019-.0508458.016421-.0667503-.018151-.0157816.038361-.0419115.00952-.0493679-.028299.0119879-.093918.0426209-.051219-.0006595-.012739-.10486946.1473088-.19038426.216971-.2597183.037621-.0399529.044131-.0985926.045963-.14263274-.00254-.03649248.014193-.04222944-.03012-.0604258.00476-.0465151-.052867-.02081153-.1490365-.0247526-.1237415-.03748736-.3923476-.12871776-.3981864-.01696475zm.00108.51127399c0 .003-.00495.006016-.011006.006702-.00772.00087577-.036004-.003087-.036004-.008665s.028278-.005615.036004-.004739c.00605.00068652.011006.003703.011006.006702zm.2478838.0696213c-.043473.004479-.058848-.0385699-.019897-.0350457.042224.005899.069622.0327437.019897.0350457zm.3975541-.49706534c.027712.03726985.018771.11865882.018368.22641117-.0002717.0688479.00172.0929627.00857.1037037.010689.0105207.046323.0887227.076554.0899214.0076 0 .00892-.0319958.00892-.21604937 0-.1703876-.00166-.2160426-.00786-.21601715-.035261.0035907-.068974.0093363-.104552.01203025zm-.7190673.75424761c.02457.016402.072581.00054012.096576.013012.02889.009756.069481.0181031.093152.026683.00785.002924.00746.004545-.00271.0111623-.020457.0149243-.078301-.003693-.091933.00793-.016591.0255477.1489976.0127783.176746.0199921.041039.0540311.2159634.035352.3010239.0182937.035636-.005318.2341518.041491.258631.006349-.0146593-.02367194-.1279994-.0071555-.132075-.0267227-.0513247-.06722525-.1825429-.00233414-.220923-.0132505-.088148-.0539983-.1386742-.087137-.132808-.0364608-.037294.00750332-.0828288-.0268806-.111977-.0222526-.0508143.0167821-.2624713-.02233077-.2337029-.0047355zm.2496589.0308559c-.020283.002241-.04082-.002308-.040807-.009039.024158-.009048.091363.003048.040807.009039zm.1773283.0605823c-.057208.0126393-.1520983-.0316812-.190494-.027673-.093048-.0222038.2487917.007838.190494.027673z" fill="#5e3c12"/></g><g font-family="LMRoman17" font-size=".118347" stroke-width=".004775" transform="matrix(73.88712997799 0 0 73.88713296867 -11.759861 85.724875)"><text fill="#333" x="1.556512" y=".272697"><tspan stroke-width=".004775" x="1.556512" y=".272697">Vertu</tspan></text><text fill="#fff" x=".218785" y="-1.049683"><tspan fill="#fff" stroke-width=".004775" x=".218785" y="-1.049683">Cosmologie</tspan></text><text fill="#fff" x=".796847" y="-1.047125"><tspan fill="#fff" stroke-width=".004775" x=".796847" y="-1.047125">Observationnelle</tspan></text></g></svg>