<svg height="816" viewBox="0 0 816 816" width="816" xmlns="http://www.w3.org/2000/svg"><g fill="#fefefe" stroke-width=".96"><path d="m37.94902 574.34471v20.07813c7.481402.12998 14.973419 1.21196 22.443802.45569 3.33372.69988 5.12017-1.96828 4.433684-4.94482.02297-3.01744.244546-6.37536-1.463849-9.00339-2.799107-2.73711-6.996534-1.67991-10.478444-1.51311-4.09661.85838-.924562 7.27742-4.934819 8.09809-3.747524-.74315-2.104287-5.85926-2.376263-8.62726.448756-1.79398.598127-5.19857-2.114913-4.54333-1.836399 0-3.672799 0-5.509198 0zm33.601563 0v20.16016c2.753669-.0453 8.150403 1.07216 7.56369-3.36481.536018-4.05871 6.75265-2.74675 6.311996 1.07738 1.027856 3.36742 5.206119 3.57674 8.095712 2.88239 8.330559-.82698 16.711269-.51244 25.067669-.5951.9096-3.6136-2.00919-6.98485-1.20503-10.52181 1.12129-2.16216.13819-4.69384-2.50773-3.87858-2.92257 0-5.84514 0-8.76771 0 1.43263-3.45922-1.98302-7.51586-5.60277-5.90296-2.631489 1.49634-2.269134 6.79184-6.562129 5.32685-3.540245-.11923-5.986751-2.99739-8.858367-4.61157-4.38744-1.27825-9.044931-.19656-13.535331-.57195z"/><path d="m25.847325 156.46803c-1.762463 14.30942-.585381 25.71019 17.733907 21.02925 23.325333 1.29621-2.781597-30.20607-8.23586-7.5898-4.749643-4.84355 2.689514-17.83217-9.498047-13.43945zm35.896485 0c-16.237132 24.40717 36.803401 25.87774 46.37926 15.75852-3.43828-21.7361-26.960598-8.4165-37.059125-14.62745-2.914466 3.9887-6.447174 1.02713-9.320135-1.13107zm352.90429 0c-1.76247 14.30936-.58537 25.71032 17.73393 21.02929 23.32538 1.29632-2.78259-30.20604-8.23588-7.58984-4.75394-4.84032 2.68927-17.83183-9.49805-13.43945zm35.89649 0c-16.62348 21.94618 28.43925 23.33442 34.24565 17.59693 13.69274 16.81564 37.32178-13.42954 11.92279-13.26473-18.50064.15218-33.34174-1.89556-46.16844-4.3322z"/><path d="m297.08534 84.120697c5.82656 6.934139-6.58096 8.168311 0 0z"/><path d="m268.28456 84.120697c5.82562 6.932374-6.57613 8.169702 0 0z"/><path d="m203.96425 84.120697c5.83164 6.929399-6.57929 8.172802 0 0z"/><path d="m228.39784 83.882416c3.11773 6.309671-2.31797 10.409868 0 0z"/><path d="m510.44471 69.376556c-8.49731-1.813578-12.17673 11.62098-16.989 3.54284-21.40277 8.944931-44.95634 1.69787-67.27326 5.128808-12.35898-2.73548-32.75914 5.754562-36.4281-8.74532-13.14242-3.28138-1.37955 18.159741-11.56636 8.063147-18.98669-6.281492-20.04676 27.170989.43922 18.859492 14.90726-.432988 30.06974.599523 45.47441.711923 10.28692-1.176562 26.37805 3.478944 23.85659-9.912727 9.74321 2.840016 12.13881 14.497591 19.93966 5.995786 17.34023 8.630235 43.56366 1.033281 64.34637 3.6182 30.10541.03772 60.21246.277744 90.3166-.116429 14.72599-10.57825-7.36312-27.170263-15.2837-16.894063 7.86086-15.33438-27.65976-14.306994-18.34834-.564078-11.52341-2.634637-28.81397.07314-42.78032-1.368805-11.05679-3.210428-29.27653 4.522271-35.70377-1.162543 0-2.38541 0-4.770821 0-7.156231zm-24 14.50586c3.90594 6.254106-3.63788 9.156532 0 0zm12.48047 0c5.44374 2.05813 2.22654 9.274996-.63399 2.118303-2.40162.138511-2.62625-3.449174.63399-2.118303zm51.83985 0c3.90593 6.254122-3.63789 9.156514 0 0zm-176.88086.238281c5.83164 6.929375-6.57928 8.172827 0 0zm146.88086 0c5.82656 6.934143-6.581 8.168307 0 0zm-271.00196.230469c3.69551 7.807314-5.01331 7.318007 0 0zm144.04102.199219c6.78966 6.148061-7.15819 8.014715 0 0zm-68.96875.308593c6.39883 8.419119-8.00966 6.081765 0 0zm-86.07031.462891c3.961 5.0236-3.82079 6.991768 0 0zm301.43945 0c3.96293 5.019929-3.81896 6.995116 0 0zm21.12109 0c3.96101 5.02358-3.82077 6.991785 0 0z"/><path d="m181.88807 69.015228c-24.32858-1.588574-13.71343 39.584432 7.98364 26.824393 21.7808.567255 43.57258 1.317884 65.39942.66987 16.10394-.357329 32.59642.04297 48.41695.525898 11.75127 16.396841 28.33925-6.864318 44.15936-.789227 14.6225-5.338207-2.39197-29.266752-12.81424-16.961775 4.90446-11.708258-10.2997-11.829087-12.19383-2.811818-11.72313 1.795927-26.23949 2.406704-36.38668 1.434056 5.0266-13.552294-17.28219-8.510283-8.3283 2.093705-16.37095-2.563541-33.93592-2.966914-51.06398-2.508067-10.25064-2.403563-26.75027 5.470441-32.70734-2.4881 3.03288-9.433223-7.27001-4.371121-12.465-5.988935zm1.19922 6.673828c11.57534 4.70564 10.15859 12.116404-.9421 14.347625-6.59545-2.318453-6.28316-13.173665.9421-14.347625zm415.27735 2.212891c1.09518 11.144242-1.34819 10.198446 0 0z"/></g><path d="m59.558739 495.36292h325.784451v24.44911h-325.784451zm1.222458-52.56559h325.784453v24.44912h-325.784453zm-1.222447-48.89822h325.78445v24.44911h-325.78445zm363.06933-2.44492h325.78446v24.44912h-325.78446zm-4.8898-57.45544h325.78446v24.44911h-325.78446zm3.66739-56.23297h325.78445v24.44911h-325.78445zm-362.458164 3.66739h325.784454v24.44911h-325.784454zm-2.444908 56.23297h325.784452v24.44911h-325.784452zm363.069362-114.91088h325.78445v24.44912h-325.78445zm-359.707614 2.4449h325.784454v24.44912h-325.784454z" fill="#fff"/><path d="m-95.084746 677.69492 994.067796-8.64407" fill="none" stroke="#000"/><path d="m-95.084746 677.69492 994.067796-8.64407" fill="none" stroke="#000"/><path d="m61.853531 729.43646h325.784459v24.44912h-325.784459zm-3.457626-57.05084h325.784455v24.44912h-325.784455zm4.620468-55.21155h325.784457v24.44912h-325.784457z" fill="#fff"/></svg>