<svg viewBox="0 0 251.75339 327.40153" xmlns="http://www.w3.org/2000/svg"><g stroke-width=".96" transform="translate(-49.387114 -16.223719)"><path d="m87.23774 258.02982c28.89662 22.48425 56.43077 55.04815 89.2624 64.64018 56.80348-27.70008 92.77235-84.82388 111.3463-143.44673 6.05453-17.73266 9.31306-36.19701 13.24141-54.42908 2.08925 82.90004-58.32543 183.09782-122.52785 218.83105-33.5243-17.0464-71.91338-56.01964-91.32226-85.59542zm63.48226 13.72879c-21.96307-.93124-19.36801-30.95807-3.38354-38.27189-1.56493-11.88486-15.17181-24.28525-1.65982-34.03106 4.98287-16.85967 2.08454-35.95317-11.57138-47.43493-.65986-16.64217-14.79331-23.97406-29.97985-19.32093-18.610093 5.44593-31.483583-20.48617-15.378413-31.26216 5.686367-6.040117 20.862393-2.236283 20.803853-2.49383-12.654326-19.065778 27.30539-30.170616 22.99422-6.622251 1.54394 12.279551 23.62692 4.302113 9.7153-3.360049-17.24171-10.273217-4.77465-39.68918 14.82187-32.880258 16.14143 4.548961 16.6678 26.785463 2.21077 33.872085-10.79179 9.945619 16.35669 18.150213 1.65954 28.918663-13.2977 12.14535-21.3491-3.95345-24.19456-15.17142-6.0023-6.126792-16.94022.10375-22.68144.65592 2.16685 15.32732 17.76611 33.30469 33.84174 20.76341 21.06328-1.53413 24.77149 27.29208 9.32559 37.40039-5.22415 15.50751-5.11951 33.21743 5.55289 46.08259 5.96636 12.51277-14.01256 22.57267 1.07907 33.36737 13.80422 9.93465 2.39417 33.11009-13.15584 29.78835zm-34.08-30.56367c-18.762382-1.62094-10.02295-23.28196-3.24961-31.77223-4.55103-15.44801-24.401325-26.2346-15.327806-44.35576-10.181284.4849-25.78329 2.77286-24.254576-13.37305 3.571457-16.97381 28.419742-12.53606 27.015922 4.74994 9.29127 2.60589 23.59181-9.59637 34.07745 1.17515 16.58497 10.91666 10.5329 35.04528-5.75922 42.95668-18.2614 8.22276 12.58614 30.21747-6.13769 39.11096-1.91974 1.27895-4.15109 1.40623-6.36447 1.50831zm-32.919247-22.85838c-17.99432-11.70413 10.758468-36.3727 19.000297-15.851 3.94889 10.97524-8.743378 22.1855-19.000297 15.851zm-32.840753-174.916276c27.915557-17.708418 60.9364-27.190357 93.98217-27.196565.51126 5.681171-20.27502 6.303047-27.0329 11.888687-32.051529 14.398097-58.089536 43.530289-64.63495 78.551954-6.898857-7.916945-2.31432-51.662472-2.31432-63.244076z" fill="#255bfd"/><path d="m182.71565 270.40696c-11.29136-5.25379-13.29404-23.27226-2.74238-30.45893 7.97036-8.11381 18.03081-1.02843 26.18115.48766 9.82564-3.99301 8.49954-17.82488-2.90028-17.50141-7.05473.3327-15.86455 7.54334-21.66973-.93669-6.68083-6.75409-2.88319-20.13199 6.92977-21.20111 9.35151 1.18512 15.29947-9.30153 8.56088-16.33212-3.38484-10.55167.82931-23.77103 11.4203-28.3878 9.32045-5.00809 22.49999-3.30439 29.37635 5.11877 6.7073 6.21195 6.00322 15.74182 5.96829 24.08467 8.91481-1.18114 18.35192 4.38014 20.40587 13.40923 3.14557 9.65767-3.5534 21.47508-14.13478 21.83757-4.37365 2.57311-12.71457-3.79009-14.31039-.98475 5.12511 6.3567 3.54091 16.65848-3.81864 20.57085-7.9167 1.05318-17.8441-1.13849-22.57218 7.62897-.94524 9.52631-2.82248 22.27753-14.84722 23.58482-3.93037.59007-8.03926.18016-11.84701-.91973zm35.71314-52.094c4.98509-5.07972 19.97569 1.98976 12.02987-8.84368-.0806-6.82361-2.91943-10.96228-10.14344-8.76869-7.19096-1.01151-16.8434-3.26499-17.19699 7.43178-1.9789 7.14439 10.34168 15.79478 15.31056 10.18059zm31.45782-52.1941c-7.93617-4.32955-7.99918-17.42229.53562-21.19323 9.43643-6.61608 22.24192 6.06639 17.0988 15.8275-2.83456 6.59937-11.59426 9.44217-17.63442 5.36573zm-67.20058-6.99886c-8.70813-4.058-11.47891-15.6924-7.96858-24.01942 5.61621-10.97147 22.66577-12.77021 30.21795-2.99447 8.73024 9.73083 1.7875 26.80537-10.6982 28.87774-3.91634.76182-8.05889.0425-11.55117-1.86385zm55.22106-26.2968c-9.23946-1.42558-9.61079-14.2221-18.73966-14.95254-8.15106-3.45343-16.80573-2.56181-22.61882 4.43841-6.94561 2.35896-18.21383-.73632-17.97637-9.49288-3.16081-8.5069 9.404-14.091659 3.56097-21.982399-4.59468-6.102023-11.98812-12.509158-8.78601-21.075796 1.69592-12.111257 16.75153-18.740796 27.02582-12.571249 6.55532 4.619301 10.93151 13.304551 8.2674 21.258595 4.20393 5.25321 14.62245-5.094978 20.42674 2.031377 7.33043 5.27002 6.99879 18.598302-2.04055 21.933352-7.51719 4.70501-19.05233-1.18029-18.56009-10.308297-1.18241-1.923546 1.23003-12.11896-2.76973-7.093987-5.53416 3.516204-13.87877 10.407548-5.43281 16.115844 3.49913 9.6905 13.40703 10.85808 22.42829 10.10022 5.50421-2.30581 7.33173-9.27262 12.70465-12.458494 1.80844-2.967754 5.06106-1.494112 7.86357-1.404753 8.26361-.107391 16.10116 5.287707 18.15216 13.438857 2.934 7.56857-2.0549 17.30959-9.04701 20.66983-4.69899 1.90264-9.54642 4.10685-14.45855 1.35391z" fill="#fd2558"/></g></svg>