<svg viewBox="0 0 118.40039 118.40039" xmlns="http://www.w3.org/2000/svg"><g transform="translate(-.0005)"><g transform="translate(.0005)"><path d="m10.943359 92.142578c-.123071-.01227-.249927-.007302-.376953.017578-4.7580375.52737-.7551859 6.986512 1.41211 1.841797.516002-.843813-.173658-1.773459-1.035157-1.859375z" fill="#ffec8f"/><path d="m96.199219 86.080078c-3.453523 1.944152 1.868693 1.898442 0 0z" fill="#ffc744"/><path d="m68.560547 83.263672c-6.124949 1.327434-12.377023 1.797383-18.632813 1.529297 1.935047 3.184646 8.899531 1.771531 12.695313 1.611328 1.912365-.543527 5.735459-1.245781 5.9375-3.140625z" fill="#fca44b"/><path d="m76.773438 81.132812c-2.672037.184253-3.815556 4.011046-.365235 1.294922-.969911.173146 1.701909-1.235666.919922-1.279296-.190806-.023111-.376553-.027905-.554687-.015626z" fill="#ffc744"/><path d="m96.0625 78.222656c-3.544171 1.783496.940727 2.748861 0 0z" fill="#ffc744"/><path d="m83.748047 74.201172c-2.467819.872961-4.116134 6.40576-.560547 2.277344.478009-.532769 1.602495-1.716331.560547-2.277344z" fill="#ffc744"/><path d="m81.199219 71.984375c-4.097532 1.548129-4.500339 7.41768-9.269531 8.244141-1.874119 2.28056-3.707747 4.470057.441406 1.96875 3.635176-2.233064 10.362623-5.343223 8.828125-10.212891z" fill="#75a58b"/><path d="m21.423828 71.960938c-1.228538 2.179275 4.821279 5.737305 3.998047 7.84375.45446 3.561002 1.206222 4.920912 3.595703 4.794921 3.51332 2.579263-2.56647 1.24794 1.140625 4.664063 3.326935 1.494618 6.2232 8.463055 1.671875 9.988281-3.837669 5.532737 2.188351 13.455127 7.75 8.226567 2.717806-7.44751 11.338831.65243 16.783203-.33985-2.140586-2.94629-11.952024-2.08478-14.726562-6.74805-.611564-3.630374 6.641267-4.877992 3.642578-9.800776-.142843-3.104792-3.766239-4.828127-1.244141-5.824219-5.860198-.137884-9.922629-4.637258-14.27539-7.78125-2.036505-2.516102-5.196794-4.311155-8.335938-5.023437zm22.994141 6.121093c-2.878486 2.052874 6.126761 2.451142.703125.189453zm46.216797 23.164059c-4.252389 3.21969 3.566111 3.66185 0 0zm-19.121094 2.10547c-3.875376 2.52378 3.361735 4.90096.876953.42774l-.412109-.33789zm-12.560547 3.90235c-2.27144 1.89215 7.843321.78849 1.234375.05859z" fill="#fdb26e"/><path d="m102.08789 63.039062c-2.837231 1.899569-2.08218 10.467504.05469 3.679688.0987-1.118796.70312-2.718748-.05469-3.679688z" fill="#ffc744"/><path d="m105.11914 51.839844c-1.93572 1.615939 1.8805 1.599766 0 0z" fill="#ffc744"/><path d="m26.083984 38.414062c-2.112768 4.025257-5.874866 8.715665-7.693359 13.617188-.887432 5.200938-2.438578 15.272604 5.730469 14.548828 6.920031 2.575358 14.470802 6.071422 21.923828 3.376953 3.725493.483123 9.644842-1.653739 12.328125-1.298828 3.673524-.813582 7.533135.226947 11.585937-1.751953 5.739344-1.047082 11.147902-5.485531 12.013672-11.53125 1.280187-6.164213-1.537183-11.075989-5.771484-14.376953-3.915903.02122-8.898982-3.53314-11.050781-.242188-5.554695-1.001379-7.63406 8.208796-13.689453 6.064453-5.766478-1.706164-11.510952-3.353449-17.65625-3.570312-6.101047-2.530498-5.103096 6.97648-10.806641 7.373047.223539-4.377131 2.275535-8.805206 4.201172-11.583985-.322429-.442369-.628831-.478389-1.115235-.625z" fill="#ffc744"/><path d="m97.396484 35.199219c-1.040485 1.996095 3.124836 10.952299 4.363286 8.720703-.2422-3.242509-2.165104-6.588531-4.363286-8.720703z" fill="#a8f5fb"/><path d="m86.728516 32.716797c-1.933221 1.309149 1.914212 1.231669 0 0z" fill="#ffc744"/><path d="m48.208984 27.216797c-.131613-.02177-.276343-.022014-.433593.003906-4.693237 1.073401.923435 8.251186 1.503906 2.216797.154782-.849443-.149021-2.068306-1.070313-2.220703z" fill="#a6f3e1"/><path d="m20.166016 21.496094c-4.293962 1.711024 3.825622 4.871335.890625.396484l-.41211-.269531z" fill="#ffc744"/><path d="m84.712891 19.193359c-.08713-.01652-.16037-.01551-.216797.00586-.694543 1.727561 1.664614 3.14394-1.53711 2.044922 2.670424 4.200801 7.100518 7.387195 9.933594 11.476562 2.507918-1.720175-6.62176-9.010426-5.478516-9.650391 3.016029.58516-1.394208-3.629126-2.701171-3.876953zm28.929689 4.527344c-1.78347 3.075752 3.52534 1.3877 0 0zm-3.97461 1.876953c-4.28451-.159129-5.95702 8.989205-.32227 4.978516 1.4605-1.214756 1.3596-3.123792 1.21289-4.816406-.30746-.100007-.60499-.151501-.89062-.16211z" fill="#a8f5fb"/><path d="m104.59961 18.628906c-2.89113 1.464686 2.04365 2.287019 0 0z" fill="#ffc744"/><path d="m27.140625 12.503906c-4.252776 3.02107 3.767951 2.328605 0 0z" fill="#ffc744"/><path d="m43.857422 5.4394531c-2.385326.7673779 1.958839.7613073 0 0z" fill="#ffc744"/><path d="m37.259766 4.8007812c-1.156559.7020972 1.558015.6034224 0 0z" fill="#ffc744"/><path d="m24.070312 4.5234375c-3.131374 3.4917286 2.949679 2.9412391 0 0zm11.167969.0410156c-2.374683 1.7677608 2.67126 1.0701279 0 0z" fill="#ffc744"/><path d="m20.025391 0h-9.34375c2.508432.07223654 4.986275.31106213 7.345703 1.1894531.421769-.88584848 1.168838-1.11905294 1.998047-1.1894531z" fill="#ffc744"/><path d="m57.570312 0c9.300129-.00196052 18.600398.02387301 27.894532.265625 2.674006 3.522223 3.552468 1.3932574 3.185547-.265625z" fill="#ffc744"/><path d="m20.628906-.08398438c-.218306-.00579687-.397055.06645584-.603515.08398438h3.902343c-.99275.20008092-2.203733-.05490543-3.298828-.08398438z" fill="#ffc744"/></g><ellipse cx="38.931973" cy="56.410469" fill="#fdfbef" rx="4.130992" ry="3.455012"/><ellipse cx="67.648628" cy="52.855312" fill="#fdfbef" rx="6.960096" ry="6.559515"/><ellipse cx="67.448349" cy="62.419189" fill="#ffec8f" rx="3.955738" ry="1.802615"/><ellipse cx="35.451927" cy="49.700737" fill="#fff0a9" rx="3.955738" ry="1.802615"/><path d="m32.54882 26.401517c-6.142124 1.373056-11.990106 3.642912-17.489837 6.638467.223548-3.969657 7.1617-5.625362 10.652544-7.126192 1.979215-.302076 5.752857-1.283037 6.837293.487725z" fill="#ebd3e1"/><path d="m65.298471 30.246288c-4.888974-2.173676-16.327879-1.280806-12.626261-4.141434 28.599838-5.478042 33.600493 12.244542 12.626261 4.141434z" fill="#6bdef3"/><path d="m55.144955 98.341502c-6.621618-1.134092 8.804418-4.756654 13.81788-6.249155 14.709935-7.984281 17.935523-7.298739 22.557117-12.506439-5.970123 14.046706-27.417646 19.649141-36.374997 18.755594z" fill="#a4dde4"/><path d="m9.3109 62.612132c-.1230713-.021862-.249927-.013008-.376953.031325-4.7580372.939638-.7551863 12.448196 1.41211 3.281614.516002-1.503461-.173658-3.159853-1.035157-3.312934z" fill="#fe4b17"/></g></svg>