<svg height="209.98991mm" viewBox="0 0 279.98984 209.98991" width="279.98984mm" xmlns="http://www.w3.org/2000/svg" xmlns:xlink="http://www.w3.org/1999/xlink"><clipPath id="a"><path clip-rule="evenodd" d="m0 .028h793.672v595.247h-793.672z"/></clipPath><g transform="translate(192.91159 39.316387)"><g clip-path="url(#a)" transform="matrix(.35277777 0 0 -.35277777 -192.91159 170.6834)"><path d="m0 595.275h793.672v-595.247h-793.672z" fill="#fff" fill-rule="evenodd"/><g font-family="Liberation Sans" font-size="39.997002"><text transform="matrix(1 0 0 -1 36.595 130.081)"><tspan x="0 11.159163 22.238333 33.397495 54.075943 74.154434 107.35195 129.55028 151.74861 162.90778 189.50578 202.78479 224.98312 247.18146 267.25995 278.33911 309.41678 331.61511 340.49445 362.69281 382.69128 391.57062 413.76895 433.76746" y="0">I/ Lyman Break Galaxies</tspan></text><text transform="matrix(1 0 0 -1 36.595 85.464)"><tspan x="0 11.159163 22.238333 33.397495 44.476665 77.754166 99.952499 122.15084 144.34917 153.14851 173.22701" y="0">II/ Models</tspan></text><text transform="matrix(1 0 0 -1 36.595 40.762)"><tspan x="0 11.159163 22.238333 33.397495 44.476665 55.635826 66.714996 88.91333 100.07249 113.3515 135.54984 148.90883 162.18784 184.38617 206.5845 217.66368 231.02267 253.22101 275.29935 297.49768 317.57617 328.73535 337.53467 359.73303" y="0">III/ Infra-red reduction</tspan></text></g><path d="m396.935 329.158h-396.963v252.256h793.899v-252.256z" fill="#e6e6ff" fill-rule="evenodd"/><path d="m396.935 329.158h-396.963v252.256h793.899v-252.256z" fill="none" stroke="#808080" stroke-linejoin="round" stroke-miterlimit="10" stroke-width="1.44564"/></g><text fill="#f00" font-family="Liberation Sans" font-size="36" transform="matrix(.35277777 0 0 .35277777 -112.001436 69.68438)"><tspan x="0 23.976 44.028 64.043999 76.031998 94.031998 114.084 122.076 142.092 162.144 172.04401 182.01601 202.032 214.02 223.992 241.992 262.98001 282.996 292.96799 312.98401 333.03601 341.02802 361.07999 379.07999 387.07199 407.08801 425.08801" y="0">Searching for z=6 galaxies</tspan></text><text fill="#f00" font-family="Liberation Sans" font-size="12.7" stroke-width=".352778" x="-116.309" y="83.194"><tspan stroke-width=".352778" x="-116.309 -112.7911 -105.7299 -101.4754 -94.414192 -87.352989 -80.279091 -73.217888 -69.700005 -62.638798 -58.409687 -51.348499 -44.998493 -42.15369 -38.66119 -31.587284 -28.069393 -25.249989 -18.188786 -11.114888 -4.053685 -1.208882 2.283611 5.128406 12.189601 19.250805 25.600807 32.674713" y="83.194">through gravitational lenses</tspan></text><g fill="none" stroke-width="3"><path d="m-60.880444-24.43323 125.616674 47.039436-124.013056 20.312485" stroke="#16aafe"/><path d="m-60.880444-24.43323-110.346416 40.587203 111.950034 26.764718" stroke="#fe16e6"/></g></g><g fill="none" stroke="#000"><path d="m131.8295 30.248505c7.93794 3.136933-9.09401 7.976524-4.78425-1.542446 3.45378-13.93733 18.4811 3.028625 8.7743 10.589439-11.92707 7.829746-15.26662-13.538215-8.91428-20.275635 8.33724-11.6745081 15.14136 4.489741 14.04863 12.256495" stroke-width="1.058333"/><path d="m116.38113 51.820034c-7.64579 2.73224 11.85769 2.255001 3.38511-3.075481-14.27763-4.372727-9.48748 14.371476 2.69728 6.957203 8.67085-6.610509-.35206-9.751231-6.62901-9.14905" stroke-width="1.504492"/><path d="m141.88518 60.087072c6.777.703191-6.55846 9.707974-4.44327-.513832 1.22404-12.376181 17.53966-1.352899 9.31709 7.035166-10.54584 10.623328-18.69242-12.526906-8.19385-17.943436 14.30532-4.988355 16.43061 18.187304 7.67954 25.070954-4.27704 5.058831-10.87542 1.660197-12.87122-3.63135" stroke-width="1.322917"/><path d="m151.40782 33.709741c-7.64578 2.732251 11.8577 2.254985 3.3851-3.075488-14.27766-4.372675-9.48737 14.371475 2.69735 6.957224 8.67089-6.610475-.35199-9.751253-6.62896-9.149064" stroke-width="1.504492"/></g></svg>