<?xml version="1.0" encoding="UTF-8" standalone="no"?>
<svg xmlns="http://www.w3.org/2000/svg" xmlns:sodipodi="http://sodipodi.sourceforge.net/DTD/sodipodi-0.dtd" xmlns:inkscape="http://www.inkscape.org/namespaces/inkscape" version="1.1" viewBox="0 0 118.40039 118.40039">
<g id="g93" transform="translate(-5e-4)"> <path style="fill:#ffec8f;fill-opacity:1;stroke:none;stroke-width:0.31999999;stroke-opacity:1" d="M 10.943359 92.142578 C 10.820288 92.130308 10.693432 92.135276 10.566406 92.160156 C 5.8083685 92.687526 9.8112201 99.146668 11.978516 94.001953 C 12.494518 93.15814 11.804858 92.228494 10.943359 92.142578 z " id="path960" transform="translate(5e-4)" /> <path style="fill:#ffc744;fill-opacity:1;stroke:none;stroke-width:0.31999999;stroke-opacity:1" d="M 96.199219 86.080078 C 92.745696 88.02423 98.067912 87.97852 96.199219 86.080078 z " id="path958" transform="translate(5e-4)" /> <path style="fill:#fca44b;fill-opacity:1;stroke:none;stroke-width:0.31999999;stroke-opacity:1" d="M 68.560547 83.263672 C 62.435598 84.591106 56.183524 85.061055 49.927734 84.792969 C 51.862781 87.977615 58.827265 86.5645 62.623047 86.404297 C 64.535412 85.86077 68.358506 85.158516 68.560547 83.263672 z " id="path956" transform="translate(5e-4)" /> <path style="fill:#ffc744;fill-opacity:1;stroke:none;stroke-width:0.31999999;stroke-opacity:1" d="M 76.773438 81.132812 C 74.101401 81.317065 72.957882 85.143858 76.408203 82.427734 C 75.438292 82.60088 78.110112 81.192068 77.328125 81.148438 C 77.137319 81.125327 76.951572 81.120533 76.773438 81.132812 z " id="path954" transform="translate(5e-4)" /> <path style="fill:#ffc744;fill-opacity:1;stroke:none;stroke-width:0.31999999;stroke-opacity:1" d="M 96.0625 78.222656 C 92.518329 80.006152 97.003227 80.971517 96.0625 78.222656 z " id="path952" transform="translate(5e-4)" /> <path style="fill:#ffc744;fill-opacity:1;stroke:none;stroke-width:0.31999999;stroke-opacity:1" d="M 83.748047 74.201172 C 81.280228 75.074133 79.631913 80.606932 83.1875 76.478516 C 83.665509 75.945747 84.789995 74.762185 83.748047 74.201172 z " id="path950" transform="translate(5e-4)" /> <path style="fill:#75a58b;fill-opacity:1;stroke:none;stroke-width:0.31999999;stroke-opacity:1" d="M 81.199219 71.984375 C 77.101687 73.532504 76.69888 79.402055 71.929688 80.228516 C 70.055569 82.509076 68.221941 84.698573 72.371094 82.197266 C 76.00627 79.964202 82.733717 76.854043 81.199219 71.984375 z " id="path948" transform="translate(5e-4)" /> <path style="fill:#fdb26e;fill-opacity:1;stroke:none;stroke-width:0.31999999;stroke-opacity:1" d="M 21.423828 71.960938 C 20.19529 74.140213 26.245107 77.698243 25.421875 79.804688 C 25.876335 83.36569 26.628097 84.7256 29.017578 84.599609 C 32.530898 87.178872 26.451108 85.847549 30.158203 89.263672 C 33.485138 90.75829 36.381403 97.726727 31.830078 99.251953 C 27.992409 104.78469 34.018429 112.70708 39.580078 107.47852 C 42.297884 100.03101 50.918909 108.13095 56.363281 107.13867 C 54.222695 104.19238 44.411257 105.05389 41.636719 100.39062 C 41.025155 96.760246 48.277986 95.512628 45.279297 90.589844 C 45.136454 87.485052 41.513058 85.761717 44.035156 84.765625 C 38.174958 84.627741 34.112527 80.128367 29.759766 76.984375 C 27.723261 74.468273 24.562972 72.67322 21.423828 71.960938 z M 44.417969 78.082031 C 41.539483 80.134905 50.54473 80.533173 45.121094 78.271484 L 44.417969 78.082031 z M 90.634766 101.24609 C 86.382377 104.46578 94.200877 104.90794 90.634766 101.24609 z M 71.513672 103.35156 C 67.638296 105.87534 74.875407 108.25252 72.390625 103.7793 L 71.978516 103.44141 L 71.513672 103.35156 z M 58.953125 107.25391 C 56.681685 109.14606 66.796446 108.0424 60.1875 107.3125 L 58.953125 107.25391 z " id="path946" transform="translate(5e-4)" /> <path style="fill:#ffc744;fill-opacity:1;stroke:none;stroke-width:0.31999999;stroke-opacity:1" d="M 102.08789 63.039062 C 99.250659 64.938631 100.00571 73.506566 102.14258 66.71875 C 102.24128 65.599954 102.8457 64.000002 102.08789 63.039062 z " id="path944" transform="translate(5e-4)" /> <path style="fill:#ffc744;fill-opacity:1;stroke:none;stroke-width:0.31999999;stroke-opacity:1" d="M 105.11914 51.839844 C 103.18342 53.455783 106.99964 53.43961 105.11914 51.839844 z " id="path942" transform="translate(5e-4)" /> <path style="fill:#ffc744;fill-opacity:1;stroke:none;stroke-width:0.31999999;stroke-opacity:1" d="m 26.083984,38.414062 c -2.112768,4.025257 -5.874866,8.715665 -7.693359,13.617188 -0.887432,5.200938 -2.438578,15.272604 5.730469,14.548828 6.920031,2.575358 14.470802,6.071422 21.923828,3.376953 3.725493,0.483123 9.644842,-1.653739 12.328125,-1.298828 3.673524,-0.813582 7.533135,0.226947 11.585937,-1.751953 C 75.698328,65.859168 81.106886,61.420719 81.972656,55.375 83.252843,49.210787 80.435473,44.299011 76.201172,40.998047 72.285269,41.019267 67.30219,37.464907 65.150391,40.755859 59.595696,39.75448 57.516331,48.964655 51.460938,46.820312 45.69446,45.114148 39.949986,43.466863 33.804688,43.25 c -6.101047,-2.530498 -5.103096,6.97648 -10.806641,7.373047 0.223539,-4.377131 2.275535,-8.805206 4.201172,-11.583985 -0.322429,-0.442369 -0.628831,-0.478389 -1.115235,-0.625 z" id="path940" transform="translate(5e-4)" inkscape:connector-curvature="0" sodipodi:nodetypes="cccccccccccccc" /> <path style="fill:#a8f5fb;fill-opacity:1;stroke:none;stroke-width:0.31999999;stroke-opacity:1" d="M 97.396484 35.199219 C 96.355999 37.195314 100.52132 46.151518 101.75977 43.919922 C 101.51757 40.677413 99.594666 37.331391 97.396484 35.199219 z " id="path938" transform="translate(5e-4)" /> <path style="fill:#ffc744;fill-opacity:1;stroke:none;stroke-width:0.31999999;stroke-opacity:1" d="M 86.728516 32.716797 C 84.795295 34.025946 88.642728 33.948466 86.728516 32.716797 z " id="path936" transform="translate(5e-4)" /> <path style="fill:#a6f3e1;fill-opacity:1;stroke:none;stroke-width:0.31999999;stroke-opacity:1" d="M 48.208984 27.216797 C 48.077371 27.195027 47.932641 27.194783 47.775391 27.220703 C 43.082154 28.294104 48.698826 35.471889 49.279297 29.4375 C 49.434079 28.588057 49.130276 27.369194 48.208984 27.216797 z " id="path934" transform="translate(5e-4)" /> <path style="fill:#ffc744;fill-opacity:1;stroke:none;stroke-width:0.31999999;stroke-opacity:1" d="M 20.166016 21.496094 C 15.872054 23.207118 23.991638 26.367429 21.056641 21.892578 L 20.644531 21.623047 L 20.166016 21.496094 z " id="path932" transform="translate(5e-4)" /> <path style="fill:#a8f5fb;fill-opacity:1;stroke:none;stroke-width:0.31999999;stroke-opacity:1" d="M 84.712891 19.193359 C 84.625761 19.176839 84.552521 19.177849 84.496094 19.199219 C 83.801551 20.92678 86.160708 22.343159 82.958984 21.244141 C 85.629408 25.444942 90.059502 28.631336 92.892578 32.720703 C 95.400496 31.000528 86.270818 23.710277 87.414062 23.070312 C 90.430091 23.655472 86.019854 19.441186 84.712891 19.193359 z M 113.64258 23.720703 C 111.85911 26.796455 117.16792 25.108403 113.64258 23.720703 z M 109.66797 25.597656 C 105.38346 25.438527 103.71095 34.586861 109.3457 30.576172 C 110.8062 29.361416 110.7053 27.45238 110.55859 25.759766 C 110.25113 25.659759 109.9536 25.608265 109.66797 25.597656 z " id="path930" transform="translate(5e-4)" /> <path style="fill:#ffc744;fill-opacity:1;stroke:none;stroke-width:0.31999999;stroke-opacity:1" d="M 104.59961 18.628906 C 101.70848 20.093592 106.64326 20.915925 104.59961 18.628906 z " id="path928" transform="translate(5e-4)" /> <path style="fill:#ffc744;fill-opacity:1;stroke:none;stroke-width:0.31999999;stroke-opacity:1" d="M 27.140625 12.503906 C 22.887849 15.524976 30.908576 14.832511 27.140625 12.503906 z " id="path926" transform="translate(5e-4)" /> <path style="fill:#ffc744;fill-opacity:1;stroke:none;stroke-width:0.31999999;stroke-opacity:1" d="M 43.857422 5.4394531 C 41.472096 6.206831 45.816261 6.2007604 43.857422 5.4394531 z " id="path924" transform="translate(5e-4)" /> <path style="fill:#ffc744;fill-opacity:1;stroke:none;stroke-width:0.31999999;stroke-opacity:1" d="M 37.259766 4.8007812 C 36.103207 5.5028784 38.817781 5.4042036 37.259766 4.8007812 z " id="path922" transform="translate(5e-4)" /> <path style="fill:#ffc744;fill-opacity:1;stroke:none;stroke-width:0.31999999;stroke-opacity:1" d="M 24.070312 4.5234375 C 20.938938 8.0151661 27.019991 7.4646766 24.070312 4.5234375 z M 35.238281 4.5644531 C 32.863598 6.3322139 37.909541 5.634581 35.238281 4.5644531 z " id="path920" transform="translate(5e-4)" /> <path style="fill:#ffc744;fill-opacity:1;stroke:none;stroke-width:0.31999999;stroke-opacity:1" d="M 20.025391 0 L 10.681641 0 C 13.190073 0.072236542 15.667916 0.31106213 18.027344 1.1894531 C 18.449113 0.30360462 19.196182 0.070400159 20.025391 0 z " id="path918" transform="translate(5e-4)" /> <path style="fill:#ffc744;fill-opacity:1;stroke:none;stroke-width:0.31999999;stroke-opacity:1" d="M 57.570312 0 C 66.870441 -0.0019605182 76.17071 0.02387301 85.464844 0.265625 C 88.13885 3.787848 89.017312 1.6588824 88.650391 0 L 57.570312 0 z " id="path916" transform="translate(5e-4)" /> <path style="fill:#ffc744;fill-opacity:1;stroke:none;stroke-width:0.31999999;stroke-opacity:1" d="M 20.628906 -0.083984375 C 20.4106 -0.089781251 20.231851 -0.017528542 20.025391 0 L 23.927734 0 C 22.934984 0.20008092 21.724001 -0.054905425 20.628906 -0.083984375 z " id="path95" transform="translate(5e-4)" /> <ellipse style="fill:#fdfbef;fill-opacity:1;stroke:none;stroke-opacity:1" id="path975" cx="38.931973" cy="56.410469" rx="4.1309924" ry="3.4550118" /> <ellipse style="fill:#fdfbef;fill-opacity:1;stroke:none;stroke-opacity:1" id="path977" cx="67.648628" cy="52.855312" rx="6.9600964" ry="6.559515" /> <ellipse style="fill:#ffec8f;fill-opacity:1;stroke:none;stroke-width:2.97191834;stroke-opacity:1" id="path979" cx="67.448349" cy="62.419189" rx="3.9557381" ry="1.8026148" /> <ellipse style="fill:#fff0a9;fill-opacity:1;stroke:none;stroke-width:2.97191834;stroke-opacity:1" id="path979-3" cx="35.451927" cy="49.700737" rx="3.9557381" ry="1.8026148" /> <path inkscape:connector-curvature="0" style="fill:#ebd3e1;fill-opacity:1;stroke:none;stroke-width:0.33418724;stroke-opacity:1" d="m 32.54882,26.401517 c -6.142124,1.373056 -11.990106,3.642912 -17.489837,6.638467 0.223548,-3.969657 7.1617,-5.625362 10.652544,-7.126192 1.979215,-0.302076 5.752857,-1.283037 6.837293,0.487725 z" id="path956-6" /> <path style="fill:#6bdef3;fill-opacity:1;stroke:none;stroke-opacity:1" d="M 65.298471,30.246288 C 60.409497,28.072612 48.970592,28.965482 52.67221,26.104854 81.272048,20.626812 86.272703,38.349396 65.298471,30.246288 Z" id="path1032" inkscape:connector-curvature="0" sodipodi:nodetypes="ccc" /> <path style="fill:#a4dde4;fill-opacity:1;stroke:none;stroke-width:1.36412084;stroke-opacity:1" d="M 55.144955,98.341502 C 48.523337,97.20741 63.949373,93.584848 68.962835,92.092347 83.67277,84.108066 86.898358,84.793608 91.519952,79.585908 85.549829,93.632614 64.102306,99.235049 55.144955,98.341502 Z" id="path1039" inkscape:connector-curvature="0" sodipodi:nodetypes="cccc" /> <path inkscape:connector-curvature="0" style="fill:#fe4b17;fill-opacity:1;stroke:none;stroke-width:0.42714256;stroke-opacity:1" d="M 9.3109,62.612132 C 9.1878287,62.59027 9.060973,62.599124 8.933947,62.643457 4.1759098,63.583095 8.1787607,75.091653 10.346057,65.925071 10.862059,64.42161 10.172399,62.765218 9.3109,62.612137 Z" id="path960-5" /> </g>
</svg>
