<svg viewBox="0 0 128 128" xmlns="http://www.w3.org/2000/svg"><g transform="translate(0 -169)"><path d="m65.952921 219.99504a22.300594 22.300594 0 0 1 -26.864838 15.8839 22.300594 22.300594 0 0 1 -16.437301-26.52985 22.300594 22.300594 0 0 1 26.183466-16.98364 22.300594 22.300594 0 0 1 17.522678 25.82584" fill="#f276a0"/><path d="m104.31469 236.8103a11.150297 11.150297 0 0 1 -13.432414 7.94195 11.150297 11.150297 0 0 1 -8.218651-13.26492 11.150297 11.150297 0 0 1 13.091733-8.49182 11.150297 11.150297 0 0 1 8.761342 12.91292" fill="#69eeff"/><path d="m36.428237 259.26094a11.150297 11.150297 0 0 1 -13.432419 7.94195 11.150297 11.150297 0 0 1 -8.218651-13.26492 11.150297 11.150297 0 0 1 13.091733-8.49182 11.150297 11.150297 0 0 1 8.76134 12.91291" fill="#69eeff"/><path d="m-7.216277 276.68753h138.71289v20.579754h-138.71289z" fill="#b67c66"/></g></svg>