<?xml version="1.0" encoding="UTF-8" standalone="no"?>
<svg xmlns="http://www.w3.org/2000/svg" xmlns:sodipodi="http://sodipodi.sourceforge.net/DTD/sodipodi-0.dtd" xmlns:inkscape="http://www.inkscape.org/namespaces/inkscape" viewBox="0 0 128 128" version="1.1" inkscape:version="0.92.4 (5da689c313, 2019-01-14)" sodipodi:docname="keep_your_ball.svg">
<g inkscape:label="Layer 1" inkscape:groupmode="layer" id="layer1" transform="translate(0,-169)"> <path style="fill:#f276a0;fill-opacity:1;stroke:none;stroke-width:0.36730391;stroke-opacity:1" id="path1373" sodipodi:type="arc" sodipodi:cx="44.412201" sodipodi:cy="214.22322" sodipodi:rx="22.300594" sodipodi:ry="22.300594" sodipodi:start="0.26179939" sodipodi:end="0.17888795" d="m 65.952921,219.99504 a 22.300594,22.300594 0 0 1 -26.864838,15.8839 22.300594,22.300594 0 0 1 -16.437301,-26.52985 22.300594,22.300594 0 0 1 26.183466,-16.98364 22.300594,22.300594 0 0 1 17.522678,25.82584" sodipodi:open="true" /> <path style="fill:#69eeff;fill-opacity:1;stroke:none;stroke-width:0.18365195;stroke-opacity:1" id="path1373-3" sodipodi:type="arc" sodipodi:cx="93.544334" sodipodi:cy="233.92439" sodipodi:rx="11.150297" sodipodi:ry="11.150297" sodipodi:start="0.26179939" sodipodi:end="0.17888795" d="m 104.31469,236.8103 a 11.150297,11.150297 0 0 1 -13.432414,7.94195 11.150297,11.150297 0 0 1 -8.218651,-13.26492 11.150297,11.150297 0 0 1 13.091733,-8.49182 11.150297,11.150297 0 0 1 8.761342,12.91292" sodipodi:open="true" inkscape:transform-center-x="15.501633" inkscape:transform-center-y="-22.717913" /> <path style="fill:#69eeff;fill-opacity:1;stroke:none;stroke-width:0.18365195;stroke-opacity:1" id="path1373-3-6" sodipodi:type="arc" sodipodi:cx="25.657877" sodipodi:cy="256.37503" sodipodi:rx="11.150297" sodipodi:ry="11.150297" sodipodi:start="0.26179939" sodipodi:end="0.17888795" d="m 36.428237,259.26094 a 11.150297,11.150297 0 0 1 -13.432419,7.94195 11.150297,11.150297 0 0 1 -8.218651,-13.26492 11.150297,11.150297 0 0 1 13.091733,-8.49182 11.150297,11.150297 0 0 1 8.76134,12.91291" sodipodi:open="true" inkscape:transform-center-x="15.501633" inkscape:transform-center-y="-22.717913" /> <rect style="fill:#b67c66;fill-opacity:1;stroke:none;stroke-width:0.28266409;stroke-opacity:1" id="rect5142" width="138.71289" height="20.579754" x="-7.2162771" y="276.68753" /> </g>
</svg>
