<?xml version="1.0" encoding="UTF-8" standalone="no"?>
<svg xmlns="http://www.w3.org/2000/svg" xmlns:sodipodi="a" xmlns:inkscape="a" viewBox="0 0 55.562469 27.85841" version="1.1">
<g inkscape:label="Layer 1" inkscape:groupmode="layer" id="layer1" transform="translate(-102.80954,-70.137164)"> <g id="g837" transform="matrix(0.26458333,0,0,0.26458333,78.997038,84.766407)"> <path style="display:inline;fill:#f08f8c;fill-opacity:1;stroke:none" id="rect3030-3" d="M 104.02523,1.064e-5 C 96.288603,1.064e-5 90.001343,6.9403116 90.001343,15.5 c 0,0.1068 -0.001,0.2081 0,0.3125 2.1e-4,0.021 -5e-4,0.041 0,0.062 v 18.25 c -0.003,0.1274 0,0.2468 0,0.375 0,8.5596 6.28726,15.5 14.023887,15.5 h 9.90113 1.15565 12.83711 1.15565 9.90113 c 7.73674,0 14.024,-6.9404 14.024,-15.5 0,-8.5597 -6.28726,-15.5 -14.024,-15.5 h -5.62209 -2.24884 -11.11925 v 11 h 11.11925 2.24884 1.65539 c 2.19557,0 3.9667,1.8012 3.9667,4 0,2.1988 -1.77113,3.9687 -3.9667,3.9687 h -3.90423 -2.0302 -1.15565 -12.83711 -1.15565 -2.0302 -3.90424 c -2.15389,0 -3.90122,-1.7031 -3.96669,-3.8437 v -18.25 -0.062 c 0.0976,-2.1109 1.83403,-3.7813 3.96669,-3.7813 h 3.90424 2.0302 6.05936 v 0.031 H 150.9697 V -2.8936e-4 h -23.05058 -7.9334 -6.05936 -9.90113 z" inkscape:connector-curvature="0" /> <path style="display:inline;fill:#f08f8c;fill-opacity:1;stroke:none" id="rect3030-3-4-2" d="M 159.9999,-8.936e-5 V 12.0549 h 25.34216 8.71621 5.1801 2.0162 3.87732 c 2.11797,0 3.84248,1.6693 3.93936,3.7789 v 0.062 18.2386 c -0.065,2.1393 -1.80031,3.8413 -3.93936,3.8413 h -3.87732 -2.0162 -8.90233 -4.99398 -11.44585 V 19.0188 H 159.9999 v 18.9569 8.2137 3.8101 h 25.34216 4.99398 8.90233 9.83288 c 7.68341,0 13.92733,-6.936 13.92733,-15.4903 0,-0.1281 0.003,-0.2474 0,-0.3748 V 15.8958 c 4.9e-4,-0.021 -2.1e-4,-0.042 0,-0.062 9.9e-4,-0.1043 0,-0.2055 0,-0.3123 0,-8.5542884 -6.24392,-15.49028939 -13.92733,-15.49028939 h -9.83288 -5.1801 v -0.031 H 159.9999 Z" inkscape:connector-curvature="0" /> <path style="display:inline;fill:#f08f8c;fill-opacity:1;stroke:none" id="path4169" d="M 222.99599,1.064e-5 H 242.4374 L 261.4999,19.0625 280.5624,1.064e-5 h 19.4375 L 274.9999,25 l 25,25 H 280.5624 L 261.4999,30.9375 242.4374,50 h -19.4375 l 24.99609,-25 z" inkscape:connector-curvature="0" /> <g id="g867" transform="translate(33.101608,-30.373212)"> <g id="g873"> <rect style="display:inline;fill:#ececec;fill-opacity:1;stroke:none" id="rect3018" y="-24.918415" x="56.923546" height="50" width="14.000075" /> <rect style="display:inline;fill:#ececec;fill-opacity:1;stroke:none" id="rect3026" y="-5.9184451" x="79.923546" height="31" width="14.000086" /> <rect style="display:inline;fill:#ececec;fill-opacity:1;stroke:none" id="rect3028" y="-24.918415" x="79.923546" height="12" width="14.000086" /> <path style="display:inline;fill:#ececec;fill-opacity:1;stroke:none" id="rect3030" d="m 102.92354,-24.918391 v 18.9999901 11 7.9686999 12.0313 h 14.02306 9.92257 c 7.7535,0 14.05438,-6.9404 14.05438,-15.4999999 0,-8.5597 -6.30088,-15.5 -14.05438,-15.5 H 116.9466 V -24.918391 Z M 116.9466,5.0815991 h 5.94729 c 2.20031,0 3.97528,1.8012 3.97528,4 0,2.1987999 -1.77497,3.9686999 -3.97528,3.9686999 h -5.94729 z" inkscape:connector-curvature="0"/></g></g></g></g>
</svg>
