<svg viewBox="0 0 55.562469 27.85841" xmlns="http://www.w3.org/2000/svg"><g transform="matrix(.26458333 0 0 .26458333 -23.812502 14.629243)"><g fill="#f08f8c"><path d="m104.02523.00001064c-7.736627 0-14.023887 6.94030096-14.023887 15.49998936 0 .1068-.001.2081 0 .3125.00021.021-.0005.041 0 .062v18.25c-.003.1274 0 .2468 0 .375 0 8.5596 6.28726 15.5 14.023887 15.5h9.90113 1.15565 12.83711 1.15565 9.90113c7.73674 0 14.024-6.9404 14.024-15.5 0-8.5597-6.28726-15.5-14.024-15.5h-5.62209-2.24884-11.11925v11h11.11925 2.24884 1.65539c2.19557 0 3.9667 1.8012 3.9667 4s-1.77113 3.9687-3.9667 3.9687h-3.90423-2.0302-1.15565-12.83711-1.15565-2.0302-3.90424c-2.15389 0-3.90122-1.7031-3.96669-3.8437v-18.25-.062c.0976-2.1109 1.83403-3.7813 3.96669-3.7813h3.90424 2.0302 6.05936v.031h30.98398v-12.06248936h-23.05058-7.9334-6.05936-9.90113z"/><path d="m159.9999-.00008936v12.05498936h25.34216 8.71621 5.1801 2.0162 3.87732c2.11797 0 3.84248 1.6693 3.93936 3.7789v.062 18.2386c-.065 2.1393-1.80031 3.8413-3.93936 3.8413h-3.87732-2.0162-8.90233-4.99398-11.44585v-18.9569h-13.89631v18.9569 8.2137 3.8101h25.34216 4.99398 8.90233 9.83288c7.68341 0 13.92733-6.936 13.92733-15.4903 0-.1281.003-.2474 0-.3748v-18.2386c.00049-.021-.00021-.042 0-.062.00099-.1043 0-.2055 0-.3123 0-8.5542884-6.24392-15.49028939-13.92733-15.49028939h-9.83288-5.1801v-.031h-34.05837z"/><path d="m222.99599.00001064h19.44141l19.0625 19.06248936 19.0625-19.06248936h19.4375l-25 24.99998936 25 25h-19.4375l-19.0625-19.0625-19.0625 19.0625h-19.4375l24.99609-25z"/></g><g fill="#ececec" transform="translate(33.101608 -30.373212)"><path d="m56.923546-24.918415h14.000075v50h-14.000075z"/><path d="m79.923546-5.918445h14.000086v31h-14.000086z"/><path d="m79.923546-24.918415h14.000086v12h-14.000086z"/><path d="m102.92354-24.918391v18.9999901 11 7.9686999 12.0313h14.02306 9.92257c7.7535 0 14.05438-6.9404 14.05438-15.4999999 0-8.5597-6.30088-15.5-14.05438-15.5h-9.92257v-18.9999901zm14.02306 29.9999901h5.94729c2.20031 0 3.97528 1.8012 3.97528 4 0 2.1987999-1.77497 3.9686999-3.97528 3.9686999h-5.94729z"/></g></g></svg>