<?xml version="1.0" encoding="UTF-8" standalone="no"?>
<svg xmlns="http://www.w3.org/2000/svg" xmlns:sodipodi="http://sodipodi.sourceforge.net/DTD/sodipodi-0.dtd" xmlns:inkscape="http://www.inkscape.org/namespaces/inkscape" version="1.1" viewBox="0 0 512 512" sodipodi:docname="pizza.svg" inkscape:version="0.92.4 (5da689c313, 2019-01-14)">
<path style="fill:#F6A230;" d="M156.663,290.735l99.217,203.89L448.613,98.557c-128.49-45.303-266.385-41.985-385.468,0  l84.644,173.941" id="path1004" /> <path style="fill:#C66500;" d="M475.801,43.154c-13.591-3.706-29.279-0.727-42.828-4.481c-14.487-4.015-27.1-15.875-41.835-18.889  c-14.71-3.008-30.968,2.944-45.892,0.938c-14.863-1.996-28.968-12.035-44.013-13.036c-14.946-0.99-30.26,7.09-45.353,7.09h0.211  c-15.093,0-30.407-8.081-45.353-7.09c-15.045,1.001-29.15,11.04-44.013,13.036c-14.924,2.006-31.183-3.945-45.892-0.938  c-14.736,3.014-27.348,14.873-41.836,18.889c-13.547,3.754-29.237,0.774-42.827,4.481l26.965,55.409l0.011-0.008  c119.084-41.985,256.978-45.303,385.468,0L475.801,43.154z" id="path1006" /> <g id="g1012"> <circle style="fill:#D53349;" cx="186.444" cy="153.661" r="46.631" id="circle1008" /> <circle style="fill:#D53349;" cx="255.874" cy="323.866" r="35.432" id="circle1010" /> </g> <path style="fill:#FFE285;" d="M286.552,179.256l-19.005,19.004c-9.793,9.794-9.793,25.673,0,35.466  c5.468,5.467,14.333,5.467,19.801-0.001l5.115-5.116l19.359,19.358l24.436-24.438L316.9,204.174l5.116-5.117  c5.468-5.467,5.469-14.332,0-19.8C312.223,169.463,296.345,169.463,286.552,179.256z" id="path1014" /> <g id="g1026"> <path style="fill:#53180F;" d="M324.836,93.529c-24.842-3.211-48.617-4.909-68.755-4.909v15.206   c19.497,0,42.598,1.654,66.805,4.785L324.836,93.529z" id="path1016" /> <path style="fill:#53180f" d="M 486.682,38.242 C 459.6521,30.618742 428.70381,36.756966 405.95993,16.51075 380.50149,4.5684707 351.7307,20.485199 326.69486,7.0661465 299.87095,-10.024653 272.30868,11.727246 244.33175,5.1512119 216.57165,-5.42343 189.74523,4.994579 163.28067,13.374303 134.59219,8.1323181 105.82502,12.919624 81.05273,29.454228 65.656807,37.934833 32.888295,27.679252 27.124989,41.947251 65.071765,119.90451 103.01863,197.86173 140.951,275.826 170.1243,267.75414 133.14565,238.57151 131.23707,221.11114 112.07205,181.72642 92.907023,142.34171 73.742,102.957 181.7461,66.663879 300.65378,63.763327 410.35369,94.438406 c 9.29191,2.59827 18.51775,5.437431 27.66531,8.517594 -8.46125,25.86226 -38.39414,-1.301 -56.89514,0.50648 -11.41636,-7.229093 -53.30059,-8.657714 -31.1616,9.63506 23.18402,7.22934 52.79513,3.87943 71.77686,19.69534 -4.31571,17.28241 -15.79056,33.67547 -22.86993,50.61457 C 351.20613,281.35363 303.54306,379.29981 255.88,477.246 225.08667,413.96567 194.29333,350.68533 163.5,287.405 c -27.9292,7.47565 5.58279,34.60348 8.05093,51.29674 C 199.66029,396.46782 227.76965,454.23391 255.879,512 332.85422,354.10058 409.36235,195.97342 486.682,38.242 Z M 57.715,48.535 c 26.941883,4.20548 46.85545,-19.843964 72.24356,-21.679348 27.69783,5.718489 53.05744,-2.539717 78.72944,-10.68328 27.11388,0.631371 53.7737,11.625989 80.47889,0.336436 26.63949,-5.22303 49.14298,18.615351 76.60252,11.544908 29.11796,-8.99729 50.63884,18.359387 78.06434,20.442317 34.11561,-10.703388 6.88743,33.296421 -1.93196,39.714975 C 321.26322,47.849652 187.45362,48.219379 67.019,89.167 L 47.46,48.982 c 3.415381,-0.228272 6.83299,-0.369611 10.255,-0.447 z" id="path1018" inkscape:connector-curvature="0" sodipodi:nodetypes="ccccccccccscccccccccccccccccccc" /> <path style="fill:#53180F;" d="M186.446,99.429c-29.905,0-54.234,24.329-54.234,54.234s24.329,54.234,54.234,54.234   s54.234-24.329,54.234-54.234S216.351,99.429,186.446,99.429z M186.446,192.692c-21.52,0-39.028-17.508-39.028-39.028   s17.508-39.028,39.028-39.028s39.028,17.509,39.028,39.028S207.967,192.692,186.446,192.692z" id="path1020" /> <path style="fill:#53180F;" d="M212.845,323.864c0,23.729,19.305,43.035,43.035,43.035s43.035-19.305,43.035-43.035   s-19.305-43.035-43.035-43.035C232.15,280.83,212.845,300.135,212.845,323.864z M255.879,296.036   c15.345,0,27.829,12.484,27.829,27.829s-12.484,27.829-27.829,27.829s-27.829-12.484-27.829-27.829   C228.051,308.521,240.535,296.036,255.879,296.036z" id="path1022" /> <path style="fill:#53180f" d="m 262.171,239.104 c 7.85201,8.28237 22.29759,8.40719 30.289,0.257 6.45367,6.45333 12.90733,12.90667 19.361,19.36 11.72933,-11.73033 23.45867,-23.46067 35.188,-35.191 -6.45333,-6.453 -12.90667,-12.906 -19.36,-19.359 8.36497,-8.20348 7.9195,-23.12008 -0.84163,-30.86066 -10.94474,-10.86499 -29.74805,-12.0139 -41.9555,-2.60559 -6.07871,5.10216 -11.37304,11.07101 -17.08257,16.58025 -5.30638,5.24917 -11.07408,10.51192 -13.32637,17.89202 -4.15543,11.59985 -1.09504,25.29159 7.72807,33.92698 z m 10.751,-35.467 c 6.7805,-6.70655 13.41648,-13.56671 20.29225,-20.17199 7.01887,-6.08286 19.22742,-5.0493 24.56404,2.71539 1.85311,3.23541 0.0121,6.92292 -2.65061,9.01221 -2.99389,2.99446 -5.98779,5.98893 -8.98168,8.98339 6.45267,6.45167 12.90533,12.90333 19.358,19.355 -4.56167,4.562 -9.12333,9.124 -13.685,13.686 -6.453,-6.45267 -12.906,-12.90533 -19.359,-19.358 -3.84471,3.73954 -7.48824,7.70661 -11.46719,11.29444 -4.01839,2.84239 -8.98987,-0.34775 -10.76601,-4.27527 -4.03477,-6.64806 -2.89643,-15.81824 2.6952,-21.24117 z" id="path1024" inkscape:connector-curvature="0" /> </g> <g id="g1028"> </g> <g id="g1030"> </g> <g id="g1032"> </g> <g id="g1034"> </g> <g id="g1036"> </g> <g id="g1038"> </g> <g id="g1040"> </g> <g id="g1042"> </g> <g id="g1044"> </g> <g id="g1046"> </g> <g id="g1048"> </g> <g id="g1050"> </g> <g id="g1052"> </g> <g id="g1054"> </g> <g id="g1056"> </g>
</svg>
