<svg xmlns="http://www.w3.org/2000/svg" width="512" height="512" viewBox="0 0 512 512" role="img" aria-label="Robot painting a French flag, Van Gogh style">
<path d="M150,470 L212,118" stroke="#d5c4a1" stroke-width="11" stroke-linecap="round"/><path d="M300,470 L238,118" stroke="#d5c4a1" stroke-width="11" stroke-linecap="round"/><path d="M225,330 L262,486" stroke="#d5c4a1" stroke-width="11" stroke-linecap="round"/><path d="M104,336 L320,336" stroke="#fbf1c7" stroke-width="12" stroke-linecap="round"/>
<rect x="96.0" y="132" width="77.3" height="196" fill="#2e5e8c"/><rect x="173.3" y="132" width="77.3" height="196" fill="#fbf1c7"/><rect x="250.7" y="132" width="77.3" height="196" fill="#c0392b"/>
<path d="M96.0,154 C134.7,141 134.7,167 173.3,154" fill="none" stroke="#7aa6d6" stroke-width="6" stroke-linecap="round" opacity="0.85"/><path d="M96.0,184 C134.7,197 134.7,171 173.3,184" fill="none" stroke="#7aa6d6" stroke-width="6" stroke-linecap="round" opacity="0.85"/><path d="M96.0,214 C134.7,201 134.7,227 173.3,214" fill="none" stroke="#7aa6d6" stroke-width="6" stroke-linecap="round" opacity="0.85"/><path d="M96.0,244 C134.7,257 134.7,231 173.3,244" fill="none" stroke="#7aa6d6" stroke-width="6" stroke-linecap="round" opacity="0.85"/><path d="M96.0,274 C134.7,261 134.7,287 173.3,274" fill="none" stroke="#7aa6d6" stroke-width="6" stroke-linecap="round" opacity="0.85"/><path d="M96.0,304 C134.7,317 134.7,291 173.3,304" fill="none" stroke="#7aa6d6" stroke-width="6" stroke-linecap="round" opacity="0.85"/><path d="M173.3,154 C212.0,141 212.0,167 250.7,154" fill="none" stroke="#ece0a8" stroke-width="6" stroke-linecap="round" opacity="0.85"/><path d="M173.3,184 C212.0,197 212.0,171 250.7,184" fill="none" stroke="#ece0a8" stroke-width="6" stroke-linecap="round" opacity="0.85"/><path d="M173.3,214 C212.0,201 212.0,227 250.7,214" fill="none" stroke="#ece0a8" stroke-width="6" stroke-linecap="round" opacity="0.85"/><path d="M173.3,244 C212.0,257 212.0,231 250.7,244" fill="none" stroke="#ece0a8" stroke-width="6" stroke-linecap="round" opacity="0.85"/><path d="M173.3,274 C212.0,261 212.0,287 250.7,274" fill="none" stroke="#ece0a8" stroke-width="6" stroke-linecap="round" opacity="0.85"/><path d="M173.3,304 C212.0,317 212.0,291 250.7,304" fill="none" stroke="#ece0a8" stroke-width="6" stroke-linecap="round" opacity="0.85"/><path d="M250.7,154 C289.3,141 289.3,167 328.0,154" fill="none" stroke="#e8796b" stroke-width="6" stroke-linecap="round" opacity="0.85"/><path d="M250.7,184 C289.3,197 289.3,171 328.0,184" fill="none" stroke="#e8796b" stroke-width="6" stroke-linecap="round" opacity="0.85"/><path d="M250.7,214 C289.3,201 289.3,227 328.0,214" fill="none" stroke="#e8796b" stroke-width="6" stroke-linecap="round" opacity="0.85"/><path d="M250.7,244 C289.3,257 289.3,231 328.0,244" fill="none" stroke="#e8796b" stroke-width="6" stroke-linecap="round" opacity="0.85"/><path d="M250.7,274 C289.3,261 289.3,287 328.0,274" fill="none" stroke="#e8796b" stroke-width="6" stroke-linecap="round" opacity="0.85"/><path d="M250.7,304 C289.3,317 289.3,291 328.0,304" fill="none" stroke="#e8796b" stroke-width="6" stroke-linecap="round" opacity="0.85"/>
<polyline points="134.0,176.0 134.4,176.2 134.7,176.6 134.7,177.3 134.3,177.9 133.5,178.3 132.5,178.4 131.3,178.0 130.3,177.1 129.7,175.8 129.6,174.1 130.2,172.4 131.5,170.8 133.4,169.8 135.7,169.5 138.1,170.1 140.3,171.7 141.9,174.0 142.6,176.9 142.1,180.1 140.5,183.0 137.9,185.3 134.4,186.5 130.6,186.5 126.9,185.0 123.8,182.2 121.8,178.4 121.3,173.9 122.4,169.4 125.1,165.4 129.2,162.5 134.2,161.2 139.5,161.7 144.5,164.2 148.3,168.3 150.6,173.7 150.8,179.7 148.9,185.6 144.9,190.6 139.3,193.9 132.7,195.1 125.9,193.9 119.9,190.3 115.4,184.7 113.0,177.7 113.3,170.2 116.2,163.1" fill="none" stroke="#ece0a8" stroke-width="5" stroke-linecap="round" opacity="0.9"/>
<rect x="96" y="132" width="232" height="196" fill="none" stroke="#fbf1c7" stroke-width="12" stroke-linejoin="round"/>
<rect x="356" y="150" width="92" height="74" rx="18" fill="none" stroke="#fbf1c7" stroke-width="10" stroke-linejoin="round"/><path d="M402,150 L402,124" stroke="#fbf1c7" stroke-width="9" stroke-linecap="round"/><circle cx="402" cy="116" r="7" fill="#fbf1c7"/><circle cx="382" cy="188" r="8" fill="#fbf1c7"/><circle cx="422" cy="188" r="8" fill="#fbf1c7"/><rect x="350" y="232" width="104" height="108" rx="16" fill="none" stroke="#fbf1c7" stroke-width="10" stroke-linejoin="round"/><path d="M378,340 L378,392" stroke="#fbf1c7" stroke-width="10" stroke-linecap="round"/><path d="M426,340 L426,392" stroke="#fbf1c7" stroke-width="10" stroke-linecap="round"/><path d="M350,262 L322,250 L286,262" fill="none" stroke="#fbf1c7" stroke-width="10" stroke-linecap="round" stroke-linejoin="round"/><path d="M286,262 L300,256" stroke="#d5c4a1" stroke-width="9" stroke-linecap="round"/><circle cx="284" cy="263" r="7" fill="#c0392b"/><path d="M454,300 L480,316" fill="none" stroke="#fbf1c7" stroke-width="10" stroke-linecap="round"/><ellipse cx="478" cy="346" rx="30" ry="22" fill="none" stroke="#fbf1c7" stroke-width="8"/><circle cx="468" cy="340" r="5" fill="#2e5e8c"/><circle cx="484" cy="338" r="5" fill="#fbf1c7"/><circle cx="488" cy="352" r="5" fill="#c0392b"/>
</svg>
