<svg xmlns="http://www.w3.org/2000/svg" width="512" height="512" viewBox="0 0 512 512" role="img" aria-label="Robot painting Mont Saint-Michel behind a French flag">
<path d="M150,470 L212,118" stroke="#d5c4a1" stroke-width="8" stroke-linecap="round"/><path d="M300,470 L238,118" stroke="#d5c4a1" stroke-width="8" stroke-linecap="round"/><path d="M225,330 L262,486" stroke="#d5c4a1" stroke-width="8" stroke-linecap="round"/><path d="M104,336 L324,336" stroke="#fbf1c7" stroke-width="8" stroke-linecap="round"/>
<rect x="96" y="128" width="236" height="200" fill="#1e3a5f"/><rect x="96" y="286" width="236" height="42" fill="#23415e"/>
<path d="M102,146 C214,134 214,158 326,146" fill="none" stroke="#7aa6d6" stroke-width="4" stroke-linecap="round" opacity="0.55"/><path d="M102,172 C214,184 214,160 326,172" fill="none" stroke="#7aa6d6" stroke-width="4" stroke-linecap="round" opacity="0.55"/><path d="M102,198 C214,186 214,210 326,198" fill="none" stroke="#7aa6d6" stroke-width="4" stroke-linecap="round" opacity="0.55"/><path d="M102,224 C214,236 214,212 326,224" fill="none" stroke="#7aa6d6" stroke-width="4" stroke-linecap="round" opacity="0.55"/><path d="M102,250 C214,238 214,262 326,250" fill="none" stroke="#7aa6d6" stroke-width="4" stroke-linecap="round" opacity="0.55"/><path d="M102,276 C214,288 214,264 326,276" fill="none" stroke="#7aa6d6" stroke-width="4" stroke-linecap="round" opacity="0.55"/><polyline points="138.0,168.0 138.4,168.1 138.6,168.5 138.6,169.1 138.3,169.6 137.7,170.0 136.9,170.2 135.9,169.9 135.0,169.3 134.3,168.2 134.1,166.8 134.4,165.4 135.2,163.9 136.6,162.9 138.5,162.3 140.5,162.4 142.6,163.3 144.2,164.9 145.3,167.2 145.6,169.8 144.9,172.4 143.2,174.8 140.8,176.6 137.7,177.4 134.4,177.1 131.3,175.7 128.7,173.2 127.1,169.9 126.7,166.0 127.7,162.2 130.0,158.7 133.4,156.2 137.6,154.9 142.2,155.2 146.5,157.0 150.0,160.3 152.3,164.7 153.0,169.7 152.0,174.9 149.1,179.4 144.8,182.9 139.4,184.7 133.6,184.6 128.1,182.5 123.4,178.6" fill="none" stroke="#f9d56e" stroke-width="4" stroke-linecap="round" opacity="0.9"/><circle cx="246" cy="156" r="3" fill="#f9d56e" opacity="0.9"/><circle cx="292" cy="184" r="3" fill="#f9d56e" opacity="0.9"/><circle cx="192" cy="150" r="3" fill="#f9d56e" opacity="0.9"/>
<path d="M104,300 q 110,10 220,0" fill="none" stroke="#5a86b0" stroke-width="4" stroke-linecap="round" opacity="0.6"/><path d="M104,314 q 110,10 220,0" fill="none" stroke="#5a86b0" stroke-width="4" stroke-linecap="round" opacity="0.6"/>
<path d="M146,288 L146,272 L280,272 L280,288 Z" fill="#a89984"/><path d="M146,288 L146,272 L164,268 L168,250 L186,246 L192,226 L202,224 L206,202 L210,162 L214,202 L224,224 L234,226 L240,246 L258,250 L262,268 L280,272 L280,288 Z" fill="#d5c4a1"/><path d="M210,162 L210,138" stroke="#d5c4a1" stroke-width="4" stroke-linecap="round"/><circle cx="210" cy="134" r="3" fill="#f9d56e"/>
<path d="M228,316 L228,168" stroke="#fbf1c7" stroke-width="5" stroke-linecap="round"/><rect x="228" y="172" width="26" height="50" fill="#2e5e8c"/><rect x="254" y="172" width="26" height="50" fill="#fbf1c7"/><rect x="280" y="172" width="26" height="50" fill="#c0392b"/><path d="M228,197 C267,186 267,208 306,197" fill="none" stroke="#d5c4a1" stroke-width="3" stroke-linecap="round" opacity="0.5"/>
<rect x="96" y="128" width="236" height="200" fill="none" stroke="#fbf1c7" stroke-width="4" stroke-linejoin="round"/>
<rect x="356" y="150" width="92" height="74" rx="18" fill="none" stroke="#fbf1c7" stroke-width="9" stroke-linejoin="round"/><path d="M402,150 L402,124" stroke="#fbf1c7" stroke-width="8" stroke-linecap="round"/><circle cx="402" cy="116" r="7" fill="#fbf1c7"/><circle cx="382" cy="188" r="8" fill="#fbf1c7"/><circle cx="422" cy="188" r="8" fill="#fbf1c7"/><rect x="350" y="232" width="104" height="108" rx="16" fill="none" stroke="#fbf1c7" stroke-width="9" stroke-linejoin="round"/><path d="M378,340 L378,392" stroke="#fbf1c7" stroke-width="9" stroke-linecap="round"/><path d="M426,340 L426,392" stroke="#fbf1c7" stroke-width="9" stroke-linecap="round"/><path d="M350,262 L322,250 L292,260" fill="none" stroke="#fbf1c7" stroke-width="9" stroke-linecap="round" stroke-linejoin="round"/><path d="M292,260 L306,254" stroke="#d5c4a1" stroke-width="8" stroke-linecap="round"/><circle cx="290" cy="261" r="6" fill="#2e5e8c"/><path d="M454,300 L480,316" fill="none" stroke="#fbf1c7" stroke-width="9" stroke-linecap="round"/><ellipse cx="478" cy="346" rx="30" ry="22" fill="none" stroke="#fbf1c7" stroke-width="7"/><circle cx="468" cy="340" r="5" fill="#2e5e8c"/><circle cx="484" cy="338" r="5" fill="#fbf1c7"/><circle cx="488" cy="352" r="5" fill="#c0392b"/>
</svg>
