<svg viewBox="0 0 75.973084 75.918304" xmlns="http://www.w3.org/2000/svg"><path d="m17.936383 5.5216381c-11.9066884 7.3866099-19.2581854 21.6363219-17.73828172 35.6542979 1.17988482 17.565088 16.23226472 32.965028 33.79492272 34.472656 2.754539.342686 5.566966.408177 8.30664-.0957 17.128867-2.516819 31.221801-17.678102 33.47461-34.677738 1.61926-14.321016-6.823249-28.500742-19.107422-35.5195309-12.431727-6.8111835-27.677044-6.8370389-38.730469.166015zm32.736328 6.8144539c1.281918 2.622194-.904518 1.950616-2.226562 1.046875-3.173429-2.212811-4.699798-7.4158459-9.302735-6.6542969 3.060173-12.0925805 11.350578 3.7517459 11.529297 5.6074219zm-14.474609-1.539062c.457989 1.186151-1.082264.406495-1.201172-.216797-.568831-1.5692089-.986974-5.3335309-3.400391-3.2714849-1.361642-4.4723785-8.076723.424911-3.414062 1.642578 2.809526 2.8874399-3.305587.773897-4.980469 1.2421879-3.011657.541757-6.800383-2.5104159-2.175781-3.6503909 16.791406-9.7977198 12.904267 2.0992503 15.171875 4.2539069zm2.466797-.501954c.34118.0027-.123104 1.522878-.376953.292969.177075-.213442.298219-.293596.376953-.292969zm21.863281.841797c2.280124-.106428 4.864819 3.717916 5.345703 5.876953-1.509126 1.730752 1.386459 6.33267-2.125 6.421875l-.230469-.351562-.08984-.214844-.0059-.01367c-.03255-2.688227-2.36594-3.470076-3.121094-1.390625-4.637783-.714621-6.551096-6.577863-1.861328-8.705078.603206-1.116454 1.32785-1.587571 2.087891-1.623047zm-18.021484 1.892578c.486027-.01794.996999.42355 1.390624 1.605469-3.180281.98487 2.064126 3.344323-1.61914 3.527344-.496269 1.670673-.81037 3.666109-3.072266 2.3125-1.916621-2.253969-.291507-4.671661 1.970703-3.636719-.688619-1.503981.260818-3.769119 1.330079-3.808594zm-30.828126 1.320313c.977871-.08861 1.758696.959563.707032 2.568359.02994 1.634209 1.700072 1.778551 1.808594 3.275391 1.982369-.519677 6.951769-3.729641 3.488281.371094-3.646476 4.510269-5.923181 9.983357-6.34961 15.78125-1.3970704 1.751949-6.1637864.742328-8.7402345.638672-.093464-7.598625 2.8794541-15.128805 7.4648445-21.125.376286-.994621 1.034371-1.456601 1.621093-1.509766zm37.615235 1.105469c1.069128.0037 2.18956.807406 2.765625 2.375 3.174789 2.175718 7.208689 4.069193 8.443359 8.451171-1.37904 2.978075-.277114 7.047597-3.568359 9.0625-.672407 1.607279-1.732489 2.37917-1.822266.0293-.667148-5.704277-5.186415-9.8251-7.75-14.707031-1.908799-.534345-3.852828-2.677777-.527344-2.791016.37281-1.628218 1.389857-2.423642 2.458985-2.419921zm-27.998047 4.371093c2.645136.270843 4.636511 5.313994 3.091797 7.519532-3.297026 2.710675-1.64419 10.085076-6.783203 10.039062-1.585175-.260791-3.258123.05602-4.802735-.541016-.200901-6.01753 2.588695-11.981364 6.59375-16.349609.644502-.539262 1.289975-.730471 1.900391-.667969zm48.154297 1.794922c.609373-.125798-.679369 1.937394-.763672.50586.380852-.332156.623047-.476829.763672-.50586zm-22.037109 4.855469c.205659-.03532.580914.123712 1.265624.587891 3.224551 1.648382 6.839812 7.306298 4.208985 10.253906-1.938702-.68934-4.651677.971245-1.123047 1.097656 4.265638-.528188 1.449305 6.89947-.845703 7.626953-1.608046-3.507764-8.774108-3.452077-6.238281-8.699219-1.22987-2.932946-3.609624-8.030328 1.664062-8.279296 1.3574-.625346.451382-2.481924 1.06836-2.587891zm18.080078 2.441406c1.263902.109527 2.065738 2.022856 2.197265 2.134766 1.855344-1.358504 2.123158 1.265705 3.869141.466797 1.994922.94847 1.949634 3.86202-.632813 2.09375-2.442947.398185-7.079321-2.059387-6.84375-4.070313.516498-.498289.988856-.661509 1.410157-.625zm-39.978516.21875c.692583 4.278514 5.328557 6.2979 6.177734 10.148438-1.256932 5.691697 8.949609 3.423126 7.427735 7.882812.988461 2.210043 5.072652 7.713355-.337891 6.269531.08861-1.555416-.577747-6.080374-1.474609-2.242187.166301 2.198096-.904522 3.797845-3.179688 2.267578-6.466996-1.661904-11.845988-7.617765-12.097656-14.404297 1.378549-.993243 6.59943-1.311599 1.978516-1.652344-4.103532-.510266-.738341-8.354487 1.505859-8.269531zm16.1875 5.019531c1.420479.203521 2.387973 5.831844.904297 7.085938-.761361.841557-2.108182 1.153725-3.146485.671875-.512678-1.906821-1.676698-5.63229-4.265624-3.800781-2.460111-4.329752 4.412552-2.881909 5.251953-2.636719.425002-1.008783.858125-1.377298 1.255859-1.320313zm-1.355469 3.091797c-.824943-.02418-.691993 1.602807 1.605469 1.384766-.657073-1.021663-1.230495-1.373773-1.605469-1.384766zm-31.4804694.751953c3.2450234.144869 2.6724814 4.951201 3.6757824 7.619141 1.342312 4.127641 3.69852 7.871035 6.544922 11.125-2.330788 1.319977-.934413 3.987778.794922 1.332031 4.220297 1.955073 8.204313 4.896987 12.988281 5.748047 3.347554.156438 5.378161.971988 4.410156 4.625-.257717 2.44394.726599 6.187293-3.152344 4.714844-11.128386-1.209681-21.65189-7.958891-26.9570314-17.882813 1.523619.08019 5.1006024 2.23717 5.3593754-1.626953 1.731949-5.280704-3.8054834-8.188099-8.1464849-7.578125-3.51928522-2.573114-2.0916192-9.043122 2.8417965-7.832031.635075-.189391 1.177051-.264836 1.640625-.244141zm3.9804694.447266h7.642578c1.053074 7.537363 6.326881 15.40342 14.365235 16.41211 4.216917-.450218 2.270425 6.585194 1.808594 8.267578-1.175607.05881-2.346829-.11698-3.496094-.347657-11.070878-2.586777-19.615495-13.041464-20.320313-24.332031zm21.128907.994141c.327318.03398.785206.251295 1.388671.734375 2.614345.225424 4.965769 4.782287.673829 2.822265-.167324-.06696-.334631-.134212-.501954-.201171-1.971534-.193252-2.978928-3.502717-1.560546-3.355469zm21.742187.09375c.07186-.01028.146633-.000783.226563.0332.526673 3.381292 3.548126 3.787112 6.078124 3.974609.886336 3.8863-2.58956 7.371039-4.58789 10.441407-3.300989 4.013995-7.821727 7.174901-12.957031 8.255859l-.09961-.193359c3.131521-3.410488 7.081656-6.371007 9.509766-10.236329 1.818127-1.990604.355938-4.517354-.623047-5.601562 1.147233-1.650651 1.375268-6.519572 2.453125-6.673828zm-48.8437504 2.332031c-.918732-.03571-1.436423.32068-.792969 1.324219 1.376225.875493 2.930178 1.791776 4.5878914 1.902343 2.190415-1.169697-1.7737124-3.148-3.7949224-3.226562zm56.9648444 2.767578c2.789711 2.63504.01836 8.386854 2.5625 12.035156.715689 3.794205-3.471872 5.910607-5.6875 8.345704-6.082411 5.122605-13.917173 8.394768-21.941407 8.210937.216304-2.093469-1.338053-8.326221 1.041016-7.669922.294252 2.508138 4.357688 3.917717 2.878906.142578 3.615579-4.031664 9.920544-4.005398 13.320313-8.410156 3.691341-3.414808 6.247884-7.912277 7.826172-12.654297zm-23.371094 10.183594c2.134526 1.168196.341906 6.674223-.980469 8.488281-1.472593-1.597707-1.948621-7.412542.980469-8.488281z" fill="#fefefe" stroke-width=".32"/></svg>