<?xml version="1.0" encoding="UTF-8" standalone="no"?>
<svg xmlns="http://www.w3.org/2000/svg" version="1.1" viewBox="0 0 75.973084 75.918304">
<path style="fill:#fefefe;stroke-width:0.31999999;fill-opacity:1" d="M 17.936383,5.5216381 C 6.0296946,12.908248 -1.3218024,27.15796 0.19810128,41.175936 1.3779861,58.741024 16.430366,74.140964 33.993024,75.648592 c 2.754539,0.342686 5.566966,0.408177 8.30664,-0.0957 C 59.428531,73.036073 73.521465,57.87479 75.774274,40.875154 77.393534,26.554138 68.951025,12.374412 56.666852,5.3556231 44.235125,-1.4555604 28.989808,-1.4814158 17.936383,5.5216381 Z m 32.736328,6.8144539 c 1.281918,2.622194 -0.904518,1.950616 -2.226562,1.046875 C 45.27272,11.170156 43.746351,5.9671211 39.143414,6.7286701 42.203587,-5.3639104 50.493992,10.480416 50.672711,12.336092 Z M 36.198102,10.79703 C 36.656091,11.983181 35.115838,11.203525 34.99693,10.580233 34.428099,9.0110241 34.009956,5.2467021 31.596539,7.3087481 30.234897,2.8363696 23.519816,7.7336591 28.182477,8.9513261 30.992003,11.838766 24.87689,9.7252231 23.202008,10.193514 20.190351,10.735271 16.401625,7.6830981 21.026227,6.5431231 37.817633,-3.2545967 33.930494,8.6423734 36.198102,10.79703 Z m 2.466797,-0.501954 c 0.34118,0.0027 -0.123104,1.522878 -0.376953,0.292969 0.177075,-0.213442 0.298219,-0.293596 0.376953,-0.292969 z m 21.863281,0.841797 c 2.280124,-0.106428 4.864819,3.717916 5.345703,5.876953 -1.509126,1.730752 1.386459,6.33267 -2.125,6.421875 l -0.230469,-0.351562 -0.08984,-0.214844 -0.0059,-0.01367 c -0.03255,-2.688227 -2.36594,-3.470076 -3.121094,-1.390625 -4.637783,-0.714621 -6.551096,-6.577863 -1.861328,-8.705078 0.603206,-1.116454 1.32785,-1.587571 2.087891,-1.623047 z m -18.021484,1.892578 c 0.486027,-0.01794 0.996999,0.42355 1.390624,1.605469 -3.180281,0.98487 2.064126,3.344323 -1.61914,3.527344 -0.496269,1.670673 -0.81037,3.666109 -3.072266,2.3125 -1.916621,-2.253969 -0.291507,-4.671661 1.970703,-3.636719 -0.688619,-1.503981 0.260818,-3.769119 1.330079,-3.808594 z M 11.67857,14.349764 c 0.977871,-0.08861 1.758696,0.959563 0.707032,2.568359 0.02994,1.634209 1.700072,1.778551 1.808594,3.275391 1.982369,-0.519677 6.951769,-3.729641 3.488281,0.371094 -3.646476,4.510269 -5.923181,9.983357 -6.34961,15.78125 -1.3970704,1.751949 -6.1637864,0.742328 -8.7402345,0.638672 -0.093464,-7.598625 2.8794541,-15.128805 7.4648445,-21.125 0.376286,-0.994621 1.034371,-1.456601 1.621093,-1.509766 z m 37.615235,1.105469 c 1.069128,0.0037 2.18956,0.807406 2.765625,2.375 3.174789,2.175718 7.208689,4.069193 8.443359,8.451171 -1.37904,2.978075 -0.277114,7.047597 -3.568359,9.0625 -0.672407,1.607279 -1.732489,2.37917 -1.822266,0.0293 -0.667148,-5.704277 -5.186415,-9.8251 -7.75,-14.707031 -1.908799,-0.534345 -3.852828,-2.677777 -0.527344,-2.791016 0.37281,-1.628218 1.389857,-2.423642 2.458985,-2.419921 z m -27.998047,4.371093 c 2.645136,0.270843 4.636511,5.313994 3.091797,7.519532 -3.297026,2.710675 -1.64419,10.085076 -6.783203,10.039062 -1.585175,-0.260791 -3.258123,0.05602 -4.802735,-0.541016 -0.200901,-6.01753 2.588695,-11.981364 6.59375,-16.349609 0.644502,-0.539262 1.289975,-0.730471 1.900391,-0.667969 z m 48.154297,1.794922 c 0.609373,-0.125798 -0.679369,1.937394 -0.763672,0.50586 0.380852,-0.332156 0.623047,-0.476829 0.763672,-0.50586 z m -22.037109,4.855469 c 0.205659,-0.03532 0.580914,0.123712 1.265624,0.587891 3.224551,1.648382 6.839812,7.306298 4.208985,10.253906 -1.938702,-0.68934 -4.651677,0.971245 -1.123047,1.097656 4.265638,-0.528188 1.449305,6.89947 -0.845703,7.626953 -1.608046,-3.507764 -8.774108,-3.452077 -6.238281,-8.699219 -1.22987,-2.932946 -3.609624,-8.030328 1.664062,-8.279296 1.3574,-0.625346 0.451382,-2.481924 1.06836,-2.587891 z m 18.080078,2.441406 c 1.263902,0.109527 2.065738,2.022856 2.197265,2.134766 1.855344,-1.358504 2.123158,1.265705 3.869141,0.466797 1.994922,0.94847 1.949634,3.86202 -0.632813,2.09375 -2.442947,0.398185 -7.079321,-2.059387 -6.84375,-4.070313 0.516498,-0.498289 0.988856,-0.661509 1.410157,-0.625 z m -39.978516,0.21875 c 0.692583,4.278514 5.328557,6.2979 6.177734,10.148438 -1.256932,5.691697 8.949609,3.423126 7.427735,7.882812 0.988461,2.210043 5.072652,7.713355 -0.337891,6.269531 0.08861,-1.555416 -0.577747,-6.080374 -1.474609,-2.242187 0.166301,2.198096 -0.904522,3.797845 -3.179688,2.267578 -6.466996,-1.661904 -11.845988,-7.617765 -12.097656,-14.404297 1.378549,-0.993243 6.59943,-1.311599 1.978516,-1.652344 -4.103532,-0.510266 -0.738341,-8.354487 1.505859,-8.269531 z m 16.1875,5.019531 c 1.420479,0.203521 2.387973,5.831844 0.904297,7.085938 -0.761361,0.841557 -2.108182,1.153725 -3.146485,0.671875 -0.512678,-1.906821 -1.676698,-5.63229 -4.265624,-3.800781 -2.460111,-4.329752 4.412552,-2.881909 5.251953,-2.636719 0.425002,-1.008783 0.858125,-1.377298 1.255859,-1.320313 z m -1.355469,3.091797 c -0.824943,-0.02418 -0.691993,1.602807 1.605469,1.384766 -0.657073,-1.021663 -1.230495,-1.373773 -1.605469,-1.384766 z M 8.8660696,38.000154 c 3.2450234,0.144869 2.6724814,4.951201 3.6757824,7.619141 1.342312,4.127641 3.69852,7.871035 6.544922,11.125 -2.330788,1.319977 -0.934413,3.987778 0.794922,1.332031 4.220297,1.955073 8.204313,4.896987 12.988281,5.748047 3.347554,0.156438 5.378161,0.971988 4.410156,4.625 -0.257717,2.44394 0.726599,6.187293 -3.152344,4.714844 -11.128386,-1.209681 -21.65189,-7.958891 -26.9570314,-17.882813 1.523619,0.08019 5.1006024,2.23717 5.3593754,-1.626953 1.731949,-5.280704 -3.8054834,-8.188099 -8.1464849,-7.578125 -3.51928522,-2.573114 -2.0916192,-9.043122 2.8417965,-7.832031 0.635075,-0.189391 1.177051,-0.264836 1.640625,-0.244141 z m 3.9804694,0.447266 h 7.642578 c 1.053074,7.537363 6.326881,15.40342 14.365235,16.41211 4.216917,-0.450218 2.270425,6.585194 1.808594,8.267578 -1.175607,0.05881 -2.346829,-0.11698 -3.496094,-0.347657 C 22.095974,60.192674 13.551357,49.737987 12.846539,38.44742 Z m 21.128907,0.994141 c 0.327318,0.03398 0.785206,0.251295 1.388671,0.734375 2.614345,0.225424 4.965769,4.782287 0.673829,2.822265 -0.167324,-0.06696 -0.334631,-0.134212 -0.501954,-0.201171 -1.971534,-0.193252 -2.978928,-3.502717 -1.560546,-3.355469 z m 21.742187,0.09375 c 0.07186,-0.01028 0.146633,-7.83e-4 0.226563,0.0332 0.526673,3.381292 3.548126,3.787112 6.078124,3.974609 0.886336,3.8863 -2.58956,7.371039 -4.58789,10.441407 -3.300989,4.013995 -7.821727,7.174901 -12.957031,8.255859 l -0.09961,-0.193359 c 3.131521,-3.410488 7.081656,-6.371007 9.509766,-10.236329 1.818127,-1.990604 0.355938,-4.517354 -0.623047,-5.601562 1.147233,-1.650651 1.375268,-6.519572 2.453125,-6.673828 z M 6.8738826,41.867342 c -0.918732,-0.03571 -1.436423,0.32068 -0.792969,1.324219 1.376225,0.875493 2.930178,1.791776 4.5878914,1.902343 2.190415,-1.169697 -1.7737124,-3.148 -3.7949224,-3.226562 z M 63.838727,44.63492 c 2.789711,2.63504 0.01836,8.386854 2.5625,12.035156 0.715689,3.794205 -3.471872,5.910607 -5.6875,8.345704 -6.082411,5.122605 -13.917173,8.394768 -21.941407,8.210937 0.216304,-2.093469 -1.338053,-8.326221 1.041016,-7.669922 0.294252,2.508138 4.357688,3.917717 2.878906,0.142578 3.615579,-4.031664 9.920544,-4.005398 13.320313,-8.410156 3.691341,-3.414808 6.247884,-7.912277 7.826172,-12.654297 z M 40.467633,54.818514 c 2.134526,1.168196 0.341906,6.674223 -0.980469,8.488281 -1.472593,-1.597707 -1.948621,-7.412542 0.980469,-8.488281 z"/>
</svg>
