<svg height="124" viewBox="0 0 124 124" width="124" xmlns="http://www.w3.org/2000/svg" xmlns:xlink="http://www.w3.org/1999/xlink"><clipPath id="a"><path d="m-15.461648-5.877841h129.43608v142.68892h-129.43608z"/></clipPath><g clip-path="url(#a)" fill="none" fill-rule="evenodd" transform="matrix(.94123443 0 0 .95041011 10.046658 3.358411)"><path d="m142.7 76.742-7.174-.635c-5.631-.453-7.81-2.724-7.81-6.539 0-4.54 3.451-7.357 9.99-7.357 4.632 0 8.718 1.091 11.9 3.543l4.269-4.269c-4-3.269-9.719-4.812-16.075-4.812-9.536 0-16.439 4.9-16.439 13.077 0 7.356 4.633 11.261 13.351 11.988l7.356.635c5.176.455 7.447 2.634 7.447 6.539 0 5.268-4.541 7.9-11.9 7.9-5.541 0-10.354-1.453-13.9-5.177l-4.36 4.36c4.905 4.722 10.808 6.448 18.346 6.448 10.807 0 18.164-5 18.164-13.622 0-8.358-5.359-11.353-13.17-12.081zm55.913-20.071c-7.169 0-11.685 1.413-15.642 6.423-.054.069 4.29 4.292 4.29 4.292 2.633-3.723 5.539-5.084 11.26-5.084 8.174 0 11.444 3.269 11.444 9.807v4.268h-13.438c-9.99 0-15.438 5.087-15.438 12.9-.10494 3.349295 1.10046 6.607474 3.36 9.082 2.816 2.907 6.448 4.087 12.623 4.087 5.994 0 9.264-1.18 12.9-4.814v4.268h6.539v-30.335c0-9.717-5.9-14.892-17.891-14.892zm11.356 29.429c0 3.725-.727 6.268-2.271 7.72-2.815 2.725-6.175 3-9.989 3-7.084 0-10.264-2.453-10.264-7.63s3.27-7.9 9.992-7.9h12.532zm32.149-23.611c4.268 0 6.9 1.271 10.262 4.994 0 0 4.378-4.255 4.342-4.293-4.585-4.905-8.477-6.513-14.6-6.513-11.262 0-19.8 7.628-19.8 22.885s8.536 22.887 19.8 22.887c6.175 0 10.08-1.636 14.712-6.63l-4.45-4.269c-3.36 3.724-5.994 5.086-10.262 5.086-4.08879.163376-7.98337-1.749872-10.353-5.086-2.089-2.906-2.906-6.357-2.906-11.988s.817-9.082 2.906-11.988c2.36912-3.336613 6.26416-5.249713 10.353-5.085zm56.004-5.334h-8.152l-20.26 19.72.031-39.639h-6.541v64.664h6.54l-.031-16.309 7.931-7.959 14.988 24.268h8.082l-18.54-28.8zm30.213-1.1c-6.7 0-11.227 2.611-14.013 5.57-4.091 4.265-5.135 9.4-5.135 17.582 0 8.268 1.044 13.4 5.135 17.669 2.786 2.959 7.311 5.571 14.013 5.571s11.316-2.612 14.1-5.571c4.091-4.265 5.136-9.4 5.136-17.669 0-8.181-1.045-13.317-5.136-17.582-2.784-2.959-7.4-5.57-14.1-5.57zm5.31 34.206c-1.41858 1.370211-3.33997 2.093896-5.31 2-1.94393.09401-3.8382-.631485-5.222-2-2.351-2.35-2.611-6.353-2.611-11.054s.26-8.616 2.611-10.966c1.38359-1.368832 3.278-2.094384 5.222-2 1.97011-.09438 3.89168.629378 5.31 2 2.349 2.35 2.611 6.266 2.611 10.966s-.262 8.7-2.611 11.054zm44.055-33.686-9.138 28.025-9.226-28.027h-11.926l16.713 45.347h8.877l16.623-45.347zm31.173-.522c-11.749 0-19.757 8.355-19.757 23.152 0 18.366 10.271 23.24 20.976 23.24 8.182 0 12.622-2.525 17.234-7.139l-6.875-6.7c-2.873 2.873-5.311 4.265-10.272 4.265-6.354 0-9.922-4.265-9.922-10.1h28.374v-5.045c0-12.447-7.137-21.673-19.758-21.673zm-8.616 18.974c.0166-1.678455.37205-3.336265 1.045-4.874 1.42603-2.878175 4.36042-4.699115 7.5725-4.699115s6.14647 1.82094 7.5725 4.699115c.67075 1.538404 1.02576 3.195829 1.044 4.874zm45.065-14.1v-4.352h-11.055v45.347h11.315v-27.329c0-5.745 3.83-8.357 7.312-8.357 2.2946-.07928 4.49746.904438 5.97 2.666l8.566-8.584c-3.134-3.134-6.267-4.265-10.706-4.265-4.3164-.05112-8.45471 1.718186-11.4 4.874zm25.619-9.079v50.028h11.314v-35.754h8.356v-8.616h-8.356v-4.961c0-2.611 1.307-4.091 4-4.091h4.352v-9.573h-6.44c-9.228 0-13.23 6.527-13.23 12.967zm66.25 4.2c-6.7 0-11.228 2.611-14.013 5.57-4.09 4.265-5.135 9.4-5.135 17.582 0 8.268 1.045 13.4 5.135 17.669 2.785 2.959 7.311 5.571 14.013 5.571s11.316-2.612 14.1-5.571c4.09-4.265 5.135-9.4 5.135-17.669 0-8.181-1.045-13.317-5.135-17.582-2.785-2.959-7.4-5.57-14.1-5.57zm5.31 34.206c-1.41858 1.370211-3.33997 2.093896-5.31 2-1.94393.09401-3.8382-.631485-5.222-2-2.35-2.35-2.611-6.353-2.611-11.054s.261-8.616 2.611-10.966c1.38359-1.368832 3.278-2.094384 5.222-2 1.97011-.09438 3.89168.629378 5.31 2 2.349 2.35 2.611 6.266 2.611 10.966s-.262 8.7-2.611 11.054zm67.382-33.684-7.31 28.03-9.313-28.025h-8.267l-9.228 28.025-7.31-28.027h-12.011l13.926 45.347h9.313l9.487-28.46 9.487 28.46h9.313l13.839-45.347zm-102.583 31.687v-49.376h-11.311v50.072c0 6.441 3.918 12.969 13.23 12.969h6.44v-9.575h-4.351c-2.872 0-4-1.392-4-4.09zm-333.3-24.011 6.046-6.046h-12.38v-14.7h-6.539v46.412c0 6.629 3.814 11.988 11.443 11.988h4.63v-5.631h-3.45c-4.177 0-6.084-2.453-6.084-6.539v-25.484z" fill="#1e1b1d" fill-rule="nonzero"/><path d="m99 124h-99v-44h11v33h77v-33h11z" fill="#bbb"/><path d="m22.987891 76.73 54.025 11.355 2.271-10.8-54.025-11.36zm7.149-25.869 50.046 23.308 4.662-10.009-50.047-23.308zm13.848-24.553 42.428 35.331 7.066-8.485-42.428-35.33zm27.387-26.116-8.86 6.59 32.948 44.3 8.859999-6.589zm-49.371891 101.808h55v-11h-55z" fill="#f58025" fill-rule="nonzero"/></g></svg>