<svg viewBox="0 0 351.82998 294.32199" xmlns="http://www.w3.org/2000/svg"><path d="m311.46 0-27.187 8.546-19.305 11.09c-10.844 8.9599-16.546 30.324-16.546 30.324l-107.12 33.672 5.315 16.907-95.392 29.987-5.315-16.906-45.92 14.435 22.51 71.601 45.92-14.436-5.315-16.906 95.392-29.988 5.315 16.907 7.024-2.208-60.746 132.76 13.641 6.241 52.27-114.24v116.53h15v-118.72l53.272 116.43 13.641-6.241-64.057-140 76.354-24.002s20.599 18.36 36.141 16.887l18.28-1.7323 27.188-8.546zm-279.14 180.85-13.512-42.981 17.302-5.439c.90422 2.8766.90422 2.8766 0 0l13.511 42.981zm26.296-26.844-2.882-9.168 95.392-29.988 2.882 9.168zm101.5-60.56 89.836-28.241.142.453c0 .001.001.003.001.004l13.368 42.524-89.836 28.241zm160.02 29.188-12.099 1.883c-14.015 2.1812-26.159-7.777-29.801-19.351l-5.988-19.047-7.845-24.957c-2.281-7.259-1.128-15.185 3.248-22.318 4.583-7.469 12.083-13.146 21.118-15.987l12.878-4.048 31.365 99.775z" fill="#f5f5f5"/></svg>