<?xml version="1.0" encoding="UTF-8" standalone="no"?>
<svg xmlns="http://www.w3.org/2000/svg" xmlns:sodipodi="a" xmlns:inkscape="a" version="1.1" viewBox="0 0 413.43341 412.68204">
<g id="g899" transform="translate(47.915542,16.940391)"> <rect style="fill:#a47961;fill-opacity:1;stroke:none;stroke-width:7.55905533;stroke-miterlimit:10;stroke-dasharray:none;stroke-opacity:1" id="rect1526" width="176.33011" height="70.392647" x="54.362637" y="193.85248" /> <path style="fill:#b9c3cf;stroke-width:1.33333337" d="M 157.28632,372.34086 C 138.12642,359.7041 112.0154,371.73014 93.145381,355.71206 70.260624,345.69129 54.310358,325.05435 39.766539,305.81868 34.71734,282.03836 15.927526,262.64269 16.923083,238.57053 c 6.616929,-18.88434 31.337296,-38.54666 5.172559,-54.79185 -24.1641808,-15.79941 9.710569,-38.97775 -4.859334,-57.73482 -24.3889886,-9.72673 -38.938839,-33.062302 -60.763343,-46.741158 -8.447144,-9.719821 -1.688429,-29.654649 -3.904712,-43.527324 1.65621,-9.428612 -3.726711,-44.1631094 7.607509,-23.232011 17.088311,9.197199 28.426088,27.000675 43.4834456,35.441465 20.1578434,1.031862 31.5797014,17.209648 47.2060584,26.784963 19.576216,11.640768 44.600837,16.908716 65.952804,6.859647 25.89472,-7.527767 55.46841,-7.70654 78.87807,7.194166 16.89808,5.841231 53.95913,12.438422 54.88613,-13.098344 -2.08628,-13.476427 5.37647,-32.783626 21.80324,-22.086113 18.61347,-12.611954 -10.14378,-36.254712 5.7745,-52.1614871 -1.31714,-19.4279479 27.5569,-27.6545979 25.96335,-3.6928552 10.57825,19.4712803 22.91118,38.7921733 38.7871,54.3748003 18.09987,7.80657 33.87597,32.854884 10.96902,45.050993 -20.28937,12.656578 -25.89712,40.397788 -3.8825,53.890138 9.77728,27.7878 -28.13052,25.76999 -45.10543,22.16823 -22.29334,-9.83862 -39.22579,28.15819 -17.66441,37.58864 21.02378,15.24654 -16.53448,30.8841 -26.12117,41.98345 -18.23888,7.41829 -26.93953,25.30978 -11.81424,41.21738 9.35684,13.11332 -8.78989,17.13494 -14.24053,5.05408 -22.76372,-17.87449 -47.67014,2.72065 -71.68962,3.7732 -19.03301,-0.15261 -57.64707,0.48404 -42.46577,29.58235 12.67076,20.90525 40.90649,12.65925 56.31865,31.38156 22.81505,12.43261 -14.18995,18.92779 -19.92814,8.49123 z m 39.32061,-126.49924 c 27.49769,-2.11294 8.99879,-33.57242 -11.42407,-25.97691 -30.83454,-1.35942 -63.20435,-3.31276 -92.667664,7.39796 -18.653537,18.74212 27.408214,13.59438 39.721274,17.79143 21.36427,2.24331 42.97151,3.07093 64.37046,0.78752 z" id="path909" inkscape:connector-curvature="0"/><path style="fill:#f4d04e;stroke-width:1.33333337" d="m 204.58613,379.24698 c -17.90119,-6.85161 -32.54813,-19.36066 -48.45444,-29.00678 -17.81839,-2.05403 -44.89703,-12.31824 -37.46318,-35.08056 13.55095,-20.4448 41.88753,-6.17476 61.56581,-15.08784 18.40044,-5.18199 39.77382,-16.87536 55.47405,1.06221 13.12627,4.5963 31.0454,15.24102 16.28206,29.96279 -12.16072,10.14617 -5.86358,32.36473 -22.70783,39.03885 -6.3365,6.2962 -15.18018,17.05435 -24.69647,9.11133 z" id="path907" inkscape:connector-curvature="0"/><path style="fill:#e77a25;stroke-width:1.33333337" d="m 227.2736,393.92437 c -4.40915,-4.6702 -12.6253,-4.83053 -18.10021,-8.66985 -5.40527,-3.01399 -10.51163,-7.76617 -14.93699,-11.38653 7.53139,3.21146 15.02818,10.59202 23.77362,7.21268 6.02932,-3.44225 8.80402,-10.45775 14.53674,-14.37902 4.77136,-4.20643 12.7217,-7.83483 11.419,-15.475 -1.7634,-7.82622 1.08954,-16.41832 8.00197,-20.8159 5.47179,-3.71116 7.92609,-10.80182 4.89166,-16.86572 -4.30084,-5.29225 -3.95308,-11.52094 -6.44961,-17.87616 -2.78554,-5.95903 -8.34629,-10.93579 -9.03542,-17.68838 0.45164,-7.04203 1.29566,-17.21574 9.85045,-18.77652 12.06237,-3.81593 24.50667,-7.83606 37.27818,-7.72521 6.44405,2.51898 11.04052,8.63074 17.66381,11.25177 6.81075,2.8758 12.49181,7.57204 18.92694,11.06004 4.8902,2.34671 14.23404,7.13867 10.10095,13.66156 -6.51558,3.17027 -10.77436,9.54234 -11.75347,16.74001 -1.48193,6.97046 -0.60178,14.5887 3.83263,20.33608 1.22318,7.14817 -8.06191,11.94747 -13.43151,15.29509 -7.44381,3.61138 -10.70883,12.24193 -10.96596,20.06496 -2.39965,9.72904 -11.41455,15.33856 -16.57879,23.32096 -2.52221,3.09812 -0.75115,9.35649 -3.16613,11.40741 -18.03843,0.0264 -36.10983,1.02035 -54.12367,-0.0956 l -1.30217,-0.26991 z" id="path905" inkscape:connector-curvature="0"/><path style="fill:#9e3c1c;stroke-width:1.33333337" d="m 284.20606,391.60637 c 1.64571,-15.23592 19.98505,-22.62984 20.01953,-38.40507 0.25423,-9.26134 9.98198,-13.26453 16.68043,-17.52497 7.52747,-5.14876 4.75538,-15.11455 2.38536,-22.26598 -1.47859,-6.9707 -0.52298,-15.71614 6.00539,-19.87509 5.99567,-4.60909 7.15986,-16.67188 -1.54594,-18.92056 -14.75626,-6.36461 -27.12244,-17.12574 -41.94403,-23.36202 -8.82197,-1.11543 -16.69725,4.26358 -25.34856,4.75349 6.09786,-6.74266 16.25564,-5.77044 23.71763,-10.28349 15.89853,-6.83425 34.55724,-11.26215 51.18551,-4.29694 6.66997,2.11592 10.77515,8.54376 17.64767,10.11011 7.66117,1.14681 14.74437,7.57629 11.84501,15.75272 -0.5982,7.83943 -0.0763,15.74424 -0.24713,23.61967 0,25.83949 0,51.67897 0,77.51845 -10.64836,-0.79196 -18.87791,9.50739 -19.78378,19.38788 -1.66379,7.11528 -10.00425,8.35007 -16.1436,7.8183 -14.9932,-0.82916 -30.02601,-0.13794 -45.03617,-0.35934 0.18755,-1.22239 0.37524,-2.44476 0.56268,-3.66716 z" id="path901" inkscape:connector-curvature="0" /> <path style="fill:#452d25;fill-opacity:1;stroke:none;stroke-width:7.55905533;stroke-miterlimit:10;stroke-dasharray:none;stroke-opacity:1" id="path1543" sodipodi:type="arc" sodipodi:cx="121.61898" sodipodi:cy="231.48816" sodipodi:rx="17.075445" sodipodi:ry="9.0604401" sodipodi:start="0.26179939" sodipodi:end="0.17888752" sodipodi:open="true" d="m 138.11259,233.83317 a 17.075445,9.0604401 0 0 1 -20.57026,6.45343 17.075445,9.0604401 0 0 1 -12.58595,-10.77873 17.075445,9.0604401 0 0 1 20.04853,-6.90024 17.075445,9.0604401 0 0 1 13.41703,10.4927" /> <path style="fill:#452d25;fill-opacity:1;stroke:none;stroke-width:7.55905533;stroke-miterlimit:10;stroke-dasharray:none;stroke-opacity:1" id="path1543-3" sodipodi:type="arc" sodipodi:cx="172.84532" sodipodi:cy="232.88208" sodipodi:rx="17.075445" sodipodi:ry="9.0604401" sodipodi:start="0.26179939" sodipodi:end="0.17888752" sodipodi:open="true" d="m 189.33894,235.22709 a 17.075445,9.0604401 0 0 1 -20.57026,6.45343 17.075445,9.0604401 0 0 1 -12.58596,-10.77873 17.075445,9.0604401 0 0 1 20.04853,-6.90024 17.075445,9.0604401 0 0 1 13.41703,10.4927"/></g>
</svg>
