<?xml version="1.0" encoding="UTF-8" standalone="no"?>
<svg xmlns="http://www.w3.org/2000/svg" xmlns:sodipodi="a" xmlns:inkscape="a" viewBox="0 0 219.42917 162.10782" version="1.1">
<g inkscape:label="Layer 1" inkscape:groupmode="layer" id="layer1" transform="translate(169.82275,-51.028152)"> <path inkscape:connector-curvature="0" style="fill:#dc4a2b;fill-opacity:1;fill-rule:nonzero;stroke:none;stroke-width:0.141;stroke-linecap:butt;stroke-linejoin:miter;stroke-miterlimit:10;stroke-dasharray:none;stroke-opacity:1" d="m -17.976688,99.032112 c 0,-1.10518 -0.89572,-1.99953 -2.00092,-1.99953 -1.10381,0 -1.99953,0.89435 -1.99953,1.99953 0,1.103808 0.89572,1.999538 1.99953,1.999538 1.1052,0 2.00092,-0.89573 2.00092,-1.999538 z m 0,0" id="path1910" /> <path inkscape:connector-curvature="0" style="fill:#006ebd;fill-opacity:1;fill-rule:nonzero;stroke:none;stroke-width:0.28116387;stroke-linecap:butt;stroke-linejoin:miter;stroke-miterlimit:10;stroke-opacity:1" d="m 4.0223204,99.032103 c 0,-2.21036 -1.791462,-3.99906 -3.99906202,-3.99906 -2.21038198,0 -3.99908198,1.7887 -3.99908198,3.99906 0,2.207617 1.7887,3.999077 3.99908198,3.999077 2.20760002,0 3.99906202,-1.79146 3.99906202,-3.999077 z m 0,0" id="path1912" /> <path inkscape:connector-curvature="0" style="fill:#ffffff;fill-opacity:1;fill-rule:nonzero;stroke:#ffffff;stroke-width:0.14058194;stroke-linecap:butt;stroke-linejoin:miter;stroke-miterlimit:10;stroke-opacity:1" d="m 41.48979,106.29851 c -0.16398,-0.04 -0.879189,-0.26596 -1.327049,-0.50988 v 1.01975 c 0.44786,-0.24529 1.163069,-0.46991 1.327049,-0.50987 z m 0,0" id="path1916" /> <g transform="translate(-79.357779,64.255954)" id="g6114" style="stroke:none"> <path id="path1904" d="m 103.3816,17.097988 c 0,-2.21036 -1.79144,-4.001822 -3.999052,-4.001822 -2.21034,0 -4.0018,1.791462 -4.0018,4.001822 0,2.207618 1.79146,3.99908 4.0018,3.99908 2.207612,0 3.999052,-1.791462 3.999052,-3.99908 z m 0,0" style="fill:#00857d;fill-opacity:1;fill-rule:nonzero;stroke:none;stroke-width:0.28116387;stroke-linecap:butt;stroke-linejoin:miter;stroke-miterlimit:10;stroke-opacity:1" inkscape:connector-curvature="0" /> <path id="path1918" d="m 99.556187,42.043245 c 0,-2.210382 -1.79142,-4.001824 -4.0018,-4.001824 -2.20762,0 -3.9991,1.791442 -3.9991,4.001824 0,2.20762 1.79148,3.99906 3.9991,3.99906 2.21038,0 4.0018,-1.79144 4.0018,-3.99906 z m 0,0" style="fill:#00857d;fill-opacity:1;fill-rule:nonzero;stroke:none;stroke-width:0.28116387;stroke-linecap:butt;stroke-linejoin:miter;stroke-miterlimit:10;stroke-opacity:1" inkscape:connector-curvature="0" /> <path id="path1920" d="m 107.20707,42.043245 c 0,-2.210382 -1.79144,-4.001824 -3.99906,-4.001824 -2.2104,0 -4.001845,1.791442 -4.001845,4.001824 0,2.20762 1.791445,3.99906 4.001845,3.99906 2.20762,0 3.99906,-1.79144 3.99906,-3.99906 z m 0,0" style="fill:#00857d;fill-opacity:1;fill-rule:nonzero;stroke:none;stroke-width:0.28116387;stroke-linecap:butt;stroke-linejoin:miter;stroke-miterlimit:10;stroke-opacity:1" inkscape:connector-curvature="0" /> <path id="path1932" d="m 103.3816,70.620298 c 0,-2.210362 -1.79144,-3.999062 -3.999052,-3.999062 -2.21034,0 -4.0018,1.7887 -4.0018,3.999062 0,2.210382 1.79146,3.999082 4.0018,3.999082 2.207612,0 3.999052,-1.7887 3.999052,-3.999082 z m 0,0" style="fill:#00857d;fill-opacity:1;fill-rule:nonzero;stroke:none;stroke-width:0.28116387;stroke-linecap:butt;stroke-linejoin:miter;stroke-miterlimit:10;stroke-opacity:1" inkscape:connector-curvature="0" /> </g> <g transform="translate(-79.357779,64.255954)" id="g6098" style="stroke:none;stroke-width:0.141;stroke-miterlimit:10;stroke-dasharray:none"> <path id="path1894" d="m 63.381317,2.5638224 c 0,-2.20761981 -1.79144,-3.9990599 -4.00184,-3.9990599 -2.20762,0 -3.99906,1.79144009 -3.99906,3.9990599 0,2.21038 1.79144,4.0018204 3.99906,4.0018204 2.2104,0 4.00184,-1.7914404 4.00184,-4.0018204 z m 0,0" style="fill:#dc4a2b;fill-opacity:1;fill-rule:nonzero;stroke:none;stroke-width:0.28200001;stroke-linecap:butt;stroke-linejoin:miter;stroke-miterlimit:10;stroke-dasharray:none;stroke-opacity:1" inkscape:connector-curvature="0" /> <path id="path1926" d="m 63.381317,34.776148 c 0,-2.21036 -1.79144,-3.99906 -4.00184,-3.99906 -2.20762,0 -3.99906,1.7887 -3.99906,3.99906 0,2.20762 1.79144,3.999078 3.99906,3.999078 2.2104,0 4.00184,-1.791458 4.00184,-3.999078 z m 0,0" style="fill:#dc4a2b;fill-opacity:1;fill-rule:nonzero;stroke:none;stroke-width:0.28200001;stroke-linecap:butt;stroke-linejoin:miter;stroke-miterlimit:10;stroke-dasharray:none;stroke-opacity:1" inkscape:connector-curvature="0" /> <path id="path1940" d="m 59.553802,91.933732 c 0,-2.21036 -1.79142,-4.001818 -3.99906,-4.001818 -2.21036,0 -3.99906,1.791458 -3.99906,4.001818 0,2.20762 1.7887,3.99906 3.99906,3.99906 2.20764,0 3.99906,-1.79144 3.99906,-3.99906 z m 0,0" style="fill:#dc4a2b;fill-opacity:1;fill-rule:nonzero;stroke:none;stroke-width:0.28200001;stroke-linecap:butt;stroke-linejoin:miter;stroke-miterlimit:10;stroke-dasharray:none;stroke-opacity:1" inkscape:connector-curvature="0" /> <path id="path1942" d="m 67.206747,91.933732 c 0,-2.21036 -1.79144,-4.001818 -4.00182,-4.001818 -2.2076,0 -3.99908,1.791458 -3.99908,4.001818 0,2.20762 1.79148,3.99906 3.99908,3.99906 2.21038,0 4.00182,-1.79144 4.00182,-3.99906 z m 0,0" style="fill:#dc4a2b;fill-opacity:1;fill-rule:nonzero;stroke:none;stroke-width:0.28200001;stroke-linecap:butt;stroke-linejoin:miter;stroke-miterlimit:10;stroke-dasharray:none;stroke-opacity:1" inkscape:connector-curvature="0" /> <path id="path1948" d="m 63.381317,99.197364 c 0,-2.20762 -1.79144,-3.99906 -4.00184,-3.99906 -2.20762,0 -3.99906,1.79144 -3.99906,3.99906 0,2.210356 1.79144,4.001836 3.99906,4.001836 2.2104,0 4.00184,-1.79148 4.00184,-4.001836 z m 0,0" style="fill:#dc4a2b;fill-opacity:1;fill-rule:nonzero;stroke:none;stroke-width:0.28200001;stroke-linecap:butt;stroke-linejoin:miter;stroke-miterlimit:10;stroke-dasharray:none;stroke-opacity:1" inkscape:connector-curvature="0" /> </g> <g transform="translate(-79.357779,64.255954)" id="g6103" style="stroke:none;stroke-width:0.141;stroke-miterlimit:10;stroke-dasharray:none"> <path id="path1934" d="m 43.37871,70.712067 c 0.05072,-2.20978 -1.699202,-4.039118 -3.90624,-4.089776 -2.209778,-0.05072 -4.039052,1.69646 -4.089774,3.90624 -0.05072,2.2098 1.69646,4.039076 3.906238,4.089796 2.20704,0.05066 4.039054,-1.69646 4.089776,-3.90626 z m 0,0" style="fill:#c20063;fill-opacity:1;fill-rule:nonzero;stroke:none;stroke-width:0.28200001;stroke-linecap:butt;stroke-linejoin:miter;stroke-miterlimit:10;stroke-dasharray:none;stroke-opacity:1" inkscape:connector-curvature="0" /> <path id="path1950" d="m 43.379762,99.197364 c 0,-2.20762 -1.79144,-3.99906 -3.99906,-3.99906 -2.21036,0 -3.99906,1.79144 -3.99906,3.99906 0,2.210356 1.7887,4.001836 3.99906,4.001836 2.20762,0 3.99906,-1.79148 3.99906,-4.001836 z m 0,0" style="fill:#c20063;fill-opacity:1;fill-rule:nonzero;stroke:none;stroke-width:0.28200001;stroke-linecap:butt;stroke-linejoin:miter;stroke-miterlimit:10;stroke-dasharray:none;stroke-opacity:1" inkscape:connector-curvature="0" /> <path id="path1984" d="m 43.379762,140.88647 c 0,-2.20762 -1.79144,-3.99906 -3.99906,-3.99906 -2.21036,0 -3.99906,1.79144 -3.99906,3.99906 0,2.21036 1.7887,3.99906 3.99906,3.99906 2.20762,0 3.99906,-1.7887 3.99906,-3.99906 z m 0,0" style="fill:#c20063;fill-opacity:1;fill-rule:nonzero;stroke:none;stroke-width:0.28200001;stroke-linecap:butt;stroke-linejoin:miter;stroke-miterlimit:10;stroke-dasharray:none;stroke-opacity:1" inkscape:connector-curvature="0" /> </g> <g transform="translate(-79.357779,64.255954)" id="g6108"> <path id="path1986" d="M 128.9642,42.042559 H 103.84846 68.964442" style="fill:none;stroke:#00857d;stroke-width:2;stroke-linecap:butt;stroke-linejoin:miter;stroke-miterlimit:10;stroke-dasharray:none;stroke-opacity:1" inkscape:connector-curvature="0" sodipodi:nodetypes="ccc" /> <path id="path2008" d="M 98.964332,100.94542 V -13.227802" style="fill:none;stroke:#00857d;stroke-width:2;stroke-linecap:butt;stroke-linejoin:miter;stroke-miterlimit:10;stroke-dasharray:none;stroke-opacity:1" inkscape:connector-curvature="0" /> <path id="path2034" d="M 88.815081,147.88002 H 109.45809 V -4.4276442 H 88.815081 Z m 0,0" style="fill:none;stroke:#00857d;stroke-width:2;stroke-linecap:butt;stroke-linejoin:miter;stroke-miterlimit:10;stroke-dasharray:none;stroke-opacity:1" inkscape:connector-curvature="0" /> </g> <path id="path1558" d="m -69.390867,153.93675 c 0.880738,-18.15328 -30.24746,-41.54289 -31.302913,-56.75309 -5.8663,-21.891943 -0.3744,-25.106756 -9.60241,-30.934369 -15.31416,3.219704 -4.83872,12.865926 -9.53563,27.186316 -24.74213,12.182243 -48.49325,22.294203 -39.72685,32.696673 27.51732,-20.66381 37.11765,-11.20489 38.68183,8.17788 0.70183,8.69671 -39.45783,32.83609 -42.63752,50.59678 8.37567,2.40552 43.89629,-40.05585 44.13591,-29.02828 0.50186,23.09606 0.12371,48.12502 5.25323,48.17163 34.431045,0.31288 3.82603,-57.32994 9.0728,-80.7844 1.68845,-7.54779 27.378544,31.31643 35.661553,30.67086 z" style="fill:none;stroke:#ffffff;stroke-width:2;stroke-linecap:butt;stroke-linejoin:miter;stroke-miterlimit:10;stroke-dasharray:none;stroke-opacity:1" inkscape:connector-curvature="0" sodipodi:nodetypes="cccccscsssc"/></g>
</svg>
