<svg viewBox="0 0 219.42917 162.10782" xmlns="http://www.w3.org/2000/svg"><g transform="translate(169.82275 -51.028152)"><path d="m-17.976688 99.032112c0-1.10518-.89572-1.99953-2.00092-1.99953-1.10381 0-1.99953.89435-1.99953 1.99953 0 1.103808.89572 1.999538 1.99953 1.999538 1.1052 0 2.00092-.89573 2.00092-1.999538zm0 0" fill="#dc4a2b"/><path d="m4.0223204 99.032103c0-2.21036-1.791462-3.99906-3.99906202-3.99906-2.21038198 0-3.99908198 1.7887-3.99908198 3.99906 0 2.207617 1.7887 3.999077 3.99908198 3.999077 2.20760002 0 3.99906202-1.79146 3.99906202-3.999077zm0 0" fill="#006ebd"/><path d="m41.48979 106.29851c-.16398-.04-.879189-.26596-1.327049-.50988v1.01975c.44786-.24529 1.163069-.46991 1.327049-.50987zm0 0" fill="#fff" stroke="#fff" stroke-miterlimit="10" stroke-width=".140582"/><g fill="#00857d" transform="translate(-79.357779 64.255954)"><path d="m103.3816 17.097988c0-2.21036-1.79144-4.001822-3.999052-4.001822-2.21034 0-4.0018 1.791462-4.0018 4.001822 0 2.207618 1.79146 3.99908 4.0018 3.99908 2.207612 0 3.999052-1.791462 3.999052-3.99908zm0 0"/><path d="m99.556187 42.043245c0-2.210382-1.79142-4.001824-4.0018-4.001824-2.20762 0-3.9991 1.791442-3.9991 4.001824 0 2.20762 1.79148 3.99906 3.9991 3.99906 2.21038 0 4.0018-1.79144 4.0018-3.99906zm0 0"/><path d="m107.20707 42.043245c0-2.210382-1.79144-4.001824-3.99906-4.001824-2.2104 0-4.001845 1.791442-4.001845 4.001824 0 2.20762 1.791445 3.99906 4.001845 3.99906 2.20762 0 3.99906-1.79144 3.99906-3.99906zm0 0"/><path d="m103.3816 70.620298c0-2.210362-1.79144-3.999062-3.999052-3.999062-2.21034 0-4.0018 1.7887-4.0018 3.999062 0 2.210382 1.79146 3.999082 4.0018 3.999082 2.207612 0 3.999052-1.7887 3.999052-3.999082zm0 0"/></g><g stroke-miterlimit="10"><g fill="#dc4a2b" stroke-width=".141" transform="translate(-79.357779 64.255954)"><path d="m63.381317 2.5638224c0-2.20761981-1.79144-3.9990599-4.00184-3.9990599-2.20762 0-3.99906 1.79144009-3.99906 3.9990599 0 2.21038 1.79144 4.0018204 3.99906 4.0018204 2.2104 0 4.00184-1.7914404 4.00184-4.0018204zm0 0"/><path d="m63.381317 34.776148c0-2.21036-1.79144-3.99906-4.00184-3.99906-2.20762 0-3.99906 1.7887-3.99906 3.99906 0 2.20762 1.79144 3.999078 3.99906 3.999078 2.2104 0 4.00184-1.791458 4.00184-3.999078zm0 0"/><path d="m59.553802 91.933732c0-2.21036-1.79142-4.001818-3.99906-4.001818-2.21036 0-3.99906 1.791458-3.99906 4.001818 0 2.20762 1.7887 3.99906 3.99906 3.99906 2.20764 0 3.99906-1.79144 3.99906-3.99906zm0 0"/><path d="m67.206747 91.933732c0-2.21036-1.79144-4.001818-4.00182-4.001818-2.2076 0-3.99908 1.791458-3.99908 4.001818 0 2.20762 1.79148 3.99906 3.99908 3.99906 2.21038 0 4.00182-1.79144 4.00182-3.99906zm0 0"/><path d="m63.381317 99.197364c0-2.20762-1.79144-3.99906-4.00184-3.99906-2.20762 0-3.99906 1.79144-3.99906 3.99906 0 2.210356 1.79144 4.001836 3.99906 4.001836 2.2104 0 4.00184-1.79148 4.00184-4.001836zm0 0"/></g><g fill="#c20063" stroke-width=".141" transform="translate(-79.357779 64.255954)"><path d="m43.37871 70.712067c.05072-2.20978-1.699202-4.039118-3.90624-4.089776-2.209778-.05072-4.039052 1.69646-4.089774 3.90624-.05072 2.2098 1.69646 4.039076 3.906238 4.089796 2.20704.05066 4.039054-1.69646 4.089776-3.90626zm0 0"/><path d="m43.379762 99.197364c0-2.20762-1.79144-3.99906-3.99906-3.99906-2.21036 0-3.99906 1.79144-3.99906 3.99906 0 2.210356 1.7887 4.001836 3.99906 4.001836 2.20762 0 3.99906-1.79148 3.99906-4.001836zm0 0"/><path d="m43.379762 140.88647c0-2.20762-1.79144-3.99906-3.99906-3.99906-2.21036 0-3.99906 1.79144-3.99906 3.99906 0 2.21036 1.7887 3.99906 3.99906 3.99906 2.20762 0 3.99906-1.7887 3.99906-3.99906zm0 0"/></g><g fill="none" stroke="#00857d" stroke-width="2" transform="translate(-79.357779 64.255954)"><path d="m128.9642 42.042559h-25.11574-34.884018"/><path d="m98.964332 100.94542v-114.173222"/><path d="m88.815081 147.88002h20.643009v-152.3076642h-20.643009zm0 0"/></g><path d="m-69.390867 153.93675c.880738-18.15328-30.24746-41.54289-31.302913-56.75309-5.8663-21.891943-.3744-25.106756-9.60241-30.934369-15.31416 3.219704-4.83872 12.865926-9.53563 27.186316-24.74213 12.182243-48.49325 22.294203-39.72685 32.696673 27.51732-20.66381 37.11765-11.20489 38.68183 8.17788.70183 8.69671-39.45783 32.83609-42.63752 50.59678 8.37567 2.40552 43.89629-40.05585 44.13591-29.02828.50186 23.09606.12371 48.12502 5.25323 48.17163 34.431045.31288 3.82603-57.32994 9.0728-80.7844 1.68845-7.54779 27.378544 31.31643 35.661553 30.67086z" fill="none" stroke="#fff" stroke-width="2"/></g></g></svg>