<svg height="67mm" viewBox="0 0 67 67" width="67mm" xmlns="http://www.w3.org/2000/svg"><clipPath id="a"><path d="M61 14h189.4v11H61zm0 0"/></clipPath><clipPath id="b"><path d="M158 13h92.4v50H158zm0 0"/></clipPath><clipPath id="c"><path d="M175 13h75.4v50H175zm0 0"/></clipPath><clipPath id="d"><path d="M191 13h59.4v50H191zm0 0"/></clipPath><clipPath id="e"><path d="M208 13h42.4v50H208zm0 0"/></clipPath><g stroke="#fff" stroke-miterlimit="10"><g stroke-width=".1"><path d="M13.8 20a.8.8 0 1 0-1.6 0 .8.8 0 0 0 1.6 0zm0 0M19.6 20a.8.8 0 1 0-1.6 0 .8.8 0 0 0 1.6 0zm0 0M25.5 20a.8.8 0 1 0-1.6 0 .8.8 0 0 0 1.6 0zm0 0M31.4 20a.8.8 0 1 0-1.6 0 .8.8 0 0 0 1.6 0zm0 0M37.2 20a.8.8 0 1 0-1.6 0 .8.8 0 0 0 1.6 0zm0 0M43 20a.8.8 0 1 0-1.5 0 .8.8 0 0 0 1.6 0zm0 0M49 20a.8.8 0 1 0-1.7 0 .8.8 0 0 0 1.6 0zm0 0M54.8 20a.8.8 0 1 0-1.6 0 .8.8 0 0 0 1.6 0zm0 0M25.5 33.3a.8.8 0 1 0-1.6 0 .8.8 0 0 0 1.6 0zm0 0M31.4 33.3a.8.8 0 1 0-1.6 0 .8.8 0 0 0 1.6 0zm0 0M37.2 33.3a.8.8 0 1 0-1.6 0 .8.8 0 0 0 1.6 0zm0 0M43 33.3a.8.8 0 1 0-1.5 0 .8.8 0 0 0 1.6 0zm0 0" fill="#fff"/><g fill="none"><path d="M12.9 20l11.7 13.3M12.9 20l17.6 13.3M12.9 20l23.4 13.3M12.9 20l29.3 13.3M18.8 20l5.8 13.3M18.8 20l11.7 13.3M18.8 20l17.5 13.3M18.8 20l23.4 13.3M24.6 20v13.3M24.6 20l5.9 13.3M24.6 20l11.7 13.3M24.6 20l17.6 13.3M30.5 20l-5.9 13.3M30.5 20v13.3M30.5 20l5.8 13.3M30.5 20l11.7 13.3M36.3 20L24.6 33.3M36.3 20l-5.8 13.3M36.3 20v13.3M36.3 20l5.9 13.3M42.2 20L24.6 33.3M42.2 20L30.5 33.3M42.2 20l-5.9 13.3M42.2 20v13.3M48 20L24.7 33.3M48 20L30.6 33.3M48 20L36.4 33.3M48 20l-5.8 13.3M54 20L24.5 33.3M54 20L30.4 33.3M54 20L36.2 33.3M54 20L42.1 33.3"/></g><path d="M31.4 46.6a.8.8 0 1 0-1.6 0 .8.8 0 0 0 1.6 0zm0 0M37.2 46.6a.8.8 0 1 0-1.6 0 .8.8 0 0 0 1.6 0zm0 0" fill="#fff"/><path d="M24.6 33.3l5.9 13.3M24.6 33.3l11.7 13.3M30.5 33.3v13.3M30.5 33.3l5.8 13.3M36.3 33.3l-5.8 13.3M36.3 33.3v13.3M42.2 33.3L30.5 46.6M42.2 33.3l-5.9 13.3" fill="none"/></g><g fill="none"><path d="M30.5 46.6l-3 11.2M30.5 46.6l-.7 11.2M30.5 46.6L32 57.8M30.5 46.6l3.7 11.2M30.5 46.6l6 11.2M30.5 46.6l8.2 11.2M30.5 46.6l10.4 11.2M36.3 46.6l-8.2 11.2M36.3 46.6l-6 11.2M36.3 46.6l-3.7 11.2M36.3 46.6l.7 11.2M36.3 46.6l5.2 11.2m-5.2-11.2l3 11.2m-3-11.2l-1.5 11.2m1.5-11.2L26 57.8m4.6-11.2l-5.2 11.2" stroke-width=".141112"/><path d="M22 60.1h22.2v-4.8H22zm0 0" stroke-width=".1"/></g></g><g clip-path="url(#a)" transform="matrix(.35278 0 0 .35278 -21.5 -.3)"><path d="M61.3 24.7h188.9V14.3H61.3zm0 0" fill="none" stroke="#fff" stroke-miterlimit="10" stroke-width=".4"/></g><g fill="none" stroke="#fff" stroke-miterlimit="10" stroke-width=".4"><path d="M2 6.7L12.8 20M2 6.7L18.7 20M2 6.7L24.5 20M2 6.7L30.4 20M2 6.7L36.2 20M2 6.7L42.1 20M2 6.7L48 20M2 6.7L54 20M9.8 6.7l3 13.3M9.8 6.7l9 13.3M9.8 6.7L24.6 20M9.8 6.7L30.5 20M9.8 6.7L36.3 20M9.8 6.7L42.2 20M9.8 6.7L48 20M9.8 6.7L53.9 20M17.7 6.7L12.9 20M17.7 6.7l1 13.3M17.7 6.7l7 13.3M17.7 6.7L30.5 20M17.7 6.7L36.3 20M17.7 6.7L42.2 20M17.7 6.7L48 20M17.7 6.7L53.9 20M25.5 6.7L13 20M25.5 6.7L18.8 20M25.5 6.7L24.6 20M25.5 6.7l5 13.3M25.5 6.7L36.3 20M25.5 6.7L42.2 20M25.5 6.7L48.1 20M25.5 6.7L54 20M33.4 6.7L12.9 20M33.4 6.7L18.8 20M33.4 6.7L24.6 20M33.4 6.7l-3 13.3M33.4 6.7l3 13.3M33.4 6.7L42.2 20M33.4 6.7L48.1 20M33.4 6.7L53.9 20M41.3 6.7L12.9 20M41.3 6.7L18.8 20M41.3 6.7L24.6 20M41.3 6.7L30.5 20M41.3 6.7l-5 13.3M41.3 6.7l.9 13.3M41.3 6.7L48 20M41.3 6.7L53.9 20M49.1 6.7L18.8 20M49.1 6.7L24.6 20M49.1 6.7L30.5 20M49.1 6.7L36.3 20M49.1 6.7l-7 13.3M49.1 6.7l-1 13.3M49.1 6.7L54 20M57 6.7L18.8 20M57 6.7L24.6 20M57 6.7L36.3 20M57 6.7L42.2 20M57 6.7L48 20M57 6.7L54 20" stroke-width=".141112"/></g><g clip-path="url(#b)" transform="matrix(.35278 0 0 .35278 -21.5 -.1)"><path d="M245 19.5L164 57" fill="none" stroke="#fff" stroke-miterlimit="10" stroke-width=".4"/></g><g clip-path="url(#c)" transform="matrix(.35278 0 0 .35278 -21.5 -.1)"><path d="M245 19.5L180.6 57" fill="none" stroke="#fff" stroke-miterlimit="10" stroke-width=".4"/></g><g clip-path="url(#d)" transform="matrix(.35278 0 0 .35278 -21.5 -.1)"><path d="M245 19.5L197.3 57" fill="none" stroke="#fff" stroke-miterlimit="10" stroke-width=".4"/></g><g clip-path="url(#e)" transform="matrix(.35278 0 0 .35278 -21.5 -.1)"><path d="M245 19.5L213.9 57" fill="none" stroke="#fff" stroke-miterlimit="10" stroke-width=".4"/></g></svg>