<svg height="463.53pt" viewBox="0 0 649.75 463.53" width="649.75pt" xmlns="http://www.w3.org/2000/svg" xmlns:xlink="http://www.w3.org/1999/xlink"><symbol id="a" overflow="visible"><path d="m8.765625 0v-.3125h-.25c-.765625 0-.78125-.109375-.78125-.46875v-5.25c0-.359375.015625-.46875.78125-.46875h.25v-.3125h-1.6875c-.265625 0-.265625.015625-.328125.1875l-2.1875 5.625-2.15625-5.59375c-.09375-.21875-.125-.21875-.359375-.21875h-1.671875v.3125h.234375c.765625 0 .78125.109375.78125.46875v4.984375c0 .265625 0 .734375-1.015625.734375v.3125l1.15625-.03125 1.171875.03125v-.3125c-1.03125 0-1.03125-.46875-1.03125-.734375v-5.375h.015625l2.40625 6.203125c.046875.125.09375.21875.1875.21875.109375 0 .140625-.078125.1875-.1875l2.453125-6.3125v5.71875c0 .359375-.015625.46875-.78125.46875h-.234375v.3125c.359375-.03125 1.046875-.03125 1.4375-.03125.375 0 1.046875 0 1.421875.03125zm0 0"/></symbol><symbol id="b" overflow="visible"><path d="m7.1875-3.375c0-2.03125-1.5-3.65625-3.3125-3.65625-1.796875 0-3.3125 1.59375-3.3125 3.65625 0 2.046875 1.53125 3.59375 3.3125 3.59375 1.8125 0 3.3125-1.578125 3.3125-3.59375zm-1.03125-.140625c0 2.640625-1.359375 3.46875-2.28125 3.46875-.953125 0-2.296875-.875-2.296875-3.46875 0-2.578125 1.46875-3.265625 2.296875-3.265625.859375 0 2.28125.703125 2.28125 3.265625zm0 0"/></symbol><symbol id="c" overflow="visible"><path d="m7.28125-6.5v-.3125c-.3125.03125-.71875.03125-.96875.03125l-1.140625-.03125v.3125c.515625.015625.734375.265625.734375.5 0 .078125-.03125.140625-.046875.203125l-1.828125 4.796875-1.90625-5.03125c-.0625-.140625-.0625-.171875-.0625-.171875 0-.296875.5625-.296875.8125-.296875v-.3125c-.359375.03125-1.046875.03125-1.421875.03125l-1.265625-.03125v.3125c.65625 0 .84375 0 .984375.375l2.3125 6.125c.0625.1875.109375.21875.25.21875.15625 0 .1875-.046875.234375-.1875l2.21875-5.859375c.140625-.375.40625-.65625 1.09375-.671875zm0 0"/></symbol><symbol id="d" overflow="visible"><path d="m6.5-2.578125h-.25c-.25 1.546875-.484375 2.265625-2.1875 2.265625h-1.328125c-.46875 0-.484375-.0625-.484375-.390625v-2.671875h.890625c.96875 0 1.078125.328125 1.078125 1.171875h.25v-2.640625h-.25c0 .859375-.109375 1.171875-1.078125 1.171875h-.890625v-2.40625c0-.328125.015625-.390625.484375-.390625h1.28125c1.53125 0 1.796875.546875 1.953125 1.9375h.25l-.28125-2.25h-5.609375v.3125h.234375c.765625 0 .796875.109375.796875.46875v5.21875c0 .359375-.03125.46875-.796875.46875h-.234375v.3125h5.75zm0 0"/></symbol><symbol id="e" overflow="visible"><path d="m6.828125-4.5-.1875-2.25h-6.09375l-.1875 2.25h.25c.140625-1.609375.28125-1.9375 1.796875-1.9375.171875 0 .4375 0 .53125.015625.21875.046875.21875.15625.21875.375v5.265625c0 .328125 0 .46875-1.046875.46875h-.40625v.3125c.40625-.03125 1.421875-.03125 1.890625-.03125.453125 0 1.484375 0 1.890625.03125v-.3125h-.40625c-1.046875 0-1.046875-.140625-1.046875-.46875v-5.265625c0-.1875 0-.328125.1875-.375.109375-.015625.375-.015625.5625-.015625 1.515625 0 1.65625.328125 1.796875 1.9375zm0 0"/></symbol><symbol id="f" overflow="visible"><path d="m4.96875-1.859375c0-.984375-.65625-1.8125-1.484375-2.015625l-1.28125-.296875c-.625-.15625-1-.6875-1-1.265625 0-.703125.53125-1.3125 1.3125-1.3125 1.65625 0 1.875 1.640625 1.9375 2.078125.015625.0625.015625.125.125.125.125 0 .125-.046875.125-.234375v-2c0-.171875 0-.25-.109375-.25-.0625 0-.078125.015625-.140625.140625l-.359375.5625c-.296875-.296875-.703125-.703125-1.59375-.703125-1.109375 0-1.9375.875-1.9375 1.9375 0 .828125.53125 1.5625 1.296875 1.828125.109375.03125.625.15625 1.328125.328125.265625.0625.5625.140625.84375.5.203125.265625.3125.59375.3125.921875 0 .703125-.5 1.421875-1.34375 1.421875-.28125 0-1.046875-.046875-1.578125-.53125-.578125-.546875-.609375-1.171875-.609375-1.53125-.015625-.109375-.09375-.109375-.125-.109375-.125 0-.125.078125-.125.25v2c0 .171875 0 .234375.109375.234375.0625 0 .078125-.015625.140625-.125 0 0 .03125-.046875.359375-.578125.3125.34375.953125.703125 1.84375.703125 1.15625 0 1.953125-.96875 1.953125-2.078125zm0 0"/></symbol><symbol id="g" overflow="visible"><path d="m4.640625-6.5v-.3125l-1.296875.03125c-.40625 0-1.296875 0-1.671875-.03125v.3125h.359375c.984375 0 .984375.125.984375.484375v4.546875c0 .90625-.5 1.46875-1.03125 1.46875-.0625 0-.734375 0-1.09375-.578125.515625 0 .640625-.296875.640625-.5625 0-.359375-.28125-.546875-.5625-.546875-.21875 0-.5625.125-.5625.578125 0 .734375.703125 1.328125 1.59375 1.328125 1.015625 0 1.75-.703125 1.859375-1.4375.015625-.09375.015625-.109375.015625-.453125v-4.421875c0-.40625.125-.40625.765625-.40625zm0 0"/></symbol><symbol id="h" overflow="visible"><path d="m6.625-2.328125c0-.09375 0-.171875-.125-.171875-.109375 0-.109375.0625-.125.171875-.078125 1.421875-1.140625 2.234375-2.234375 2.234375-.609375 0-2.5625-.328125-2.5625-3.3125 0-2.96875 1.953125-3.3125 2.5625-3.3125 1.078125 0 1.96875.90625 2.171875 2.359375.015625.140625.015625.171875.15625.171875.15625 0 .15625-.03125.15625-.234375v-2.359375c0-.171875 0-.25-.109375-.25-.03125 0-.078125 0-.15625.125l-.5.734375c-.359375-.359375-.875-.859375-1.828125-.859375-1.875 0-3.46875 1.59375-3.46875 3.625 0 2.0625 1.609375 3.625 3.46875 3.625 1.625 0 2.59375-1.390625 2.59375-2.546875zm0 0"/></symbol><symbol id="i" overflow="visible"><path d="m7.140625 0v-.3125h-.171875c-.59375 0-.734375-.0625-.84375-.390625l-2.15625-6.234375c-.046875-.125-.078125-.203125-.234375-.203125s-.1875.0625-.234375.203125l-2.0625 5.953125c-.1875.515625-.578125.671875-1.125.671875v.3125l1.015625-.03125 1.15625.03125v-.3125c-.5 0-.75-.25-.75-.5 0-.03125.015625-.140625.015625-.15625l.46875-1.296875h2.453125l.53125 1.515625c.015625.046875.03125.109375.03125.140625 0 .296875-.5625.296875-.828125.296875v.3125c.359375-.03125 1.0625-.03125 1.4375-.03125zm-2.578125-2.578125h-2.234375l1.109375-3.25zm0 0"/></symbol><symbol id="j" overflow="visible"><path d="m7.046875-3.34375c0-1.90625-1.34375-3.46875-3.046875-3.46875h-3.65625v.3125h.25c.765625 0 .78125.109375.78125.46875v5.25c0 .359375-.015625.46875-.78125.46875h-.25v.3125h3.65625c1.671875 0 3.046875-1.46875 3.046875-3.34375zm-1 0c0 1.09375-.1875 1.703125-.546875 2.1875-.203125.265625-.765625.84375-1.765625.84375h-1.015625c-.46875 0-.484375-.0625-.484375-.390625v-5.390625c0-.34375.015625-.40625.484375-.40625h1c.625 0 1.3125.21875 1.8125.921875.4375.59375.515625 1.453125.515625 2.234375zm0 0"/></symbol><symbol id="k" overflow="visible"><path d="m3.3125 0v-.3125h-.25c-.796875 0-.8125-.109375-.8125-.46875v-5.25c0-.359375.015625-.46875.8125-.46875h.25v-.3125c-.34375.03125-1.125.03125-1.515625.03125-.375 0-1.171875 0-1.515625-.03125v.3125h.25c.796875 0 .828125.109375.828125.46875v5.25c0 .359375-.03125.46875-.828125.46875h-.25v.3125c.34375-.03125 1.140625-.03125 1.515625-.03125.390625 0 1.171875 0 1.515625.03125zm0 0"/></symbol><symbol id="l" overflow="visible"><path d="m7.296875-.875c0-.0625 0-.171875-.125-.171875-.109375 0-.109375.09375-.125.15625-.0625.71875-.40625.890625-.65625.890625-.484375 0-.5625-.515625-.703125-1.4375l-.140625-.796875c-.171875-.640625-.65625-.96875-1.203125-1.15625.953125-.234375 1.734375-.84375 1.734375-1.625 0-.953125-1.140625-1.796875-2.59375-1.796875h-3.140625v.3125h.25c.765625 0 .78125.109375.78125.46875v5.25c0 .359375-.015625.46875-.78125.46875h-.25v.3125c.359375-.03125 1.078125-.03125 1.453125-.03125.390625 0 1.109375 0 1.46875.03125v-.3125h-.25c-.765625 0-.78125-.109375-.78125-.46875v-2.515625h1.140625c.15625 0 .578125 0 .9375.34375.375.34375.375.65625.375 1.328125 0 .640625 0 1.046875.40625 1.421875.40625.359375.953125.421875 1.25.421875.78125 0 .953125-.8125.953125-1.09375zm-2.25-4.140625c0 .6875-.234375 1.5-1.703125 1.5h-1.109375v-2.578125c0-.234375 0-.359375.21875-.390625.09375-.015625.390625-.015625.59375-.015625.890625 0 2 .046875 2 1.484375zm0 0"/></symbol><symbol id="m" overflow="visible"><path d="m5.796875-2.578125h-.25c-.109375 1.015625-.25 2.265625-2 2.265625h-.8125c-.46875 0-.484375-.0625-.484375-.390625v-5.3125c0-.34375 0-.484375.9375-.484375h.328125v-.3125c-.359375.03125-1.265625.03125-1.671875.03125-.390625 0-1.171875 0-1.515625-.03125v.3125h.234375c.765625 0 .796875.109375.796875.46875v5.25c0 .359375-.03125.46875-.796875.46875h-.234375v.3125h5.1875zm0 0"/></symbol><symbol id="n" overflow="visible"><path d="m6.21875-4.953125c0-.984375-.984375-1.859375-2.34375-1.859375h-3.53125v.3125h.25c.765625 0 .78125.109375.78125.46875v5.25c0 .359375-.015625.46875-.78125.46875h-.25v.3125c.359375-.03125 1.09375-.03125 1.46875-.03125s1.125 0 1.484375.03125v-.3125h-.25c-.765625 0-.78125-.109375-.78125-.46875v-2.375h1.6875c1.1875 0 2.265625-.796875 2.265625-1.796875zm-1.03125 0c0 .46875 0 1.546875-1.578125 1.546875h-1.375v-2.6875c0-.34375.015625-.40625.484375-.40625h.890625c1.578125 0 1.578125 1.0625 1.578125 1.546875zm0 0"/></symbol><symbol id="o" overflow="visible"><path d="m1.90625-.53125c0-.28125-.234375-.53125-.515625-.53125-.296875 0-.53125.25-.53125.53125 0 .296875.234375.53125.53125.53125.28125 0 .515625-.234375.515625-.53125zm0 0"/></symbol><symbol id="p" overflow="visible"><path d="m11.375 0v-.421875c-.71875 0-1.078125 0-1.09375-.421875v-2.640625c0-1.328125 0-1.734375-.328125-2.203125-.421875-.546875-1.09375-.640625-1.578125-.640625-1.1875 0-1.796875.859375-2.015625 1.421875-.203125-1.109375-.984375-1.421875-1.890625-1.421875-1.390625 0-1.9375 1.1875-2.046875 1.484375h-.015625v-1.484375l-1.953125.15625v.421875c.984375 0 1.09375.09375 1.09375.796875v3.890625c0 .640625-.15625.640625-1.09375.640625v.421875c.375-.03125 1.15625-.03125 1.5625-.03125s1.1875 0 1.5625.03125v-.421875c-.921875 0-1.09375 0-1.09375-.640625v-2.671875c0-1.5.984375-2.296875 1.875-2.296875s1.09375.71875 1.09375 1.59375v3.375c0 .640625-.15625.640625-1.09375.640625v.421875c.375-.03125 1.15625-.03125 1.546875-.03125.421875 0 1.1875 0 1.5625.03125v-.421875c-.90625 0-1.078125 0-1.078125-.640625v-2.671875c0-1.5.984375-2.296875 1.875-2.296875s1.09375.71875 1.09375 1.59375v3.375c0 .640625-.171875.640625-1.09375.640625v.421875c.375-.03125 1.140625-.03125 1.546875-.03125.421875 0 1.1875 0 1.5625.03125zm0 0"/></symbol><symbol id="q" overflow="visible"><path d="m6.578125-3.0625c0-1.859375-1.40625-3.328125-3.0625-3.328125-1.71875 0-3.078125 1.515625-3.078125 3.328125 0 1.828125 1.421875 3.203125 3.0625 3.203125 1.6875 0 3.078125-1.40625 3.078125-3.203125zm-1.078125-.140625c0 .5 0 1.390625-.375 2.0625-.40625.703125-1.0625.96875-1.609375.96875-.53125 0-1.171875-.234375-1.59375-.9375-.390625-.640625-.40625-1.484375-.40625-2.09375 0-.546875 0-1.421875.453125-2.0625.390625-.609375 1.03125-.84375 1.53125-.84375.5625 0 1.15625.25 1.546875.8125.453125.65625.453125 1.5625.453125 2.09375zm0 0"/></symbol><symbol id="r" overflow="visible"><path d="m7.140625-5.765625v-.421875c-.40625.03125-.609375.03125-1.078125.03125l-1.15625-.03125v.421875c.53125.03125.65625.359375.65625.609375 0 .140625-.03125.203125-.078125.34375l-1.46875 3.625-1.59375-3.90625c-.078125-.203125-.078125-.296875-.078125-.296875 0-.375.5-.375.78125-.375v-.421875c-.375.03125-1.078125.03125-1.46875.03125l-1.390625-.03125v.421875c.828125 0 .9375.078125 1.125.515625l2.140625 5.25c-.640625 1.515625-.640625 1.546875-.6875 1.65625-.25.4375-.640625.984375-1.28125.984375-.4375 0-.71875-.265625-.71875-.265625s.5-.046875.5-.546875c0-.34375-.265625-.53125-.53125-.53125-.234375 0-.546875.140625-.546875.546875 0 .546875.53125 1.078125 1.296875 1.078125.796875 0 1.390625-.703125 1.765625-1.609375l2.484375-6.109375c.390625-.953125 1.0625-.96875 1.328125-.96875zm0 0"/></symbol><symbol id="s" overflow="visible"><path d="m5.84375-1.703125c0-.09375-.078125-.140625-.15625-.140625-.125 0-.15625.0625-.171875.140625-.375 1.203125-1.34375 1.53125-1.9375 1.53125-.609375 0-2.0625-.40625-2.0625-2.890625v-.265625h3.984375c.3125 0 .34375 0 .34375-.265625 0-1.453125-.78125-2.796875-2.515625-2.796875-1.640625 0-2.890625 1.46875-2.890625 3.25 0 1.890625 1.453125 3.28125 3.046875 3.28125 1.703125 0 2.359375-1.546875 2.359375-1.84375zm-.890625-1.890625h-3.421875c.125-2.265625 1.375-2.515625 1.78125-2.515625 1.53125 0 1.625 2.015625 1.640625 2.515625zm0 0"/></symbol><symbol id="t" overflow="visible"><path d="m7.46875 0v-.421875c-.71875 0-1.078125 0-1.078125-.421875v-2.640625c0-1.328125 0-1.734375-.34375-2.203125-.40625-.546875-1.078125-.640625-1.578125-.640625-1.390625 0-1.9375 1.1875-2.046875 1.484375h-.015625v-1.484375l-1.953125.15625v.421875c.984375 0 1.09375.09375 1.09375.796875v3.890625c0 .640625-.15625.640625-1.09375.640625v.421875c.375-.03125 1.15625-.03125 1.5625-.03125s1.1875 0 1.5625.03125v-.421875c-.921875 0-1.09375 0-1.09375-.640625v-2.671875c0-1.5.984375-2.296875 1.875-2.296875s1.09375.71875 1.09375 1.59375v3.375c0 .640625-.15625.640625-1.09375.640625v.421875c.375-.03125 1.15625-.03125 1.546875-.03125.421875 0 1.1875 0 1.5625.03125zm0 0"/></symbol><symbol id="u" overflow="visible"><path d="m7.140625-5.765625v-.421875c-.40625.03125-.609375.03125-1.0625.03125l-1.171875-.03125v.421875c.609375.03125.671875.453125.671875.609375 0 .140625-.03125.203125-.09375.375l-1.46875 3.703125-1.609375-4.046875c-.0625-.203125-.078125-.203125-.078125-.265625 0-.375.546875-.375.796875-.375v-.421875c-.359375.03125-1.109375.03125-1.484375.03125l-1.375-.03125v.421875c.796875 0 .9375.0625 1.109375.5l2.046875 5.140625c.078125.203125.109375.265625.28125.265625.09375 0 .1875-.03125.28125-.265625l1.875-4.6875c.125-.328125.359375-.9375 1.28125-.953125zm0 0"/></symbol><symbol id="v" overflow="visible"><path d="m6.796875-1.28125v-.796875h-.3125v.796875c0 .828125-.34375.9375-.546875.9375-.546875 0-.546875-.765625-.546875-.96875v-2.515625c0-.78125 0-1.34375-.625-1.90625-.5-.46875-1.15625-.65625-1.78125-.65625-1.171875 0-2.078125.765625-2.078125 1.703125 0 .40625.265625.609375.59375.609375.34375 0 .59375-.234375.59375-.578125 0-.59375-.515625-.59375-.734375-.59375.328125-.609375 1.015625-.859375 1.59375-.859375.65625 0 1.5.546875 1.5 1.828125v.578125c-2.875.046875-3.96875 1.25-3.96875 2.359375 0 1.125 1.328125 1.484375 2.203125 1.484375.9375 0 1.59375-.578125 1.859375-1.265625.0625.6875.5 1.203125 1.125 1.203125.296875 0 1.125-.203125 1.125-1.359375zm-2.34375-.734375c0 1.40625-1.046875 1.875-1.65625 1.875-.703125 0-1.296875-.515625-1.296875-1.203125 0-1.890625 2.4375-2.0625 2.953125-2.09375zm0 0"/></symbol><symbol id="w" overflow="visible"><path d="m5.0625-5.5c0-.421875-.390625-.828125-1-.828125-1.21875 0-1.640625 1.328125-1.71875 1.59375h-.015625v-1.59375l-1.921875.15625v.421875c.96875 0 1.078125.09375 1.078125.796875v3.890625c0 .640625-.15625.640625-1.078125.640625v.421875c.390625-.03125 1.1875-.03125 1.609375-.03125.390625 0 1.40625 0 1.75.03125v-.421875h-.296875c-1.046875 0-1.078125-.15625-1.078125-.671875v-2.25c0-1.390625.578125-2.6875 1.6875-2.6875h.203125c-.125.0625-.34375.15625-.34375.53125 0 .421875.328125.578125.546875.578125.296875 0 .578125-.1875.578125-.578125zm0 0"/></symbol><symbol id="x" overflow="visible"><path d="m3.453125 0v-.421875c-.921875 0-.984375-.0625-.984375-.625v-5.28125l-1.953125.15625v.421875c.921875 0 1.046875.078125 1.046875.78125v3.90625c0 .640625-.15625.640625-1.09375.640625v.421875c.40625-.03125 1.09375-.03125 1.515625-.03125.15625 0 .984375 0 1.46875.03125zm-.796875-8.65625c0-.4375-.34375-.703125-.6875-.703125-.40625 0-.703125.3125-.703125.703125 0 .359375.3125.6875.6875.6875.421875 0 .703125-.34375.703125-.6875zm0 0"/></symbol><symbol id="y" overflow="visible"><path d="m5.828125-1.703125c0-.140625-.109375-.140625-.140625-.140625-.140625 0-.15625.046875-.1875.21875-.328125 1.015625-1.09375 1.453125-1.875 1.453125-.875 0-2.03125-.765625-2.03125-2.9375 0-2.390625 1.21875-2.96875 1.9375-2.96875.546875 0 1.328125.21875 1.65625.765625-.171875 0-.703125 0-.703125.59375 0 .34375.25.59375.59375.59375.328125 0 .609375-.203125.609375-.625 0-.953125-1.015625-1.640625-2.171875-1.640625-1.671875 0-3.015625 1.484375-3.015625 3.296875 0 1.828125 1.375 3.234375 3 3.234375 1.890625 0 2.328125-1.71875 2.328125-1.84375zm0 0"/></symbol><symbol id="z" overflow="visible"><path d="m7.28125-3.09375c0-1.828125-1.34375-3.234375-2.9375-3.234375-.78125 0-1.453125.359375-1.953125.96875v-4.59375l-1.984375.15625v.421875c.96875 0 1.078125.09375 1.078125.796875v8.578125h.328125l.515625-.9375c.328125.53125.9375 1.078125 1.859375 1.078125 1.65625 0 3.09375-1.390625 3.09375-3.234375zm-1.078125-.015625c0 .953125-.15625 1.5625-.5 2.078125-.28125.4375-.859375.890625-1.578125.890625-.765625 0-1.265625-.5-1.515625-.890625-.1875-.296875-.1875-.359375-.1875-.609375v-2.953125c0-.25 0-.28125.15625-.515625.34375-.515625.984375-.921875 1.6875-.921875.421875 0 1.9375.171875 1.9375 2.921875zm0 0"/></symbol><path d="m-34.527844-34.21425h69.054688v68.429688h-69.054688zm0 0" fill="none" stroke="#fff" stroke-miterlimit="10" stroke-width=".79701" transform="matrix(1 0 0 -1 172.313 63.692)"/><g fill="#fff"><use x="144.428" xlink:href="#a" y="46.852"/><use x="153.563704" xlink:href="#b" y="46.852"/></g><use fill="#fff" x="161.035654" xlink:href="#c" y="46.852"/><g fill="#fff"><use x="171.815187" xlink:href="#a" y="46.852"/><use x="180.950892" xlink:href="#d" y="46.852"/><use x="187.735422" xlink:href="#a" y="46.852"/></g><g fill="#fff"><use x="144.428" xlink:href="#e" y="67.448"/><use x="151.620997" xlink:href="#d" y="67.448"/><use x="158.405528" xlink:href="#f" y="67.448"/><use x="163.944733" xlink:href="#e" y="67.448"/></g><g fill="#fff"><use x="144.428" xlink:href="#g" y="88.045"/><use x="149.548776" xlink:href="#h" y="88.045"/></g><path d="m17.40575-104.925187h43.3125v47.832031h-43.3125zm0 0" fill="none" stroke="#fff" stroke-miterlimit="10" stroke-width=".79701" transform="matrix(1 0 0 -1 172.313 63.692)"/><g fill="#fff"><use x="196.361" xlink:href="#e" y="138.159"/><use x="203.553997" xlink:href="#d" y="138.159"/><use x="210.338528" xlink:href="#f" y="138.159"/><use x="215.877733" xlink:href="#e" y="138.159"/></g><g fill="#fff"><use x="196.361" xlink:href="#g" y="158.756"/><use x="201.481776" xlink:href="#h" y="158.756"/></g><path d="m-.0005-34.612687v-3.550782" fill="none" stroke="#fff" stroke-miterlimit="10" stroke-width=".3985" transform="matrix(1 0 0 -1 172.313 63.692)"/><path d="m-.0005-38.163469h39.0625v-18.53125" fill="none" stroke="#fff" stroke-miterlimit="10" stroke-width=".3985" transform="matrix(1 0 0 -1 172.313 63.692)"/><path d="m211.375 120.386719 4.78125-9.566407-4.78125 3.585938-4.78125-3.585938" fill="#fff"/><path d="m-81.758312-104.925187h64.351562v47.832031h-64.351562zm0 0" fill="none" stroke="#fff" stroke-miterlimit="10" stroke-width=".79701" transform="matrix(1 0 0 -1 172.313 63.692)"/><g fill="#fff"><use x="97.196" xlink:href="#i" y="138.159"/><use x="104.66795" xlink:href="#j" y="138.159"/><use x="112.279376" xlink:href="#j" y="138.159"/></g><g fill="#fff"><use x="123.198386" xlink:href="#a" y="138.159"/><use x="132.33409" xlink:href="#d" y="138.159"/><use x="139.118621" xlink:href="#a" y="138.159"/></g><g fill="#fff"><use x="97.196" xlink:href="#g" y="158.756"/><use x="102.316776" xlink:href="#h" y="158.756"/></g><path d="m-.0005-34.612687v-3.550782" fill="none" stroke="#fff" stroke-miterlimit="10" stroke-width=".3985" transform="matrix(1 0 0 -1 172.313 63.692)"/><path d="m-.0005-38.163469h-49.582031v-18.53125" fill="none" stroke="#fff" stroke-miterlimit="10" stroke-width=".3985" transform="matrix(1 0 0 -1 172.313 63.692)"/><path d="m122.730469 120.386719 4.78125-9.566407-4.78125 3.585938-4.78125-3.585938" fill="#fff"/><path d="m-110.297375-185.936906h43.308594v47.835937h-43.308594zm0 0" fill="none" stroke="#fff" stroke-miterlimit="10" stroke-width=".79701" transform="matrix(1 0 0 -1 172.313 63.692)"/><g fill="#fff"><use x="68.655" xlink:href="#e" y="219.169"/><use x="75.847997" xlink:href="#d" y="219.169"/><use x="82.632528" xlink:href="#f" y="219.169"/><use x="88.171733" xlink:href="#e" y="219.169"/></g><g fill="#fff"><use x="68.655" xlink:href="#g" y="239.766"/><use x="73.775776" xlink:href="#h" y="239.766"/></g><path d="m-49.582531-105.323625v-3.550781" fill="none" stroke="#fff" stroke-miterlimit="10" stroke-width=".3985" transform="matrix(1 0 0 -1 172.313 63.692)"/><path d="m-49.582531-108.874406h-39.0625v-28.828125" fill="none" stroke="#fff" stroke-miterlimit="10" stroke-width=".3985" transform="matrix(1 0 0 -1 172.313 63.692)"/><path d="m83.667969 201.394531 4.78125-9.5625-4.78125 3.585938-4.78125-3.585938" fill="#fff"/><path d="m56.46825-185.936906h65.867188v47.835937h-65.867188zm0 0" fill="none" stroke="#fff" stroke-miterlimit="10" stroke-width=".79701" transform="matrix(1 0 0 -1 172.313 63.692)"/><g fill="#fff"><use x="235.423" xlink:href="#a" y="219.169"/><use x="244.558704" xlink:href="#b" y="219.169"/></g><use fill="#fff" x="252.030654" xlink:href="#c" y="219.169"/><g fill="#fff"><use x="262.810187" xlink:href="#k" y="219.169"/><use x="266.406686" xlink:href="#a" y="219.169"/><use x="275.54239" xlink:href="#a" y="219.169"/></g><g fill="#fff"><use x="235.423" xlink:href="#l" y="239.766"/><use x="242.755474" xlink:href="#d" y="239.766"/><use x="249.540004" xlink:href="#e" y="239.766"/></g><path d="m39.062-105.323625v-3.550781" fill="none" stroke="#fff" stroke-miterlimit="10" stroke-width=".3985" transform="matrix(1 0 0 -1 172.313 63.692)"/><path d="m39.062-108.874406h50.339844v-28.828125" fill="none" stroke="#fff" stroke-miterlimit="10" stroke-width=".3985" transform="matrix(1 0 0 -1 172.313 63.692)"/><path d="m261.714844 201.394531 4.78125-9.5625-4.78125 3.585938-4.78125-3.585938" fill="#fff"/><path d="m-171.918469-266.944719h65.867188v47.835938h-65.867188zm0 0" fill="none" stroke="#fff" stroke-miterlimit="10" stroke-width=".79701" transform="matrix(1 0 0 -1 172.313 63.692)"/><g fill="#fff"><use x="7.038" xlink:href="#a" y="300.178"/><use x="16.173704" xlink:href="#b" y="300.178"/></g><use fill="#fff" x="23.645654" xlink:href="#c" y="300.178"/><g fill="#fff"><use x="34.425187" xlink:href="#k" y="300.178"/><use x="38.021686" xlink:href="#a" y="300.178"/><use x="47.15739" xlink:href="#a" y="300.178"/></g><g fill="#fff"><use x="7.038" xlink:href="#l" y="320.775"/><use x="14.370474" xlink:href="#d" y="320.775"/><use x="21.155004" xlink:href="#e" y="320.775"/></g><path d="m-88.645031-186.335344v-3.546875" fill="none" stroke="#fff" stroke-miterlimit="10" stroke-width=".3985" transform="matrix(1 0 0 -1 172.313 63.692)"/><path d="m-88.645031-189.882219h-50.339844v-28.828125" fill="none" stroke="#fff" stroke-miterlimit="10" stroke-width=".3985" transform="matrix(1 0 0 -1 172.313 63.692)"/><path d="m33.328125 282.402344 4.78125-9.5625-4.78125 3.585937-4.78125-3.585937" fill="#fff"/><path d="m-71.238781-308.136125h69.054687v89.027344h-69.054687zm0 0" fill="none" stroke="#fff" stroke-miterlimit="10" stroke-width=".79701" transform="matrix(1 0 0 -1 172.313 63.692)"/><g fill="#fff"><use x="107.717" xlink:href="#a" y="300.179"/><use x="116.852704" xlink:href="#b" y="300.179"/></g><use fill="#fff" x="124.324654" xlink:href="#c" y="300.179"/><g fill="#fff"><use x="135.104187" xlink:href="#k" y="300.179"/><use x="138.700686" xlink:href="#a" y="300.179"/><use x="147.83639" xlink:href="#a" y="300.179"/></g><g fill="#fff"><use x="107.717" xlink:href="#a" y="320.775"/><use x="116.852704" xlink:href="#b" y="320.775"/></g><use fill="#fff" x="124.324654" xlink:href="#c" y="320.775"/><g fill="#fff"><use x="135.104187" xlink:href="#a" y="320.775"/><use x="144.239892" xlink:href="#d" y="320.775"/><use x="151.024422" xlink:href="#a" y="320.775"/></g><g fill="#fff"><use x="107.717" xlink:href="#h" y="341.371"/><use x="114.909997" xlink:href="#i" y="341.371"/><use x="122.381947" xlink:href="#m" y="341.371"/><use x="128.608572" xlink:href="#m" y="341.371"/></g><g fill="#fff"><use x="107.717" xlink:href="#g" y="361.968"/><use x="112.837776" xlink:href="#a" y="361.968"/><use x="121.973481" xlink:href="#n" y="361.968"/></g><path d="m-49.582531-105.323625v-3.550781h21.214844" fill="none" stroke="#fff" stroke-miterlimit="10" stroke-width=".3985" transform="matrix(1 0 0 -1 172.313 63.692)"/><path d="m-28.367687-108.874406h9.351562v-109.835938" fill="none" stroke="#fff" stroke-miterlimit="10" stroke-width=".3985" transform="matrix(1 0 0 -1 172.313 63.692)"/><path d="m153.296875 282.402344 4.78125-9.5625-4.78125 3.585937-4.785156-3.585937" fill="#fff"/><path d="m-88.645031-186.335344v-3.546875" fill="none" stroke="#fff" stroke-miterlimit="10" stroke-width=".3985" transform="matrix(1 0 0 -1 172.313 63.692)"/><path d="m-88.645031-189.882219h51.933594v-28.828125" fill="none" stroke="#fff" stroke-miterlimit="10" stroke-width=".3985" transform="matrix(1 0 0 -1 172.313 63.692)"/><path d="m135.601562 282.402344 4.78125-9.5625-4.78125 3.585937-4.78125-3.585937" fill="#fff"/><path d="m-69.645031-385.116594h65.867187v47.835938h-65.867187zm0 0" fill="none" stroke="#fff" stroke-miterlimit="10" stroke-width=".79701" transform="matrix(1 0 0 -1 172.313 63.692)"/><g fill="#fff"><use x="109.311" xlink:href="#a" y="418.349"/><use x="118.446704" xlink:href="#b" y="418.349"/></g><use fill="#fff" x="125.918654" xlink:href="#c" y="418.349"/><g fill="#fff"><use x="136.698187" xlink:href="#k" y="418.349"/><use x="140.294686" xlink:href="#a" y="418.349"/><use x="149.43039" xlink:href="#a" y="418.349"/></g><g fill="#fff"><use x="109.311" xlink:href="#l" y="438.946"/><use x="116.643474" xlink:href="#d" y="438.946"/><use x="123.428004" xlink:href="#e" y="438.946"/></g><path d="m-36.711437-308.534562v-3.550782" fill="none" stroke="#fff" stroke-miterlimit="10" stroke-width=".3985" transform="matrix(1 0 0 -1 172.313 63.692)"/><path d="m-36.711437-312.085344v-24.796875" fill="none" stroke="#fff" stroke-miterlimit="10" stroke-width=".3985" transform="matrix(1 0 0 -1 172.313 63.692)"/><path d="m135.601562 400.523438 4.78125-9.5625-4.78125 3.585937-4.78125-3.585937" fill="#fff"/><path d="m39.062-105.323625v-3.550781h-31.867187" fill="none" stroke="#fff" stroke-miterlimit="10" stroke-width=".3985" transform="matrix(1 0 0 -1 172.313 63.692)"/><path d="m7.194813-108.874406v-210.316406h-26.210938" fill="none" stroke="#fff" stroke-miterlimit="10" stroke-width=".3985" transform="matrix(1 0 0 -1 172.313 63.692)"/><path d="m-19.016125-319.190812v-17.691407" fill="none" stroke="#fff" stroke-miterlimit="10" stroke-width=".3985" transform="matrix(1 0 0 -1 172.313 63.692)"/><path d="m153.296875 400.574219 4.78125-9.5625-4.78125 3.585937-4.785156-3.585937" fill="#fff"/><g fill="#fff"><use x="534.665" xlink:href="#g" y="10.401"/><use x="539.785776" xlink:href="#h" y="10.401"/></g><g fill="#fff"><use x="412.834" xlink:href="#l" y="10.455"/><use x="420.166474" xlink:href="#d" y="10.455"/><use x="426.951004" xlink:href="#i" y="10.455"/><use x="434.422954" xlink:href="#j" y="10.455"/></g><g fill="#fff"><use x="472.78" xlink:href="#i" y="10.565"/><use x="480.25195" xlink:href="#j" y="10.565"/><use x="487.863376" xlink:href="#j" y="10.565"/></g><g fill="#fff"><use x="360.085" xlink:href="#l" y="10.291"/><use x="367.417474" xlink:href="#d" y="10.291"/><use x="374.202004" xlink:href="#e" y="10.291"/></g><g fill="#fff"><use x="593.361" xlink:href="#o" y="7.526"/><use x="596.130603" xlink:href="#o" y="7.526"/><use x="598.900206" xlink:href="#o" y="7.526"/></g><g stroke-miterlimit="10"><path d="m31.604969 20.59825h389.015625" fill="none" stroke="#fff" stroke-dasharray=".3985 1.99255" stroke-width=".3985" transform="matrix(1 0 0 -1 172.313 63.692)"/><path d="m3.763013.0018c-.464844.109375-2.492188.75-3.76171925 1.445313v-2.894532c1.26953125.695313 3.29687525 1.335938 3.76171925 1.449219zm0 0" fill="#fff" stroke="#fff" stroke-width=".3985" transform="matrix(1 0 0 -1 592.9323 43.09555)"/><path d="m5.670906.00125c0 3.128906-2.539062 5.667969-5.67187475 5.667969-3.12890625 0-5.66796825-2.539063-5.66796825-5.667969 0-3.132812 2.539062-5.671875 5.66796825-5.671875 3.13281275 0 5.67187475 2.539063 5.67187475 5.671875zm0 0" fill="#dd4a2c" stroke="#fff" stroke-width=".3985" transform="matrix(1 0 0 -1 422.458 43.095)"/><path d="m5.862781.00059375h414.757813" fill="none" stroke="#fff" stroke-dasharray=".3985 1.99255" stroke-width=".3985" transform="matrix(1 0 0 -1 172.313 63.692)"/><path d="m3.763013.00059375c-.464844.11328125-2.492188.75000025-3.76171925 1.44531225v-2.890625c1.26953125.691407 3.29687525 1.332032 3.76171925 1.44531275zm0 0" fill="#fff" stroke="#fff" stroke-width=".3985" transform="matrix(1 0 0 -1 592.9323 63.692)"/><path d="m-8.535656-20.597062h429.15625" fill="none" stroke="#fff" stroke-dasharray=".3985 1.99255" stroke-width=".3985" transform="matrix(1 0 0 -1 172.313 63.692)"/><path d="m3.763013-.0006125c-.464844.1132815-2.492188.7539065-3.76171925 1.4453125v-2.890625c1.26953125.695313 3.29687525 1.332031 3.76171925 1.4453125zm0 0" fill="#fff" stroke="#fff" stroke-width=".3985" transform="matrix(1 0 0 -1 592.9323 84.28845)"/><path d="m5.669625-.0010625c0 3.1328125-2.539063 5.6718755-5.66796875 5.6718755-3.13281225 0-5.67187525-2.539063-5.67187525-5.6718755 0-3.1289065 2.539063-5.6679685 5.67187525-5.6679685 3.12890575 0 5.66796875 2.539062 5.66796875 5.6679685zm0 0" fill="#00867f" stroke="#fff" stroke-width=".3985" transform="matrix(1 0 0 -1 535.846 84.288)"/><path d="m-20.328625-70.710344h440.949219" fill="none" stroke="#fff" stroke-dasharray=".3985 1.99255" stroke-width=".3985" transform="matrix(1 0 0 -1 172.313 63.692)"/><path d="m3.763013.00059625c-.464844.11328175-2.492188.74999975-3.76171925 1.44531275v-2.890625c1.26953125.691406 3.29687525 1.332031 3.76171925 1.44531225zm0 0" fill="#fff" stroke="#fff" stroke-width=".3985" transform="matrix(1 0 0 -1 592.9323 134.40294)"/><path d="m5.670906-.00034375c0 3.13281275-2.539062 5.66796875-5.67187475 5.66796875-3.12890625 0-5.66796825-2.535156-5.66796825-5.66796875 0-3.12890625 2.539062-5.66796825 5.66796825-5.66796825 3.13281275 0 5.67187475 2.539062 5.67187475 5.66796825zm0 0" fill="#dd4a2c" stroke="#fff" stroke-width=".3985" transform="matrix(1 0 0 -1 422.458 134.402)"/><path d="m5.668313-.00034375c0 3.13281275-2.539063 5.66796875-5.66796925 5.66796875-3.13281275 0-5.66796875-2.535156-5.66796875-5.66796875 0-3.12890625 2.535156-5.66796825 5.66796875-5.66796825 3.12890625 0 5.66796925 2.539062 5.66796925 5.66796825zm0 0" fill="#006ebf" stroke="#fff" stroke-width=".3985" transform="matrix(1 0 0 -1 479.152 134.402)"/><path d="m-55.766125-91.308h476.386719" fill="none" stroke="#fff" stroke-dasharray=".3985 1.99255" stroke-width=".3985" transform="matrix(1 0 0 -1 172.313 63.692)"/><path d="m3.763013-.00061c-.464844.113281-2.492188.753906-3.76171925 1.445313v-2.890625c1.26953125.695312 3.29687525 1.332031 3.76171925 1.445312zm0 0" fill="#fff" stroke="#fff" stroke-width=".3985" transform="matrix(1 0 0 -1 592.9323 154.99939)"/><path d="m5.670875-.001c0 3.132812-2.539062 5.671875-5.671875 5.671875-3.128906 0-5.667969-2.539063-5.667969-5.671875 0-3.128906 2.539063-5.667969 5.667969-5.667969 3.132813 0 5.671875 2.539063 5.671875 5.667969zm0 0" fill="#00867f" stroke="#fff" stroke-width=".3985" transform="matrix(1 0 0 -1 525.001 154.999)"/><path d="m5.669375-.001c0 3.132812-2.539063 5.671875-5.66796875 5.671875-3.13281225 0-5.67187525-2.539063-5.67187525-5.671875 0-3.128906 2.539063-5.667969 5.67187525-5.667969 3.12890575 0 5.66796875 2.539063 5.66796875 5.667969zm0 0" fill="#00867f" stroke="#fff" stroke-width=".3985" transform="matrix(1 0 0 -1 546.69 154.999)"/><path d="m-69.910656-151.718156h490.53125" fill="none" stroke="#fff" stroke-dasharray=".3985 1.99255" stroke-width=".3985" transform="matrix(1 0 0 -1 172.313 63.692)"/><path d="m3.763013.00194375c-.464844.10937525-2.492188.75000025-3.76171925 1.44531225v-2.894531c1.26953125.695313 3.29687525 1.335938 3.76171925 1.44921875zm0 0" fill="#fff" stroke="#fff" stroke-width=".3985" transform="matrix(1 0 0 -1 592.9323 215.4121)"/><path d="m5.670906-.00034375c0 3.13281275-2.539062 5.66796875-5.67187475 5.66796875-3.12890625 0-5.66796825-2.535156-5.66796825-5.66796875 0-3.12890625 2.539062-5.66796825 5.66796825-5.66796825 3.13281275 0 5.67187475 2.539062 5.67187475 5.66796825zm0 0" fill="#dd4a2c" stroke="#fff" stroke-width=".3985" transform="matrix(1 0 0 -1 422.458 134.402)"/><path d="m-84.309094-172.315812h504.929688" fill="none" stroke="#fff" stroke-dasharray=".3985 1.99255" stroke-width=".3985" transform="matrix(1 0 0 -1 172.313 63.692)"/><path d="m3.763013.0007475c-.464844.1132815-2.492188.7499995-3.76171925 1.4453125v-2.890625c1.26953125.691406 3.29687525 1.332031 3.76171925 1.4453125zm0 0" fill="#fff" stroke="#fff" stroke-width=".3985" transform="matrix(1 0 0 -1 592.9323 236.00856)"/><path d="m5.669625.0001875c0 3.1328125-2.539063 5.6679685-5.66796875 5.6679685-3.13281225 0-5.67187525-2.535156-5.67187525-5.6679685s2.539063-5.6679685 5.67187525-5.6679685c3.12890575 0 5.66796875 2.535156 5.66796875 5.6679685zm0 0" fill="#00867f" stroke="#fff" stroke-width=".3985" transform="matrix(1 0 0 -1 535.846 236.008)"/><path d="m5.668594.0001875c0 3.1328125-2.539063 5.6679685-5.667969 5.6679685-3.132812 0-5.667969-2.535156-5.667969-5.6679685s2.535157-5.6679685 5.667969-5.6679685c3.128906 0 5.667969 2.535156 5.667969 5.6679685zm0 0" fill="#c40064" stroke="#fff" stroke-width=".3985" transform="matrix(1 0 0 -1 365.765 236.008)"/><path d="m-108.973156-232.729875h529.59375" fill="none" stroke="#fff" stroke-dasharray=".3985 1.99255" stroke-width=".3985" transform="matrix(1 0 0 -1 172.313 63.692)"/><path d="m3.763013-.000615c-.464844.113281-2.492188.753906-3.76171925 1.445312v-2.890625c1.26953125.695313 3.29687525 1.332032 3.76171925 1.445313zm0 0" fill="#fff" stroke="#fff" stroke-width=".3985" transform="matrix(1 0 0 -1 592.9323 296.42126)"/><path d="m5.66825-.000875c0 3.132813-2.539062 5.671875-5.66796875 5.671875-3.13281225 0-5.66796825-2.539062-5.66796825-5.671875 0-3.128906 2.535156-5.667969 5.66796825-5.667969 3.12890675 0 5.66796875 2.539063 5.66796875 5.667969zm0 0" fill="#dd4a2c" stroke="#fff" stroke-width=".3985" transform="matrix(1 0 0 -1 411.613 296.421)"/><path d="m5.670656-.000875c0 3.132813-2.539062 5.671875-5.67187475 5.671875-3.12890625 0-5.66796825-2.539062-5.66796825-5.671875 0-3.128906 2.539062-5.667969 5.66796825-5.667969 3.13281275 0 5.67187475 2.539063 5.67187475 5.667969zm0 0" fill="#dd4a2c" stroke="#fff" stroke-width=".3985" transform="matrix(1 0 0 -1 433.302 296.421)"/><path d="m-136.930187-253.327531h557.550781" fill="none" stroke="#fff" stroke-dasharray=".3985 1.99255" stroke-width=".3985" transform="matrix(1 0 0 -1 172.313 63.692)"/><path d="m3.763013-.00180125c-.464844.11328125-2.492188.75390625-3.76171925 1.44921925v-2.894532c1.26953125.695313 3.29687525 1.335938 3.76171925 1.44531275zm0 0" fill="#fff" stroke="#fff" stroke-width=".3985" transform="matrix(1 0 0 -1 592.9323 317.01773)"/><path d="m5.670906.001375c0 3.128906-2.539062 5.667969-5.67187475 5.667969-3.12890625 0-5.66796825-2.539063-5.66796825-5.667969 0-3.132812 2.539062-5.671875 5.66796825-5.671875 3.13281275 0 5.67187475 2.539063 5.67187475 5.671875zm0 0" fill="#dd4a2c" stroke="#fff" stroke-width=".3985" transform="matrix(1 0 0 -1 422.458 317.017)"/><path d="m5.668594.001375c0 3.128906-2.539063 5.667969-5.667969 5.667969-3.132812 0-5.667969-2.539063-5.667969-5.667969 0-3.132812 2.535157-5.671875 5.667969-5.671875 3.128906 0 5.667969 2.539063 5.667969 5.671875zm0 0" fill="#c40064" stroke="#fff" stroke-width=".3985" transform="matrix(1 0 0 -1 365.765 317.017)"/><path d="m-30.441906-273.921281h451.0625" fill="none" stroke="#fff" stroke-dasharray=".3985 1.99255" stroke-width=".3985" transform="matrix(1 0 0 -1 172.313 63.692)"/><path d="m3.763013.00091875c-.464844.11328125-2.492188.75000025-3.76171925 1.44531225v-2.894531c1.26953125.695312 3.29687525 1.335937 3.76171925 1.44921875zm0 0" fill="#fff" stroke="#fff" stroke-width=".3985" transform="matrix(1 0 0 -1 592.9323 337.6142)"/><path d="m-30.441906-273.921281h451.0625" fill="none" stroke="#fff" stroke-dasharray=".3985 1.99255" stroke-width=".3985" transform="matrix(1 0 0 -1 172.313 63.692)"/><path d="m3.763013.00091875c-.464844.11328125-2.492188.75000025-3.76171925 1.44531225v-2.894531c1.26953125.695312 3.29687525 1.335937 3.76171925 1.44921875zm0 0" fill="#fff" stroke="#fff" stroke-width=".3985" transform="matrix(1 0 0 -1 592.9323 337.6142)"/><path d="m-36.520031-294.518937h457.140625" fill="none" stroke="#fff" stroke-dasharray=".3985 1.99255" stroke-width=".3985" transform="matrix(1 0 0 -1 172.313 63.692)"/><path d="m3.763013-.0002875c-.464844.1132815-2.492188.7499995-3.76171925 1.4453125v-2.890625c1.26953125.695312 3.29687525 1.332031 3.76171925 1.4453125zm0 0" fill="#fff" stroke="#fff" stroke-width=".3985" transform="matrix(1 0 0 -1 592.9323 358.21065)"/><path d="m-36.520031-294.518937h457.140625" fill="none" stroke="#fff" stroke-dasharray=".3985 1.99255" stroke-width=".3985" transform="matrix(1 0 0 -1 172.313 63.692)"/><path d="m3.763013-.0002875c-.464844.1132815-2.492188.7499995-3.76171925 1.4453125v-2.890625c1.26953125.695312 3.29687525 1.332031 3.76171925 1.4453125zm0 0" fill="#fff" stroke="#fff" stroke-width=".3985" transform="matrix(1 0 0 -1 592.9323 358.21065)"/><path d="m-6.699719-350.90175h427.320313" fill="none" stroke="#fff" stroke-dasharray=".3985 1.99255" stroke-width=".3985" transform="matrix(1 0 0 -1 172.313 63.692)"/><path d="m3.763013-.00168c-.464844.113281-2.492188.753906-3.76171925 1.449219v-2.894532c1.26953125.695313 3.29687525 1.335938 3.76171925 1.445313zm0 0" fill="#fff" stroke="#fff" stroke-width=".3985" transform="matrix(1 0 0 -1 592.9323 414.59207)"/><path d="m-6.699719-350.90175h427.320313" fill="none" stroke="#fff" stroke-dasharray=".3985 1.99255" stroke-width=".3985" transform="matrix(1 0 0 -1 172.313 63.692)"/><path d="m3.763013-.00168c-.464844.113281-2.492188.753906-3.76171925 1.449219v-2.894532c1.26953125.695313 3.29687525 1.335938 3.76171925 1.445313zm0 0" fill="#fff" stroke="#fff" stroke-width=".3985" transform="matrix(1 0 0 -1 592.9323 414.59207)"/><path d="m-34.65675-371.4955h455.277344" fill="none" stroke="#fff" stroke-dasharray=".3985 1.99255" stroke-width=".3985" transform="matrix(1 0 0 -1 172.313 63.692)"/><path d="m3.763013.00104c-.464844.113281-2.492188.75-3.76171925 1.445312v-2.894531c1.26953125.695313 3.29687525 1.335938 3.76171925 1.449219zm0 0" fill="#fff" stroke="#fff" stroke-width=".3985" transform="matrix(1 0 0 -1 592.9323 435.18854)"/><path d="m-34.65675-371.4955h455.277344" fill="none" stroke="#fff" stroke-dasharray=".3985 1.99255" stroke-width=".3985" transform="matrix(1 0 0 -1 172.313 63.692)"/><path d="m3.763013.00104c-.464844.113281-2.492188.75-3.76171925 1.445312v-2.894531c1.26953125.695313 3.29687525 1.335938 3.76171925 1.449219zm0 0" fill="#fff" stroke="#fff" stroke-width=".3985" transform="matrix(1 0 0 -1 592.9323 435.18854)"/><path d="m5.668594.0005c0 3.128906-2.539063 5.667969-5.667969 5.667969-3.132812 0-5.667969-2.539063-5.667969-5.667969 0-3.132812 2.535157-5.667969 5.667969-5.667969 3.128906 0 5.667969 2.535157 5.667969 5.667969zm0 0" fill="#c40064" stroke="#fff" stroke-width=".3985" transform="matrix(1 0 0 -1 365.765 435.188)"/><path d="m447.390125-91.308h-170.078125" fill="none" stroke="#00867f" stroke-width="2.83484" transform="matrix(1 0 0 -1 172.313 63.692)"/></g><g fill="#fff"><use x="592.97" xlink:href="#p" y="164.918"/><use x="604.676499" xlink:href="#q" y="164.918"/></g><use fill="#fff" x="611.333136" xlink:href="#r" y="164.918"/><g fill="#fff"><use x="618.362774" xlink:href="#s" y="164.918"/><use x="624.603371" xlink:href="#t" y="164.918"/><use x="632.407704" xlink:href="#t" y="164.918"/><use x="640.212037" xlink:href="#s" y="164.918"/></g><path d="m362.351063-177.366594v161.820313" fill="none" stroke="#00867f" stroke-miterlimit="10" stroke-width="2.83484" transform="matrix(1 0 0 -1 172.313 63.692)"/><path d="m.00146125 7.163595v-14.328125" fill="none" stroke="#00867f" stroke-miterlimit="10" stroke-width="2.83484" transform="matrix(0 1 1 0 534.66453 241.76807)"/><path d="m.00161625 7.16453v-14.328125" fill="none" stroke="#00867f" stroke-miterlimit="10" stroke-width="2.83484" transform="matrix(0 -1 -1 0 534.66453 78.52896)"/><use fill="#fff" x="509.487" xlink:href="#u" y="259.593"/><g fill="#fff"><use x="516.143637" xlink:href="#v" y="259.593"/><use x="523.173275" xlink:href="#w" y="259.593"/><use x="528.639177" xlink:href="#x" y="259.593"/><use x="532.541343" xlink:href="#v" y="259.593"/><use x="539.570981" xlink:href="#t" y="259.593"/><use x="547.375314" xlink:href="#y" y="259.593"/><use x="553.615911" xlink:href="#s" y="259.593"/></g><path d="m333.581531-391.319719h58.515625v431.738282h-58.515625zm0 0" fill="none" stroke="#00867f" stroke-miterlimit="10" stroke-width="2.83484" transform="matrix(1 0 0 -1 172.313 63.692)"/><g fill="#fff"><use x="512.32" xlink:href="#t" y="447.228"/><use x="520.124333" xlink:href="#q" y="447.228"/><use x="527.153971" xlink:href="#p" y="447.228"/></g><g fill="#fff"><use x="538.487469" xlink:href="#z" y="447.228"/><use x="546.291802" xlink:href="#w" y="447.228"/><use x="551.757704" xlink:href="#s" y="447.228"/></g></svg>