<?xml version="1.0" encoding="UTF-8" standalone="no"?>
<svg
   xmlns:dc="http://purl.org/dc/elements/1.1/"
   xmlns:cc="http://creativecommons.org/ns#"
   xmlns:rdf="http://www.w3.org/1999/02/22-rdf-syntax-ns#"
   xmlns:svg="http://www.w3.org/2000/svg"
   xmlns="http://www.w3.org/2000/svg"
   xmlns:sodipodi="http://sodipodi.sourceforge.net/DTD/sodipodi-0.dtd"
   xmlns:inkscape="http://www.inkscape.org/namespaces/inkscape"
   width="124"
   height="124"
   viewBox="0 0 124 124"
   version="1.1"
   id="svg88"
   sodipodi:docname="logo-stackoverflow_square.svg"
   inkscape:version="0.92.4 (5da689c313, 2019-01-14)">
  <metadata
     id="metadata94">
    <rdf:RDF>
      <cc:Work
         rdf:about="">
        <dc:format>image/svg+xml</dc:format>
        <dc:type
           rdf:resource="http://purl.org/dc/dcmitype/StillImage" />
        <dc:title></dc:title>
      </cc:Work>
    </rdf:RDF>
  </metadata>
  <defs
     id="defs92">
    <clipPath
       clipPathUnits="userSpaceOnUse"
       id="clipPath3833">
      <rect
         id="rect3835"
         width="129.43608"
         height="142.68892"
         x="-15.461648"
         y="-5.877841" />
    </clipPath>
  </defs>
  <sodipodi:namedview
     pagecolor="#ffffff"
     bordercolor="#666666"
     borderopacity="1"
     objecttolerance="10"
     gridtolerance="10"
     guidetolerance="10"
     inkscape:pageopacity="0"
     inkscape:pageshadow="2"
     inkscape:window-width="969"
     inkscape:window-height="698"
     id="namedview90"
     showgrid="false"
     inkscape:zoom="4.3709677"
     inkscape:cx="62"
     inkscape:cy="142.19647"
     inkscape:window-x="70"
     inkscape:window-y="27"
     inkscape:window-maximized="0"
     inkscape:current-layer="svg88" />
  <g
     id="g86"
     clip-path="url(#clipPath3833)"
     transform="matrix(0.94123443,0,0,0.95041011,10.046658,3.3584107)"
     style="fill:none;fill-rule:evenodd">
    <path
       d="m 142.7,76.742 -7.174,-0.635 c -5.631,-0.453 -7.81,-2.724 -7.81,-6.539 0,-4.54 3.451,-7.357 9.99,-7.357 4.632,0 8.718,1.091 11.9,3.543 l 4.269,-4.269 c -4,-3.269 -9.719,-4.812 -16.075,-4.812 -9.536,0 -16.439,4.9 -16.439,13.077 0,7.356 4.633,11.261 13.351,11.988 l 7.356,0.635 c 5.176,0.455 7.447,2.634 7.447,6.539 0,5.268 -4.541,7.9 -11.9,7.9 -5.541,0 -10.354,-1.453 -13.9,-5.177 l -4.36,4.36 c 4.905,4.722 10.808,6.448 18.346,6.448 10.807,0 18.164,-5 18.164,-13.622 0,-8.358 -5.359,-11.353 -13.17,-12.081 z m 55.913,-20.071 c -7.169,0 -11.685,1.413 -15.642,6.423 -0.054,0.069 4.29,4.292 4.29,4.292 2.633,-3.723 5.539,-5.084 11.26,-5.084 8.174,0 11.444,3.269 11.444,9.807 v 4.268 h -13.438 c -9.99,0 -15.438,5.087 -15.438,12.9 -0.10494,3.349295 1.10046,6.607474 3.36,9.082 2.816,2.907 6.448,4.087 12.623,4.087 5.994,0 9.264,-1.18 12.9,-4.814 v 4.268 h 6.539 V 71.565 c 0,-9.717 -5.9,-14.892 -17.891,-14.892 z M 209.969,86.1 c 0,3.725 -0.727,6.268 -2.271,7.72 -2.815,2.725 -6.175,3 -9.989,3 -7.084,0 -10.264,-2.453 -10.264,-7.63 0,-5.177 3.27,-7.9 9.992,-7.9 h 12.532 z m 32.149,-23.611 c 4.268,0 6.9,1.271 10.262,4.994 0,0 4.378,-4.255 4.342,-4.293 -4.585,-4.905 -8.477,-6.513 -14.6,-6.513 -11.262,0 -19.8,7.628 -19.8,22.885 0,15.257 8.536,22.887 19.8,22.887 6.175,0 10.08,-1.636 14.712,-6.63 l -4.45,-4.269 c -3.36,3.724 -5.994,5.086 -10.262,5.086 -4.08879,0.163376 -7.98337,-1.749872 -10.353,-5.086 -2.089,-2.906 -2.906,-6.357 -2.906,-11.988 0,-5.631 0.817,-9.082 2.906,-11.988 2.36912,-3.336613 6.26416,-5.249713 10.353,-5.085 z m 56.004,-5.334 h -8.152 l -20.26,19.72 0.031,-39.639 H 263.2 V 101.9 h 6.54 l -0.031,-16.309 7.931,-7.959 14.988,24.268 h 8.082 L 282.17,73.1 Z m 30.213,-1.1 c -6.7,0 -11.227,2.611 -14.013,5.57 -4.091,4.265 -5.135,9.4 -5.135,17.582 0,8.268 1.044,13.4 5.135,17.669 2.786,2.959 7.311,5.571 14.013,5.571 6.702,0 11.316,-2.612 14.1,-5.571 4.091,-4.265 5.136,-9.4 5.136,-17.669 0,-8.181 -1.045,-13.317 -5.136,-17.582 -2.784,-2.959 -7.4,-5.57 -14.1,-5.57 z m 5.31,34.206 c -1.41858,1.370211 -3.33997,2.093896 -5.31,2 -1.94393,0.09401 -3.8382,-0.631485 -5.222,-2 -2.351,-2.35 -2.611,-6.353 -2.611,-11.054 0,-4.701 0.26,-8.616 2.611,-10.966 1.38359,-1.368832 3.278,-2.094384 5.222,-2 1.97011,-0.09438 3.89168,0.629378 5.31,2 2.349,2.35 2.611,6.266 2.611,10.966 0,4.7 -0.262,8.7 -2.611,11.054 z M 377.7,56.575 368.562,84.6 359.336,56.573 H 347.41 l 16.713,45.347 H 373 l 16.623,-45.347 z m 31.173,-0.522 c -11.749,0 -19.757,8.355 -19.757,23.152 0,18.366 10.271,23.24 20.976,23.24 8.182,0 12.622,-2.525 17.234,-7.139 l -6.875,-6.7 c -2.873,2.873 -5.311,4.265 -10.272,4.265 -6.354,0 -9.922,-4.265 -9.922,-10.1 h 28.374 v -5.045 c 0,-12.447 -7.137,-21.673 -19.758,-21.673 z m -8.616,18.974 c 0.0166,-1.678455 0.37205,-3.336265 1.045,-4.874 1.42603,-2.878175 4.36042,-4.699115 7.5725,-4.699115 3.21208,0 6.14647,1.82094 7.5725,4.699115 0.67075,1.538404 1.02576,3.195829 1.044,4.874 z m 45.065,-14.1 v -4.352 h -11.055 v 45.347 h 11.315 V 74.593 c 0,-5.745 3.83,-8.357 7.312,-8.357 2.2946,-0.07928 4.49746,0.904438 5.97,2.666 l 8.566,-8.584 c -3.134,-3.134 -6.267,-4.265 -10.706,-4.265 -4.3164,-0.05112 -8.45471,1.718186 -11.4,4.874 z m 25.619,-9.079 v 50.028 h 11.314 V 66.122 h 8.356 v -8.616 h -8.356 v -4.961 c 0,-2.611 1.307,-4.091 4,-4.091 h 4.352 v -9.573 h -6.44 c -9.228,0 -13.23,6.527 -13.23,12.967 z m 66.25,4.2 c -6.7,0 -11.228,2.611 -14.013,5.57 -4.09,4.265 -5.135,9.4 -5.135,17.582 0,8.268 1.045,13.4 5.135,17.669 2.785,2.959 7.311,5.571 14.013,5.571 6.702,0 11.316,-2.612 14.1,-5.571 4.09,-4.265 5.135,-9.4 5.135,-17.669 0,-8.181 -1.045,-13.317 -5.135,-17.582 -2.785,-2.959 -7.4,-5.57 -14.1,-5.57 z m 5.31,34.206 c -1.41858,1.370211 -3.33997,2.093896 -5.31,2 -1.94393,0.09401 -3.8382,-0.631485 -5.222,-2 -2.35,-2.35 -2.611,-6.353 -2.611,-11.054 0,-4.701 0.261,-8.616 2.611,-10.966 1.38359,-1.368832 3.278,-2.094384 5.222,-2 1.97011,-0.09438 3.89168,0.629378 5.31,2 2.349,2.35 2.611,6.266 2.611,10.966 0,4.7 -0.262,8.7 -2.611,11.054 z M 609.883,56.57 602.573,84.6 593.26,56.575 h -8.267 l -9.228,28.025 -7.31,-28.027 h -12.011 l 13.926,45.347 h 9.313 l 9.487,-28.46 9.487,28.46 h 9.313 L 621.809,56.573 Z M 507.3,88.257 V 38.881 h -11.311 v 50.072 c 0,6.441 3.918,12.969 13.23,12.969 h 6.44 v -9.575 h -4.351 c -2.872,0 -4,-1.392 -4,-4.09 z M 174,64.246 180.046,58.2 h -12.38 V 43.5 h -6.539 v 46.412 c 0,6.629 3.814,11.988 11.443,11.988 h 4.63 v -5.631 h -3.45 c -4.177,0 -6.084,-2.453 -6.084,-6.539 V 64.246 Z"
       id="path80"
       inkscape:connector-curvature="0"
       style="fill:#1e1b1d;fill-rule:nonzero" />
    <polygon
       points="99,124 0,124 0,80 11,80 11,113 88,113 88,80 99,80 "
       id="polygon82"
       style="fill:#bbbbbb" />
    <path
       d="m 22.987891,76.73 54.025,11.355 2.271,-10.8 -54.025,-11.36 z m 7.149,-25.869 50.046,23.308 4.662,-10.009 -50.047,-23.308 z m 13.848,-24.553 42.428,35.331 7.066,-8.485 -42.428,-35.33 z m 27.387,-26.116 -8.86,6.59 32.948,44.3 8.859999,-6.589 z M 22,102 H 77 V 91 H 22 Z"
       id="path84"
       inkscape:connector-curvature="0"
       style="fill:#f58025;fill-rule:nonzero" />
  </g>
</svg>
